{"glyphs":{"0":{"ha":772,"x_min":0,"x_max":814,"o":"m 401 990 l 412 990 q 632 873 543 990 l 632 865 l 627 865 q 673 806 661 845 l 667 806 l 665 817 l 662 817 l 651 808 l 648 811 l 646 811 l 640 792 l 643 789 l 654 789 l 678 795 q 746 534 746 656 l 757 534 q 814 505 798 534 q 762 475 762 487 q 727 315 750 475 q 589 65 682 149 q 407 0 513 0 q 92 307 182 0 q 41 488 63 488 q 0 507 0 502 l 0 510 q 57 534 21 534 l 65 534 l 73 616 l 76 616 l 84 613 q 98 624 96 618 l 95 624 l 76 621 q 84 654 76 638 l 98 651 l 125 659 l 127 659 l 152 651 q 160 662 156 662 l 203 662 q 220 678 220 662 l 220 681 l 212 684 q 114 667 157 667 l 103 667 q 87 675 89 667 q 103 697 87 682 l 103 700 l 100 722 q 127 776 117 770 l 138 776 l 152 765 l 157 765 q 184 789 157 789 q 258 819 226 789 l 277 822 l 304 811 q 285 613 285 713 l 285 534 l 293 534 q 353 505 338 534 l 312 488 q 282 437 293 469 q 407 76 282 76 q 526 388 526 76 l 526 445 q 464 502 526 490 l 461 505 l 461 507 q 524 534 479 534 l 526 534 l 521 678 l 624 692 l 632 705 l 629 713 l 627 713 q 605 703 617 713 l 589 703 l 556 694 l 540 694 q 513 757 513 694 q 450 895 488 868 q 439 925 443 895 q 429 911 429 925 l 396 914 q 328 871 363 914 q 271 841 295 871 l 182 819 q 146 814 170 814 l 144 814 l 144 817 l 165 854 l 179 852 l 179 854 l 182 857 l 179 860 l 179 871 q 401 990 270 990 m 464 971 l 467 958 l 475 958 l 475 963 l 467 971 l 464 971 m 483 955 l 480 952 l 480 949 l 483 941 l 491 941 l 491 947 l 483 955 m 382 936 l 393 928 l 404 928 l 407 941 l 393 949 q 382 936 382 947 m 502 898 l 505 895 l 518 895 l 524 901 l 518 906 q 502 898 502 903 m 480 898 l 477 895 q 491 876 484 878 l 494 876 l 502 884 q 480 898 494 898 m 255 884 l 255 882 q 277 873 257 873 l 279 876 l 279 882 l 266 884 l 255 884 m 206 871 l 209 860 l 217 860 l 214 873 l 212 873 l 209 871 l 206 871 m 526 873 l 524 865 l 526 865 l 532 871 l 532 873 l 526 873 m 600 860 l 594 844 l 597 841 l 600 841 l 605 849 l 605 854 l 600 860 m 195 838 l 198 830 l 206 830 q 214 846 212 830 l 206 852 l 203 852 q 195 838 199 852 m 494 838 q 505 830 494 830 l 515 838 l 515 841 l 510 846 q 494 838 494 845 m 618 819 q 627 808 623 808 l 629 808 l 629 817 l 624 822 l 621 819 l 618 819 m 540 757 l 540 751 q 556 743 540 746 l 562 751 l 562 754 l 553 762 l 545 762 l 540 757 m 591 760 q 613 743 591 743 l 613 751 l 602 762 l 597 762 l 594 760 l 591 760 m 570 751 l 570 749 l 578 738 l 581 741 l 581 746 l 575 751 l 570 751 m 629 741 l 624 732 l 640 716 l 646 716 l 648 724 q 629 741 642 741 m 163 722 l 163 716 l 168 716 l 171 727 l 168 727 l 163 722 m 239 632 l 239 629 q 260 621 241 621 l 266 629 q 247 637 256 637 l 244 637 l 239 632 m 95 608 l 95 602 l 100 597 l 106 597 l 106 600 l 103 608 l 95 608 m 179 591 l 176 589 l 176 586 q 184 570 178 570 l 187 572 l 187 575 q 179 591 187 589 m 203 288 l 203 282 l 209 288 l 203 288 z "},"1":{"ha":366,"x_min":-31,"x_max":387,"o":"m 279 974 l 284 974 l 290 968 l 290 518 l 306 518 q 355 491 355 506 q 314 472 355 486 q 290 396 290 450 l 290 163 q 314 73 290 73 l 328 71 l 341 73 l 366 73 q 387 24 387 65 l 387 22 q 368 3 387 3 l 268 3 l 268 -19 l 273 -24 l 271 -41 l 265 -41 l 265 -24 l 260 -24 l 260 -33 l 252 -33 q 243 -24 252 -24 l 241 -27 l 241 -33 l 246 -41 l 246 -46 l 243 -46 q 238 -30 238 -46 l 235 -30 l 230 -68 l 224 -68 l 224 -60 l 219 -60 q 211 -84 216 -84 l 203 -81 q 195 -119 195 -96 l 197 -127 l 195 -127 l 197 -138 l 200 -138 l 205 -119 l 208 -119 l 211 -122 l 214 -122 l 214 -117 l 219 -117 l 219 -122 q 205 -160 205 -130 l 208 -168 l 211 -168 l 211 -163 l 216 -163 q 203 -304 203 -228 l 205 -323 l 200 -328 l 200 -336 l 205 -336 l 205 -339 l 200 -347 l 203 -350 l 203 -353 l 200 -355 l 192 -355 l 181 -345 l 181 -342 l 189 -347 l 192 -347 l 181 -331 q 162 -442 173 -331 l 165 -456 l 165 -458 l 162 -461 l 165 -464 l 165 -477 l 159 -477 l 159 -461 l 157 -429 l 159 -429 l 157 -426 l 157 -412 l 159 -399 l 157 -396 l 154 -396 l 157 -393 l 157 -388 l 154 -385 l 154 -382 l 151 -385 l 149 -385 l 140 -382 l 135 -391 l 138 -393 l 132 -393 l 132 -388 q 121 -342 130 -342 l 121 -347 l 124 -355 l 121 -355 l 119 -353 l 116 -353 l 116 -361 l 121 -369 l 121 -372 l 119 -372 l 116 -369 l 113 -369 l 111 -372 q 102 -317 102 -344 l 97 -317 l 94 -355 l 89 -355 l 89 -342 l 86 -328 l 89 -328 q 78 -317 89 -317 l 78 -312 l 83 -312 l 81 -309 l 81 -307 l 86 -307 q 67 -228 81 -228 l 64 -184 q 73 -168 67 -168 l 67 -146 l 73 -146 l 73 -152 l 81 -152 l 89 -136 l 78 -127 l 78 -90 q 70 -65 78 -75 l 70 -62 l 73 -65 l 75 -65 l 75 -60 l 67 0 l 64 0 l 64 -16 l 62 -16 q 54 3 59 3 l 45 3 l 40 -33 l 45 -60 q 37 -81 37 -60 l 40 -90 l 32 -90 l 32 -87 l 35 -79 l 32 -81 l 29 -81 q 10 -49 21 -81 q 2 -24 5 -49 l 16 -11 l 13 -8 l 16 -5 l 16 3 l 13 0 l 10 0 q -3 41 0 9 l -6 43 l -3 52 l -12 60 l -12 62 l -9 65 l -9 68 l -20 76 q -28 71 -20 71 l -31 71 l -31 73 q -22 84 -22 73 l -17 84 q -9 73 -16 73 l -6 73 l -1 92 l -3 103 l 2 103 l 2 109 l -1 111 l 16 165 l 21 174 l 18 176 l 29 193 q 45 203 45 193 l 48 201 l 51 201 q 62 228 62 216 l 56 244 l 70 263 l 70 298 l 73 298 l 75 296 l 78 296 l 86 298 l 86 296 l 83 288 q 89 277 89 288 l 94 277 l 97 415 q 56 480 97 460 q 29 491 29 483 l 29 494 q 92 518 49 518 l 97 518 l 97 743 q 32 806 97 806 q -1 841 -1 806 q 37 884 -1 884 q 208 941 102 884 q 279 974 242 974 m 56 814 l 56 811 l 67 811 l 75 819 l 73 822 l 70 822 q 56 814 56 819 m 81 808 l 81 806 l 83 798 l 86 798 l 86 800 l 83 808 l 81 808 m 40 212 l 43 212 l 43 206 l 40 206 l 40 212 m 18 3 l 21 0 l 21 -16 l 26 -16 l 26 -3 l 21 3 l 18 3 m 241 3 l 243 -5 l 241 -8 l 241 -11 l 249 -22 l 252 -22 l 252 -11 l 246 3 l 241 3 m 260 3 l 260 -19 l 262 -19 l 262 3 l 260 3 m 233 -5 l 233 -16 l 235 -16 l 235 -5 l 233 -5 m 219 -19 l 219 -24 l 222 -24 l 222 -19 l 219 -19 m 227 -22 l 222 -52 l 222 -57 l 224 -57 l 230 -30 l 230 -22 l 227 -22 m 281 -22 l 284 -22 l 284 -27 l 281 -27 l 281 -22 m 216 -27 l 216 -35 l 219 -35 l 222 -27 l 216 -27 m 62 -27 l 67 -27 l 67 -33 l 62 -33 l 62 -27 m 214 -38 l 214 -41 l 219 -46 l 219 -38 l 214 -38 m 268 -46 l 273 -46 l 273 -57 l 268 -57 l 268 -46 m 257 -49 l 262 -49 l 262 -68 l 260 -68 l 254 -57 l 257 -49 m 241 -52 l 246 -52 l 246 -57 l 243 -60 l 246 -62 l 246 -68 l 241 -68 l 241 -52 m 208 -62 l 214 -68 l 214 -62 l 208 -62 m 146 -79 l 151 -84 l 143 -98 l 146 -106 l 143 -109 q 154 -160 149 -160 l 151 -168 l 154 -179 l 151 -190 q 157 -179 157 -190 l 159 -182 l 162 -182 l 162 -174 l 157 -174 l 159 -144 l 159 -141 l 157 -141 l 157 -146 l 151 -141 l 157 -65 q 146 -79 149 -66 m 271 -68 l 276 -68 l 276 -73 l 271 -73 l 271 -68 m 208 -73 l 208 -79 l 211 -79 l 211 -73 l 208 -73 m 45 -73 l 51 -73 l 51 -79 l 45 -79 l 45 -73 m 260 -73 l 265 -73 l 265 -81 l 260 -81 l 260 -73 m 143 -81 l 143 -87 l 146 -87 l 146 -81 l 143 -81 m 2 -84 l 7 -84 l 7 -95 l -6 -95 l -6 -87 l -1 -87 l -1 -92 l 2 -92 l 2 -84 m 16 -87 l 21 -87 l 21 -100 l 16 -95 l 16 -87 m 219 -87 l 222 -87 l 222 -92 l 219 -92 l 219 -87 m 200 -90 l 205 -90 l 205 -92 l 200 -92 l 200 -90 m 62 -95 l 67 -95 l 67 -109 l 64 -109 l 62 -95 m 5 -98 l 10 -103 l 5 -103 l 5 -98 m 262 -98 l 268 -98 l 268 -103 l 262 -103 l 262 -98 m 249 -117 l 254 -117 l 254 -125 l 249 -125 l 249 -117 m 67 -125 l 73 -125 l 73 -130 l 67 -130 l 67 -125 m 73 -130 l 78 -130 l 78 -136 l 75 -138 l 75 -141 l 67 -138 l 67 -136 l 73 -130 m 192 -136 l 192 -144 l 195 -144 l 195 -136 l 192 -136 m 197 -141 l 197 -149 l 200 -149 l 200 -141 l 197 -141 m 214 -141 l 219 -141 l 219 -146 l 214 -146 l 214 -141 m 176 -182 l 176 -190 l 178 -190 l 178 -182 l 176 -182 m 176 -193 l 176 -198 l 178 -198 l 178 -193 l 176 -193 m 176 -201 l 176 -206 l 178 -206 l 178 -201 l 176 -201 m 119 -304 l 119 -309 l 121 -309 l 121 -304 l 119 -304 m 97 -312 l 97 -315 l 102 -315 l 102 -312 l 97 -312 m 119 -315 l 116 -331 l 121 -331 l 121 -315 l 119 -315 m 116 -339 l 116 -345 l 119 -345 l 119 -339 l 116 -339 m 138 -339 l 138 -374 l 140 -374 l 140 -339 l 138 -339 m 151 -339 l 151 -347 l 154 -347 l 154 -339 l 151 -339 m 151 -355 l 151 -380 l 157 -380 l 159 -369 l 157 -355 l 151 -355 m 189 -363 l 192 -366 l 192 -372 l 189 -372 l 184 -366 l 186 -363 l 189 -363 m 89 -366 l 94 -366 l 94 -374 l 89 -374 l 89 -366 m 116 -377 l 121 -377 l 121 -385 l 116 -385 l 116 -377 m 132 -477 l 138 -477 l 138 -488 l 132 -488 l 132 -477 m 159 -488 l 165 -488 l 165 -502 l 162 -502 l 159 -488 m 162 -507 l 168 -507 l 168 -513 l 170 -567 l 165 -567 l 165 -564 l 168 -562 l 162 -532 l 165 -532 l 159 -518 l 162 -507 m 170 -575 l 173 -575 l 173 -591 l 170 -591 l 165 -581 l 170 -575 m 170 -600 l 176 -600 l 176 -605 l 170 -605 l 170 -600 m 173 -629 l 176 -629 l 176 -635 l 173 -635 l 173 -629 z "},"2":{"ha":671,"x_min":0,"x_max":689,"o":"m 27 971 l 60 971 q 133 914 72 971 l 136 914 q 328 971 257 971 l 336 971 q 659 789 582 971 q 673 697 673 732 q 602 515 673 597 q 570 502 573 515 l 570 499 l 575 499 l 610 507 q 648 475 648 498 l 648 472 l 643 467 l 621 467 q 442 377 555 467 q 195 193 349 317 l 195 190 l 537 190 q 616 301 616 190 q 640 358 616 358 l 662 358 q 689 331 689 358 l 689 22 q 667 0 689 0 l 14 0 l 0 14 l 0 52 q 49 130 0 64 l 54 130 q 62 106 61 130 l 60 103 l 57 103 l 49 109 l 46 109 l 46 106 q 65 79 46 94 l 65 73 l 62 71 l 62 68 l 60 71 l 49 71 l 57 60 l 57 57 l 49 57 l 49 52 l 52 52 l 60 57 l 71 57 q 87 49 87 56 q 76 43 87 43 l 76 41 l 90 38 l 95 38 l 103 46 l 98 71 l 98 81 l 119 98 l 125 114 l 114 119 l 87 111 l 81 111 q 62 133 76 111 l 57 133 l 57 136 q 296 410 111 205 q 312 442 312 431 l 312 445 q 271 483 312 477 l 271 491 q 334 515 296 515 q 374 502 355 515 q 453 722 453 616 q 366 879 453 849 l 350 882 l 317 882 q 95 694 200 882 q 76 686 76 692 l 76 684 l 81 675 q 49 651 73 651 l 27 651 l 19 656 l 16 751 l 16 852 l 19 966 l 27 971 m 515 860 l 521 860 l 521 865 l 515 860 z "},"3":{"ha":655,"x_min":0,"x_max":667,"o":"m 43 990 l 79 990 l 138 939 q 328 990 252 990 l 342 990 q 608 863 527 990 q 635 757 635 812 q 442 532 635 590 l 439 532 l 439 529 q 540 491 490 515 q 610 534 561 534 l 616 534 q 667 507 645 534 q 624 488 667 503 q 602 445 602 464 q 659 293 659 389 l 659 279 q 643 271 656 271 l 640 271 q 562 252 562 271 l 570 241 l 572 241 q 627 258 578 250 q 646 263 627 262 l 654 263 l 656 260 l 659 260 q 635 209 659 209 l 635 203 l 632 203 q 640 195 632 195 l 643 193 l 643 190 q 583 98 632 146 q 537 62 549 62 l 534 65 q 385 5 534 37 l 312 0 q 111 60 234 0 q 38 0 55 0 l 16 0 q 0 8 2 0 l 0 312 l 8 320 l 41 320 q 100 236 61 320 q 326 90 193 90 q 415 157 386 90 l 418 157 l 420 155 l 420 152 l 434 155 l 434 157 l 429 163 l 418 157 l 418 160 q 439 301 439 222 l 439 309 q 366 480 439 448 l 233 480 q 187 526 187 480 q 217 567 191 567 l 353 567 q 412 627 380 567 q 431 746 431 680 l 431 754 q 342 909 431 886 l 331 909 q 95 722 191 909 q 68 700 81 700 l 43 700 l 30 708 l 35 985 l 43 990 m 442 250 l 448 244 l 467 244 l 467 250 l 448 255 l 442 250 m 548 239 l 548 228 l 559 217 l 564 217 l 570 222 l 570 225 l 556 239 l 548 239 m 467 222 l 467 217 q 488 206 467 210 l 491 209 l 491 212 l 486 231 l 483 231 q 467 222 474 222 m 613 217 l 613 214 l 621 203 l 624 203 l 621 217 l 613 217 m 581 212 q 594 193 581 197 l 602 195 l 602 201 l 591 212 l 581 212 m 437 168 l 437 165 l 445 165 l 445 168 l 437 168 m 510 155 q 534 138 526 155 l 543 146 l 548 146 l 548 141 l 551 141 l 553 165 l 543 168 q 510 155 510 161 m 84 160 l 84 152 l 90 146 l 92 146 l 92 155 l 87 160 l 84 160 m 469 146 l 469 127 q 496 114 479 127 l 515 133 q 499 146 511 143 l 494 141 l 491 152 l 475 152 l 469 146 m 564 146 l 564 144 l 572 133 l 575 136 l 575 138 l 572 146 l 564 146 m 46 141 l 46 130 l 49 130 l 49 141 l 46 141 m 54 119 l 60 119 l 73 122 l 73 130 q 54 119 59 130 m 543 95 l 543 87 l 548 81 l 567 90 l 567 95 l 556 100 l 548 100 l 543 95 m 486 95 q 494 84 490 84 l 496 84 l 494 98 l 491 98 l 488 95 l 486 95 m 505 73 l 505 68 l 513 76 l 513 79 l 510 79 l 505 73 m 483 71 l 483 68 l 488 68 l 488 71 l 483 71 m 499 60 l 499 52 l 502 52 l 502 60 l 499 60 z "},"4":{"ha":671,"x_min":0,"x_max":689,"o":"m 548 974 l 556 963 l 556 600 l 553 583 l 556 570 l 556 515 l 575 515 q 624 491 600 515 l 624 488 q 583 469 624 483 q 575 464 583 464 l 567 467 l 567 448 l 556 415 l 556 350 l 548 342 l 543 363 l 540 363 l 534 358 l 540 350 q 529 334 534 334 l 496 334 l 477 320 l 453 323 l 439 312 l 439 307 l 450 298 l 496 309 l 510 307 q 529 323 510 323 l 553 323 l 551 309 l 553 312 l 575 312 l 591 309 l 605 315 l 608 312 l 608 309 l 591 293 l 594 290 l 594 279 l 586 269 l 586 266 q 597 260 597 266 l 578 241 l 556 241 l 556 228 q 496 201 539 214 l 494 201 l 469 206 q 434 184 469 195 l 410 187 q 382 174 401 187 l 380 174 q 374 190 374 174 q 363 198 363 190 l 366 198 l 385 193 q 401 217 401 199 l 401 220 l 388 233 q 404 244 388 238 q 412 260 404 260 l 420 258 l 434 293 l 420 307 q 410 331 410 307 l 407 334 l 401 334 l 396 323 l 404 312 l 401 309 l 401 307 l 399 309 l 391 309 q 323 277 391 281 l 315 269 l 315 260 l 320 255 q 361 271 339 255 l 363 271 l 385 263 l 385 258 l 380 258 l 377 260 l 374 260 l 372 258 l 380 244 l 380 241 q 363 233 380 236 l 363 241 l 277 241 l 277 247 q 304 271 304 255 q 247 288 304 288 q 217 304 235 288 l 212 304 l 212 296 l 217 288 q 209 282 217 282 l 190 288 l 163 277 l 136 285 q 127 274 136 274 l 122 274 l 84 277 q 68 258 68 273 l 76 252 q 179 271 134 271 q 206 260 191 271 l 209 260 l 209 269 l 225 269 q 236 252 230 269 l 239 255 l 252 255 l 266 244 l 266 241 l 212 241 l 198 250 l 184 241 l 22 241 q 0 252 7 241 l 0 326 q 62 426 0 353 l 65 439 q 22 480 65 475 l 16 488 l 16 491 q 79 515 42 515 l 81 515 q 122 502 94 515 q 483 971 466 957 l 529 971 l 548 974 m 358 692 q 109 366 116 366 q 95 342 101 366 l 90 336 l 90 334 l 182 334 l 190 328 l 198 334 l 244 334 q 250 323 250 334 l 255 323 q 263 334 256 334 l 363 334 l 363 415 q 320 477 363 460 q 298 486 298 480 l 298 491 q 361 515 317 515 l 363 515 l 363 692 l 358 692 m 236 646 l 236 643 l 239 635 l 241 635 l 241 643 l 239 646 l 236 646 m 434 442 l 442 439 l 453 448 l 453 450 l 450 450 q 434 442 434 449 m 477 388 l 477 385 l 491 382 l 505 382 l 513 391 l 507 401 q 491 388 491 401 l 477 388 m 518 401 l 518 399 l 521 391 l 524 391 l 524 399 l 521 401 l 518 401 m 515 372 l 518 372 l 524 377 l 524 382 q 515 372 519 382 m 423 361 l 426 358 l 429 358 l 434 366 l 434 374 l 431 374 q 423 361 427 374 m 467 374 l 467 369 l 475 353 l 480 353 q 469 374 480 368 l 467 374 m 442 366 l 442 361 q 453 355 453 361 l 448 350 q 469 336 454 336 l 477 336 l 480 345 l 456 358 l 458 366 l 456 366 l 453 369 l 450 369 l 442 366 m 646 334 l 656 334 l 654 320 q 667 312 667 318 q 637 307 656 307 q 618 317 618 311 l 646 334 m 662 334 l 670 334 l 670 331 l 665 326 l 662 328 l 662 334 m 193 320 l 193 317 l 198 312 l 209 320 l 206 323 l 206 326 l 193 320 m 30 317 l 24 309 l 24 304 l 41 298 l 52 304 q 30 317 52 311 m 315 298 l 315 293 l 323 285 l 326 285 l 323 298 l 315 298 m 510 293 q 499 271 499 281 q 507 266 499 266 l 526 269 l 526 285 q 510 293 524 293 m 684 293 l 689 288 l 689 279 l 678 263 l 681 252 l 635 266 l 632 269 l 632 277 q 640 282 632 282 l 673 277 l 681 279 l 681 282 l 675 290 l 678 293 l 684 293 m 543 277 q 532 266 543 266 q 540 252 535 252 q 559 263 555 252 l 559 269 q 543 277 556 277 m 439 255 l 439 247 l 448 225 l 442 206 l 445 206 l 448 203 q 464 214 464 207 l 458 231 l 467 239 q 448 258 454 258 l 439 255 m 524 247 l 521 244 l 521 241 l 526 236 l 545 236 l 545 241 l 524 247 m 412 222 l 412 220 l 415 212 l 423 212 l 423 214 l 420 222 l 412 222 m 543 155 l 551 155 q 564 100 556 155 l 581 81 l 581 79 l 564 84 l 545 68 q 412 49 517 57 q 401 73 408 73 l 399 73 l 366 62 l 363 65 l 363 73 l 374 87 l 374 103 l 366 103 l 358 95 l 358 87 l 361 84 l 361 81 l 353 76 l 350 76 l 342 84 q 363 127 355 97 q 396 149 370 127 l 401 149 q 415 117 412 149 l 418 117 q 423 133 423 117 l 434 141 l 453 141 l 472 144 l 475 141 l 475 138 l 472 125 l 515 125 q 502 149 502 139 l 510 152 l 529 146 l 543 155 m 434 117 l 439 111 l 445 111 l 450 117 l 450 119 l 445 125 l 442 125 l 434 117 m 551 119 l 551 111 l 553 111 l 553 119 l 551 119 m 510 81 q 524 68 515 68 q 537 79 536 73 l 537 81 q 526 100 537 96 l 521 100 q 510 81 510 96 m 336 79 l 336 76 l 339 38 q 274 27 329 31 l 274 22 q 282 3 274 13 l 282 0 l 252 0 q 231 22 231 0 l 231 49 q 250 73 231 73 l 266 68 l 269 68 q 336 79 275 75 m 298 71 l 298 65 l 304 60 l 309 60 l 309 65 l 298 71 m 662 60 l 667 60 l 667 14 l 656 0 l 651 0 l 640 8 l 635 8 l 624 0 l 602 0 l 597 5 l 600 16 l 586 24 q 548 0 571 21 q 540 19 542 0 l 556 30 l 556 33 l 553 46 q 600 52 568 52 l 602 49 l 602 46 l 591 35 l 597 35 l 608 43 l 610 43 l 627 38 l 627 35 q 662 60 662 35 m 515 46 l 518 46 l 529 35 l 529 33 q 499 22 529 26 q 477 0 493 0 l 442 0 l 437 5 q 445 11 437 11 l 445 14 q 437 33 445 22 q 445 38 437 38 l 483 35 q 515 46 501 46 m 244 41 l 239 27 q 247 16 243 16 l 252 16 l 260 24 q 244 41 260 41 m 423 35 l 426 33 l 426 30 q 412 0 418 0 l 298 0 l 298 3 q 323 16 298 11 l 326 16 l 391 8 q 423 35 402 35 m 618 16 l 618 14 l 624 14 l 624 16 l 618 16 m 453 8 l 453 3 l 456 3 l 456 8 l 453 8 z "},"5":{"ha":635,"x_min":0,"x_max":662,"o":"m 52 990 q 336 960 213 960 q 572 990 457 960 l 578 990 q 589 971 589 986 q 480 808 589 897 q 320 768 410 768 q 98 787 257 768 l 98 597 l 100 597 q 288 654 201 654 l 320 654 q 572 526 478 654 q 608 534 586 534 q 662 507 643 534 q 629 494 662 500 q 605 467 605 474 q 627 339 627 407 l 627 323 q 618 309 627 309 l 618 307 l 624 298 l 624 288 l 616 288 l 605 298 l 591 293 q 559 369 572 369 l 543 369 q 510 323 536 368 q 483 315 496 315 l 475 315 q 448 350 454 349 l 431 345 q 407 363 407 351 q 385 445 407 431 q 301 480 359 471 l 298 483 l 298 486 q 361 515 309 515 q 236 581 313 581 q 92 499 180 572 q 60 480 80 480 q 22 510 22 485 l 22 960 q 52 990 26 990 m 431 486 l 431 483 q 442 475 431 475 l 445 472 l 448 475 q 437 491 441 491 l 431 486 m 502 448 l 502 445 l 507 445 l 507 448 l 502 448 m 472 418 l 472 412 l 477 407 l 483 407 l 472 418 m 515 418 l 515 412 l 521 418 l 515 418 m 475 328 l 477 320 l 480 320 q 494 336 490 326 l 486 342 l 475 328 m 5 312 q 27 298 5 306 q 35 309 28 309 l 49 309 l 52 301 q 3 266 39 266 l 0 269 l 0 274 q 8 279 0 279 l 8 285 l 0 296 l 0 307 l 5 312 m 513 312 l 526 312 l 540 301 l 526 288 l 540 279 l 556 290 q 578 279 568 279 q 594 288 581 288 l 600 288 l 621 271 q 605 222 611 222 l 602 222 q 586 239 602 230 q 553 209 581 239 q 494 187 494 194 l 494 184 q 505 176 494 180 l 556 195 l 591 187 q 467 46 569 116 q 304 3 376 3 l 304 5 q 263 24 284 24 q 247 3 252 3 q 174 30 189 3 l 165 22 q 127 43 127 39 l 127 46 q 149 60 127 53 l 149 57 q 176 38 161 38 l 179 38 q 209 68 179 68 l 225 62 l 233 71 l 233 73 l 231 87 q 252 81 252 85 l 250 73 l 252 73 q 271 84 264 73 l 307 95 l 312 90 q 317 103 317 90 q 391 206 365 127 q 396 217 391 217 q 412 209 399 209 l 418 214 l 418 220 l 410 228 l 404 228 l 396 222 l 396 225 l 407 309 l 410 309 q 437 296 427 296 l 442 296 l 513 312 m 65 255 q 95 217 78 255 l 87 206 q 109 195 109 202 l 109 193 l 103 193 q 73 214 73 193 l 81 231 q 60 244 81 237 l 57 247 l 57 250 l 65 255 m 418 250 l 415 236 l 418 233 l 423 233 l 431 241 l 429 250 l 418 250 m 35 250 l 46 250 l 52 244 l 49 241 l 60 225 l 60 222 q 35 214 60 218 q 3 176 28 176 l 0 179 l 0 236 q 30 244 0 241 l 35 250 m 445 228 l 445 222 l 450 228 l 450 233 l 445 228 m 434 220 l 434 217 l 439 217 l 439 220 l 434 220 m 450 190 l 450 182 q 469 171 455 171 l 475 179 l 475 193 l 467 201 q 450 190 450 195 m 391 176 l 391 168 l 393 165 l 396 165 l 396 168 l 393 176 l 391 176 m 71 171 q 98 155 80 155 q 114 171 114 160 l 119 171 q 133 163 119 164 q 182 114 164 123 q 146 73 182 84 l 125 68 l 122 71 l 122 81 l 136 79 q 149 87 149 81 l 149 90 q 133 98 146 98 l 125 98 q 119 84 125 84 l 103 90 l 98 90 q 62 33 83 81 q 41 0 41 24 l 38 0 q 24 24 30 0 l 41 27 l 41 30 l 33 49 l 30 49 l 27 38 l 19 38 q 3 46 5 38 l 11 49 l 11 52 q 0 57 0 52 q 16 65 3 65 l 30 65 q 38 54 38 65 l 41 54 l 57 60 l 46 87 l 46 90 l 76 90 l 84 100 q 60 122 77 100 l 60 130 l 68 138 q 90 125 79 125 l 92 125 l 98 130 q 84 152 94 152 l 76 141 l 73 141 l 65 160 l 65 165 l 71 171 m 24 165 q 46 136 46 149 l 54 114 l 46 111 q 19 146 39 111 l 22 149 l 19 152 l 19 160 l 24 165 m 496 155 l 494 152 l 494 149 l 496 141 l 505 141 l 505 146 l 496 155 m 133 141 l 125 122 l 127 122 l 136 119 q 152 130 152 125 l 133 141 m 448 122 l 448 117 l 456 109 l 458 111 l 458 114 l 456 122 l 448 122 m 407 119 l 407 111 l 412 106 l 415 106 l 415 114 l 410 119 l 407 119 m 100 106 l 100 95 l 103 95 l 103 106 l 100 106 m 206 95 l 212 95 l 212 90 l 206 90 l 206 95 m 250 65 l 247 57 l 250 57 l 255 62 l 255 65 l 250 65 m 250 46 l 250 38 l 255 33 l 258 33 l 258 41 l 252 46 l 250 46 m 317 22 l 317 16 l 339 16 l 345 22 l 345 27 q 334 43 345 41 q 317 22 317 38 z "},"6":{"ha":772,"x_min":0,"x_max":2629,"o":"m 686 1010 l 716 1010 l 722 1005 l 724 777 l 724 758 q 713 720 724 720 l 689 720 q 643 774 672 720 q 456 932 544 932 l 442 932 q 279 587 304 932 l 277 530 q 469 639 364 639 l 494 639 q 689 538 606 639 q 735 555 703 555 q 792 528 774 555 q 765 517 792 519 q 727 463 727 490 q 743 365 743 405 l 743 335 q 564 50 743 157 q 513 34 524 34 l 521 23 q 513 9 515 23 l 515 7 l 518 7 l 526 12 l 534 12 l 556 7 l 564 20 q 578 12 578 16 l 581 15 l 583 15 l 586 12 l 589 12 l 586 9 l 586 -20 l 591 -20 q 608 1 608 -9 q 643 -7 621 -7 q 648 1 643 1 q 673 -7 664 0 l 675 -4 l 678 -4 l 784 -20 l 789 -28 l 789 -31 l 781 -39 l 765 -23 l 757 -23 l 751 -28 l 765 -64 l 768 -64 q 787 -50 779 -50 q 803 -61 792 -61 l 822 -53 l 825 -53 q 868 -66 868 -55 l 863 -80 l 865 -80 l 871 -85 l 868 -88 l 879 -99 l 879 -113 l 873 -118 l 841 -118 l 836 -113 l 833 -115 l 827 -115 q 779 -91 779 -98 l 779 -77 l 770 -75 l 743 -80 l 732 -77 q 719 -88 732 -88 l 716 -88 l 700 -72 l 711 -64 l 713 -61 l 713 -56 l 703 -56 l 694 -66 q 648 -50 667 -66 l 648 -47 l 656 -37 l 656 -31 q 635 -20 648 -31 l 627 -20 q 610 -28 610 -22 l 613 -42 l 608 -42 l 602 -37 l 605 -28 l 602 -28 l 586 -34 q 564 -4 583 -19 q 572 1 572 -4 l 570 4 l 562 1 l 564 -1 l 564 -4 l 562 -4 l 540 4 l 543 1 l 543 -1 l 540 -4 l 537 -4 l 524 -1 l 524 -7 l 521 -9 l 524 -12 l 529 -12 l 529 -18 l 524 -26 l 524 -37 q 534 -45 524 -45 l 534 -50 q 477 -15 506 -43 q 450 -26 450 -22 l 448 -37 l 410 -18 l 407 -20 l 404 -20 q 377 1 382 -14 l 374 -1 l 366 -1 q 334 15 357 -1 q 122 199 194 70 q 62 479 62 323 q 3 519 45 519 l 0 522 l 0 530 q 57 555 18 555 l 71 552 q 138 793 71 637 q 453 1008 252 1008 l 458 1008 q 621 956 522 1008 q 686 1010 672 1010 m 285 335 q 358 107 285 167 q 401 96 382 96 q 515 227 487 96 q 524 289 524 251 l 524 321 q 453 525 524 481 q 410 536 433 536 l 404 536 q 285 335 285 536 m 467 20 l 456 23 l 429 20 q 437 4 432 4 l 439 4 q 450 15 450 8 l 456 15 q 469 -1 469 7 l 483 1 q 513 -26 483 -4 l 518 -20 q 494 26 500 2 l 483 26 l 467 20 m 382 12 l 382 7 l 388 7 l 388 12 l 382 12 m 429 -12 q 437 -23 433 -23 l 439 -15 l 437 -1 l 434 -4 l 431 -12 l 429 -12 m 654 -20 l 659 -20 l 659 -15 l 654 -20 m 662 -34 l 662 -39 l 665 -39 q 681 -31 679 -39 l 681 -20 q 662 -34 663 -27 m 803 -20 l 808 -20 l 808 -26 l 803 -26 l 803 -20 m 684 -31 q 694 -47 687 -47 l 711 -45 l 724 -64 l 727 -61 l 741 -61 q 746 -69 746 -61 l 751 -69 l 757 -64 l 749 -56 l 741 -58 l 732 -47 l 732 -39 l 735 -37 l 735 -34 l 727 -28 l 719 -34 l 716 -34 q 711 -26 711 -34 l 684 -31 m 814 -23 l 819 -23 q 852 -28 852 -24 l 849 -37 l 854 -42 l 849 -47 q 814 -23 814 -47 m 871 -26 q 882 -42 882 -30 l 925 -39 l 947 -53 l 958 -42 l 958 -37 l 949 -37 l 949 -31 l 966 -31 l 968 -45 l 974 -45 q 979 -34 979 -45 l 982 -31 l 985 -31 q 1039 -37 1039 -33 l 1034 -47 l 1039 -47 q 1044 -37 1044 -47 l 1047 -34 l 1096 -34 l 1326 -31 l 1332 -37 q 1337 -28 1332 -28 l 1389 -28 l 1392 -31 q 1462 -26 1408 -26 l 1628 -26 q 1652 -34 1642 -26 q 1660 -28 1652 -28 q 2154 -115 1892 -28 l 2167 -113 q 2485 -297 2372 -205 q 2629 -557 2629 -422 l 2629 -571 q 2574 -696 2615 -696 l 2569 -690 q 2599 -579 2599 -637 l 2599 -566 q 2306 -218 2599 -385 q 1682 -72 2001 -72 l 1641 -72 q 1362 -94 1532 -72 l 1359 -91 l 1359 -85 l 1367 -85 l 1362 -80 l 1359 -80 l 1359 -85 l 1351 -80 l 1348 -80 l 1345 -96 l 1166 -115 q 1156 -107 1156 -114 l 1150 -113 l 1118 -88 l 1112 -88 q 1088 -104 1088 -88 l 1096 -113 l 1096 -115 l 1090 -121 l 1058 -121 l 1047 -118 q 985 -123 1034 -123 l 963 -123 q 955 -113 959 -123 l 941 -121 l 939 -121 q 922 -94 930 -121 l 930 -85 l 928 -83 l 928 -80 l 925 -83 l 920 -83 q 887 -69 909 -69 q 868 -50 887 -50 l 863 -28 l 865 -26 l 871 -26 m 1348 -39 l 1348 -45 l 1359 -50 l 1362 -47 l 1362 -42 l 1356 -37 l 1348 -39 m 1251 -53 l 1259 -53 l 1264 -47 l 1264 -42 l 1261 -42 l 1251 -53 m 1392 -47 l 1392 -50 l 1397 -45 l 1397 -42 l 1392 -47 m 982 -50 l 982 -58 l 985 -58 l 990 -53 l 990 -45 l 987 -45 l 982 -50 m 1500 -50 l 1506 -56 l 1508 -56 l 1514 -50 l 1508 -45 l 1506 -45 l 1500 -50 m 1660 -45 l 1660 -47 l 1666 -53 l 1668 -53 l 1668 -47 l 1660 -45 m 670 -47 l 670 -53 l 673 -53 l 673 -47 l 670 -47 m 681 -50 l 681 -56 l 684 -56 l 684 -50 l 681 -50 m 1218 -50 l 1218 -64 l 1223 -69 l 1226 -69 l 1226 -56 l 1221 -50 l 1218 -50 m 586 -50 q 605 -61 605 -56 l 602 -61 l 618 -77 l 618 -80 l 608 -80 l 597 -72 l 583 -75 q 562 -64 583 -67 l 559 -61 l 559 -58 l 564 -53 l 567 -53 l 581 -56 l 586 -50 m 1381 -53 l 1381 -58 l 1383 -58 l 1383 -53 l 1381 -53 m 890 -56 l 890 -61 l 895 -61 l 895 -56 l 890 -56 m 1267 -56 l 1272 -61 l 1278 -61 l 1278 -56 l 1267 -56 m 928 -58 l 928 -61 l 933 -61 l 933 -58 l 928 -58 m 827 -80 l 830 -80 q 849 -69 845 -80 l 846 -61 l 838 -61 q 827 -80 827 -65 m 1337 -66 l 1343 -72 l 1348 -72 l 1343 -66 l 1337 -66 m 1188 -72 l 1188 -75 l 1196 -83 l 1202 -77 l 1202 -69 l 1188 -72 m 1058 -80 l 1058 -83 l 1061 -85 l 1061 -88 q 1042 -99 1042 -93 l 1042 -104 l 1063 -104 q 1072 -94 1072 -104 l 1066 -77 l 1058 -80 m 1251 -83 l 1251 -91 l 1256 -85 l 1256 -83 l 1251 -83 m 844 -91 l 844 -102 l 849 -102 l 854 -96 l 854 -91 l 849 -85 l 844 -91 m 1009 -99 q 1025 -107 1012 -107 l 1031 -107 l 1036 -102 l 1036 -99 q 1020 -91 1034 -91 l 1009 -99 m 977 -99 q 985 -113 980 -113 l 987 -113 q 993 -104 993 -113 q 985 -94 989 -94 l 977 -99 m 1237 -99 l 1240 -99 l 1245 -94 l 1242 -94 l 1237 -99 m 697 -94 l 700 -94 l 724 -99 l 724 -104 q 697 -96 697 -102 l 697 -94 m 735 -102 l 743 -102 l 743 -107 l 735 -107 l 735 -102 z "},"7":{"ha":696,"x_min":0,"x_max":716,"o":"m 138 982 q 160 941 144 980 q 187 930 175 930 q 298 974 227 939 l 328 974 l 331 971 l 334 971 l 331 968 l 331 963 l 336 963 q 345 974 338 974 l 461 974 l 534 977 l 526 955 l 529 955 q 594 977 562 977 l 694 977 q 716 968 715 977 l 716 958 q 643 768 716 916 q 551 534 584 635 q 608 510 595 534 l 608 505 q 570 491 608 501 q 515 393 515 455 q 494 130 503 345 q 366 0 465 0 q 250 119 264 0 l 250 136 q 369 448 250 240 l 369 461 q 326 502 369 494 l 320 507 q 382 534 342 534 l 388 534 l 418 526 l 418 529 l 570 768 l 372 768 l 372 770 l 382 789 l 380 798 l 366 798 l 331 768 l 195 768 q 57 559 121 559 l 52 559 q 0 602 0 567 q 35 643 6 643 l 43 643 q 76 979 68 934 l 79 982 l 138 982 m 507 947 l 507 936 q 521 925 509 930 l 521 947 l 507 947 m 526 860 l 529 857 l 532 857 l 548 876 l 551 873 q 567 887 562 878 l 567 892 l 562 898 q 526 860 539 890 z "},"8":{"ha":681,"x_min":0,"x_max":700,"o":"m 363 990 l 374 990 q 486 971 441 990 l 480 958 l 491 952 q 505 966 498 952 q 532 944 532 956 l 540 949 q 643 779 643 882 l 643 770 q 613 684 637 684 q 575 629 613 652 q 486 583 543 600 l 486 581 q 594 518 533 563 l 597 518 q 646 534 618 534 q 700 510 677 534 l 700 505 q 665 491 700 500 q 643 464 648 477 q 678 320 678 405 l 678 315 q 464 22 678 110 q 328 0 405 0 q 11 174 75 0 q 0 252 0 204 q 136 437 0 388 l 138 437 l 138 442 q 46 488 107 488 l 46 494 q 98 526 64 526 q 60 605 67 572 l 98 632 l 111 632 q 146 600 132 632 l 157 597 l 163 597 q 198 632 183 597 l 255 651 l 255 656 l 252 675 l 255 675 q 423 608 355 617 q 488 760 488 671 q 345 914 488 914 q 203 776 203 899 q 217 716 203 759 l 201 727 q 176 708 176 726 q 149 697 149 707 q 106 662 149 662 q 68 654 87 654 l 62 659 l 57 654 l 49 654 l 49 711 q 214 960 49 876 q 363 990 276 990 m 575 776 l 572 762 l 578 757 l 581 757 l 581 762 l 583 762 l 581 776 l 575 776 m 510 757 l 507 743 l 521 738 l 529 741 l 529 749 l 521 757 l 510 757 m 290 627 l 293 627 l 312 629 l 312 635 l 298 635 l 290 627 m 171 551 l 160 534 l 163 532 l 168 532 q 176 548 174 532 l 174 551 l 171 551 m 524 513 l 524 507 l 529 513 l 524 513 m 247 423 q 157 255 157 344 l 157 231 q 336 76 157 76 q 513 176 464 76 l 524 233 q 342 396 524 354 l 247 423 z "},"9":{"ha":722,"x_min":0,"x_max":751,"o":"m 334 990 l 345 990 q 673 703 597 990 q 692 540 692 637 l 692 534 q 751 507 732 534 q 708 488 751 503 q 678 412 689 475 q 616 206 674 338 q 296 0 503 0 q 127 54 243 0 q 62 0 79 0 l 41 0 l 24 5 l 22 92 l 22 282 l 30 290 l 65 290 q 187 127 140 178 q 301 79 248 79 q 453 250 396 79 q 477 477 477 357 l 477 483 l 475 483 q 290 377 407 377 l 266 377 q 87 461 162 377 q 0 502 40 502 l 0 513 q 38 540 6 526 q 16 640 16 591 l 16 681 q 182 955 16 850 q 334 990 254 990 m 336 958 l 336 949 l 339 949 l 339 958 l 336 958 m 236 694 l 236 656 q 307 488 236 541 q 317 472 307 472 l 326 483 l 339 480 l 361 480 q 464 597 440 480 q 472 692 472 641 l 472 694 q 461 808 472 758 q 477 822 473 812 l 477 830 q 464 841 472 841 l 450 838 q 361 914 423 914 l 355 914 q 239 741 266 914 l 236 694 m 532 871 q 559 857 532 864 l 572 884 q 551 895 561 895 q 532 871 532 887 m 165 787 l 168 784 l 182 784 q 209 808 209 788 q 190 825 205 825 l 182 825 q 165 787 174 825 m 605 817 q 624 800 609 800 l 627 803 l 627 806 q 618 822 627 820 l 610 822 l 605 817 m 594 743 l 591 730 l 591 727 l 597 727 l 602 738 l 602 743 l 594 743 m 575 667 l 575 665 q 583 654 579 654 l 586 654 l 583 667 l 575 667 m 100 654 l 100 646 l 114 643 l 117 643 l 117 654 l 111 659 l 106 659 l 100 654 m 73 589 l 79 583 l 87 591 l 87 602 l 84 602 l 73 589 m 548 548 l 551 545 l 559 545 q 575 553 573 545 l 575 564 l 564 575 l 562 575 q 548 548 548 569 m 144 488 l 141 477 l 146 477 l 149 488 l 144 488 z "}," ":{"ha":386,"x_min":0,"x_max":0,"o":""},"!":{"ha":345,"x_min":0,"x_max":404,"o":"m 190 1036 l 241 1004 q 312 1028 272 1026 q 372 1009 350 1028 l 372 1004 q 326 990 372 996 q 296 930 296 977 l 255 545 q 309 521 292 545 l 309 518 q 269 496 309 514 q 239 382 239 464 l 236 358 l 231 334 l 228 334 l 225 336 l 222 334 l 222 331 q 231 315 224 315 q 212 269 231 269 l 206 269 l 206 266 l 203 269 l 155 269 q 133 391 139 269 q 98 502 124 502 q 60 515 98 506 l 60 524 q 114 551 60 536 q 65 977 73 977 q 3 998 52 991 l 0 1001 l 0 1009 q 57 1028 0 1020 q 127 1004 97 1028 l 130 1004 q 190 1036 180 1036 m 165 407 l 165 401 q 174 396 165 396 q 187 407 186 401 l 187 410 l 182 415 q 165 407 165 414 m 228 266 l 233 258 l 233 255 l 222 252 l 220 255 l 220 258 l 228 266 m 98 263 l 106 255 l 103 252 l 100 252 l 98 255 l 98 263 m 201 263 l 206 263 l 206 252 l 203 252 l 201 263 m 201 247 l 206 247 q 214 228 206 234 l 214 217 l 217 220 l 220 220 q 236 201 220 201 l 236 195 l 244 201 l 247 201 l 247 190 l 252 190 l 274 214 l 277 214 l 277 212 l 260 184 l 263 182 l 266 182 l 279 184 l 279 182 l 277 171 q 320 149 277 164 l 331 122 l 320 100 l 328 100 l 342 103 q 355 84 342 96 l 353 84 l 309 98 l 304 92 q 298 100 298 92 l 296 103 l 293 103 q 282 68 289 70 l 285 65 l 285 46 q 277 24 285 26 l 271 24 q 263 35 264 24 l 241 24 l 250 8 q 217 -29 217 -13 q 225 -35 225 -29 l 225 -37 l 214 -45 l 212 -43 l 212 -40 l 214 -40 q 206 -32 214 -32 l 206 -24 q 214 -18 206 -18 l 214 -16 l 203 -10 l 206 -7 l 206 0 l 203 -2 l 198 -2 l 195 0 l 193 0 l 174 -13 l 171 -13 l 171 -7 l 176 -7 q 146 27 176 3 l 130 24 q 81 81 81 56 l 73 81 l 71 79 l 68 79 l 65 81 l 68 84 l 68 87 l 65 90 l 65 92 l 68 92 l 76 90 l 73 92 l 76 95 l 76 106 q 157 206 76 180 l 195 209 l 201 209 l 203 220 l 201 236 l 201 247 m 228 236 l 231 233 q 222 222 227 222 l 220 222 l 220 228 l 228 236 m 241 236 l 247 236 l 247 233 l 241 233 l 241 236 m 136 228 l 138 228 l 138 222 l 136 222 l 136 228 m 184 228 l 190 228 l 190 225 l 184 225 l 184 228 m 106 190 l 109 190 l 109 184 l 106 184 l 106 190 m 282 155 q 304 114 294 123 l 320 111 l 323 114 l 323 119 l 320 122 l 323 125 l 323 127 q 288 155 323 149 l 285 157 l 282 155 m 301 111 l 312 103 l 312 109 l 301 111 m 361 106 l 380 100 l 380 95 l 361 100 l 361 106 m 138 79 l 138 73 l 136 71 l 141 65 l 144 65 l 146 68 l 146 73 l 141 79 l 138 79 m 52 79 l 60 79 l 60 76 l 52 76 l 52 79 m 274 14 l 282 14 l 282 8 l 274 8 l 274 14 m 130 11 l 136 11 l 138 8 l 141 11 l 146 11 q 155 -2 153 11 l 152 -2 l 155 -5 l 155 -7 q 144 -13 155 -13 l 138 -24 l 146 -37 l 136 -37 l 133 -35 l 130 -35 q 114 -43 127 -43 l 106 -32 l 106 -21 q 130 11 106 -2 m 388 -24 l 391 -24 l 391 -29 l 388 -29 l 388 -24 m 401 -29 l 404 -32 l 404 -35 l 401 -37 l 399 -37 l 396 -35 l 396 -32 l 399 -29 l 401 -29 m 152 -35 q 157 -43 157 -35 l 160 -40 l 163 -40 l 179 -45 l 179 -54 l 174 -59 l 160 -56 l 160 -59 l 163 -67 q 152 -89 156 -89 l 141 -89 q 152 -73 141 -73 l 152 -67 l 144 -56 l 144 -48 q 152 -35 152 -48 m 388 -35 l 393 -35 l 393 -37 l 388 -37 l 388 -35 m 130 -45 l 133 -45 l 133 -51 l 130 -51 l 130 -45 m 282 -54 l 288 -54 l 288 -62 l 282 -62 l 282 -54 m 279 -67 l 285 -67 l 285 -73 l 279 -73 l 279 -67 m 277 -78 l 282 -78 l 282 -81 l 279 -94 l 274 -94 l 277 -78 m 144 -94 l 163 -97 q 146 -105 160 -105 l 144 -102 l 144 -94 m 138 -108 l 144 -108 l 144 -113 l 138 -113 l 138 -108 m 157 -108 l 163 -108 l 155 -116 l 152 -116 l 152 -113 l 157 -108 z "},"\"":{"ha":569,"x_min":0,"x_max":556,"o":"m 117 949 q 236 851 201 949 l 244 762 q 239 743 242 743 l 241 729 l 244 732 l 247 732 l 250 729 l 250 726 l 241 718 l 239 688 l 244 683 l 239 677 l 239 653 q 250 577 243 577 q 236 534 239 577 l 239 517 l 231 512 l 225 512 q 217 528 217 515 q 228 550 228 538 l 231 550 l 228 553 l 228 558 l 231 558 l 228 585 l 228 623 q 214 677 228 652 l 220 694 l 217 705 l 214 705 q 176 645 214 699 q 171 629 176 629 l 168 629 l 168 634 l 165 634 l 163 626 l 165 618 q 160 602 163 602 l 163 593 l 155 539 l 168 523 l 174 528 l 176 526 l 176 512 q 160 493 165 493 l 157 493 q 144 526 150 493 l 146 550 l 141 569 l 144 585 l 141 593 q 146 602 146 593 l 144 610 l 141 610 l 106 580 l 111 566 l 103 520 l 98 520 l 100 536 l 98 572 q 41 539 54 539 l 33 539 q 5 583 5 564 q 100 672 79 629 q 109 680 109 672 l 98 680 l 98 732 l 81 732 q 3 821 22 732 l 0 835 q 117 949 0 935 m 431 949 q 553 846 519 949 l 556 816 l 556 789 q 369 542 556 670 q 353 528 355 542 l 350 528 l 323 572 l 320 583 q 437 732 437 653 l 396 732 q 320 813 343 732 l 317 835 l 317 854 l 309 865 l 309 867 l 315 873 l 317 870 l 320 870 l 320 873 l 315 881 q 334 900 330 881 q 431 949 372 949 m 244 897 l 244 892 l 239 892 l 244 897 m 263 897 l 269 897 l 269 889 l 263 895 l 263 897 m 290 892 l 293 889 l 293 886 q 282 876 285 884 q 266 886 266 881 l 269 886 l 271 884 l 274 884 l 290 892 m 298 886 l 307 886 l 307 881 l 298 881 l 298 886 m 244 846 l 250 846 l 250 840 l 244 840 l 244 846 m 307 816 l 309 813 l 309 810 l 307 808 l 304 808 l 301 810 l 301 813 l 304 816 l 307 816 m 309 737 l 315 737 l 315 734 l 309 734 l 309 737 m 109 707 l 109 702 l 119 707 l 119 713 l 114 713 l 109 707 m 258 623 l 263 623 l 263 621 l 258 621 l 258 623 m 260 607 l 266 602 l 266 588 l 260 583 l 255 599 l 255 602 l 260 607 m 250 561 l 252 558 l 252 550 l 247 545 l 244 547 l 244 555 l 250 561 m 138 509 l 146 509 l 146 504 l 141 498 l 138 501 l 138 509 m 98 471 l 103 471 l 103 452 l 98 452 l 98 471 m 312 466 l 317 460 l 315 452 l 320 447 l 320 444 l 309 441 l 301 444 l 298 441 q 290 452 297 452 l 290 455 l 296 460 l 307 458 q 312 466 307 466 m 138 455 l 144 455 l 144 452 l 138 452 l 138 455 z "},"#":{"ha":711,"x_min":0,"x_max":727,"o":"m 301 987 q 377 974 377 987 l 377 960 l 345 762 l 480 762 q 524 982 514 982 l 537 985 l 624 985 l 635 974 l 635 971 l 602 765 l 605 765 l 697 768 q 727 746 727 760 q 684 659 722 659 l 586 659 q 553 488 579 659 l 526 347 l 529 345 l 543 347 l 586 347 q 654 336 644 347 q 624 244 646 244 l 608 241 l 575 241 l 575 239 l 578 236 l 578 233 l 575 225 l 570 225 q 564 233 570 233 l 567 206 l 567 201 l 559 201 l 559 217 l 556 231 l 548 231 l 551 217 l 551 209 l 545 209 l 543 222 l 540 222 l 540 198 q 534 190 534 198 l 532 193 l 529 193 l 534 225 l 534 231 l 532 231 l 524 190 l 518 190 l 518 195 l 515 195 l 515 184 l 521 184 l 521 179 l 518 179 l 515 182 l 513 182 q 499 141 499 158 l 499 127 l 505 122 l 513 127 l 513 109 l 510 98 l 513 81 l 515 81 q 521 98 515 98 l 521 92 l 510 30 l 513 27 l 507 -41 l 510 -43 l 510 -46 l 507 -49 l 510 -62 l 510 -68 l 507 -71 l 510 -73 l 510 -76 l 507 -79 l 510 -81 l 510 -84 l 505 -92 l 507 -95 l 505 -98 l 496 -98 l 488 -90 l 488 -87 l 496 -92 l 499 -92 l 499 -90 l 488 -76 l 486 -76 l 486 -84 l 483 -81 l 480 -81 l 477 -103 l 480 -106 l 480 -109 l 475 -125 l 477 -127 q 469 -163 469 -127 l 469 -187 l 467 -187 l 461 -182 l 464 -174 l 461 -160 l 464 -144 l 461 -141 l 461 -138 l 464 -127 l 461 -127 l 464 -119 l 461 -98 l 458 -98 l 456 -114 l 458 -117 l 458 -125 l 453 -125 l 453 -119 l 439 -133 l 431 -84 l 429 -84 q 423 -100 429 -100 l 423 -95 l 420 -95 l 420 -98 l 423 -109 l 423 -111 q 418 -122 418 -111 l 412 -122 l 415 -111 l 412 -103 l 415 -100 l 412 -98 l 410 -98 l 412 -90 l 407 -52 l 404 -52 l 399 -92 l 399 -119 l 393 -119 l 393 -60 l 388 -54 l 382 -60 l 382 -57 q 391 -41 385 -41 l 388 -8 l 388 3 q 347 19 347 3 q 369 152 347 52 l 366 163 q 372 171 372 163 l 374 187 l 377 187 l 374 190 l 374 193 l 380 201 l 374 244 l 372 244 l 372 231 l 366 231 l 366 244 l 347 244 l 347 203 l 350 201 l 350 198 l 345 198 l 345 168 l 342 168 l 336 174 l 339 176 q 320 203 320 176 l 309 214 l 309 217 l 312 220 l 309 222 l 309 231 l 320 244 l 252 244 q 201 5 214 5 l 187 3 l 117 3 q 90 14 101 3 q 130 244 100 102 l 22 244 q 0 255 12 244 q 54 345 14 345 l 144 345 q 203 659 152 345 l 90 659 l 73 673 q 111 768 96 768 l 163 768 l 222 765 q 252 838 230 838 q 290 865 290 846 q 274 879 284 879 l 241 854 l 239 854 q 274 982 256 982 l 301 987 m 301 982 l 301 977 l 307 977 l 307 982 l 301 982 m 331 949 l 339 941 l 358 941 l 358 944 l 334 949 l 331 949 m 228 735 l 231 727 l 233 727 l 247 749 l 255 746 q 269 765 269 749 l 269 768 l 263 768 l 263 770 q 228 735 251 770 m 399 711 l 399 705 q 448 746 419 705 l 439 754 l 431 754 q 412 713 423 747 l 399 711 m 551 732 l 543 719 l 543 716 l 548 711 q 556 730 556 720 l 553 732 l 551 732 m 567 684 l 572 678 q 589 692 584 682 l 589 700 l 586 703 l 586 705 q 567 684 574 702 m 380 678 l 388 678 l 396 697 l 393 700 l 391 700 q 380 678 384 700 m 529 681 l 529 675 l 534 670 l 537 670 l 537 681 l 529 681 m 271 345 l 401 345 q 431 496 409 345 l 461 659 l 331 659 q 301 507 324 659 l 271 345 m 526 640 q 513 610 513 622 l 515 610 l 526 608 q 537 635 532 608 l 526 640 m 496 602 l 496 597 l 505 597 l 507 605 l 505 605 l 496 602 m 326 244 l 328 228 l 331 228 l 331 244 l 326 244 m 551 241 l 551 236 l 556 236 l 556 241 l 551 241 m 317 236 l 317 231 l 320 231 l 320 236 l 317 236 m 521 225 l 524 222 l 524 220 l 521 217 l 518 217 l 521 209 l 524 209 l 526 231 l 521 225 m 369 222 l 374 217 l 374 214 l 369 214 l 369 222 m 572 217 l 578 217 l 578 206 l 572 206 l 572 217 m 545 203 l 551 203 l 551 198 l 545 198 l 545 203 m 575 201 l 581 201 l 581 190 l 575 190 l 575 201 m 548 193 l 553 193 l 548 187 l 548 193 m 564 193 l 570 193 l 570 184 l 564 184 l 564 193 m 578 182 l 583 182 l 583 174 l 578 174 l 578 182 m 307 174 l 312 174 l 312 160 l 309 160 l 307 163 l 304 163 l 301 160 l 298 163 l 298 165 l 301 168 l 304 168 l 307 165 l 307 174 m 320 171 l 326 171 l 328 157 l 323 157 l 320 171 m 347 168 l 350 168 l 350 163 l 347 163 l 347 168 m 567 168 l 572 168 l 572 163 l 567 163 l 567 168 m 315 160 l 315 152 l 309 152 l 309 155 l 315 160 m 510 146 l 515 146 l 515 136 l 524 141 l 526 141 l 526 138 l 515 127 l 510 133 l 510 146 m 502 117 l 502 109 l 505 109 l 505 117 l 502 117 m 483 84 l 483 68 l 486 68 l 486 84 l 483 84 m 480 65 l 480 54 l 483 54 l 486 65 l 480 65 m 399 -38 l 399 -49 l 404 -49 l 401 -38 l 399 -38 m 423 -46 l 423 -52 l 426 -52 l 426 -46 l 423 -46 m 415 -54 l 415 -60 l 418 -60 l 418 -54 l 415 -54 m 423 -54 l 423 -62 l 426 -62 l 426 -54 l 423 -54 m 423 -68 l 423 -76 l 426 -76 l 426 -68 l 423 -68 m 423 -79 l 423 -87 l 426 -87 l 426 -79 l 423 -79 m 442 -87 l 442 -106 l 445 -106 l 445 -87 l 442 -87 m 488 -109 l 491 -109 l 496 -114 l 488 -114 l 488 -109 m 412 -136 l 418 -136 l 418 -141 l 412 -141 l 412 -136 m 467 -222 l 472 -222 l 472 -228 l 469 -231 l 472 -233 l 472 -252 l 469 -252 l 464 -236 l 467 -222 m 467 -258 l 472 -258 l 472 -263 l 467 -263 l 467 -258 m 469 -269 l 475 -269 l 475 -274 l 472 -277 l 475 -279 l 475 -293 l 472 -293 l 467 -282 l 469 -269 m 472 -307 l 477 -307 l 477 -315 l 472 -315 l 472 -307 m 472 -320 l 477 -320 l 477 -328 l 472 -328 l 472 -320 m 475 -334 l 480 -334 l 480 -339 l 475 -339 l 475 -334 m 480 -385 l 486 -385 l 486 -391 l 480 -391 l 480 -385 z "},"$":{"ha":655,"x_min":0,"x_max":692,"o":"m 358 1048 q 366 1021 366 1034 l 363 1018 l 350 1018 l 347 1021 l 345 1021 l 339 1007 l 358 1002 l 366 1004 l 369 1002 l 369 999 l 366 991 l 369 977 l 369 966 l 382 964 l 391 964 l 391 958 q 355 939 382 958 q 320 923 333 939 l 350 923 q 382 947 360 923 l 415 961 l 534 915 q 586 958 541 925 l 621 958 q 629 937 629 957 l 629 842 q 608 831 629 838 l 608 823 l 613 814 l 627 817 l 629 817 l 629 741 q 618 717 629 721 l 602 717 q 551 763 576 717 q 372 888 467 888 l 369 888 l 369 595 q 581 486 506 550 q 624 508 581 498 l 646 508 q 692 478 692 499 q 627 418 627 466 q 651 299 651 370 l 651 291 q 442 9 651 83 q 369 -4 388 -4 l 369 -137 q 342 -178 369 -178 l 309 -178 q 288 -148 288 -178 l 288 -7 q 98 41 229 -7 l 49 -1 l 8 -1 l 0 6 l 0 245 l 8 253 l 46 253 q 119 153 56 247 q 282 71 189 71 l 288 71 l 288 399 q 225 424 225 410 l 217 418 q 5 657 5 491 l 5 692 q 98 885 5 806 q 109 871 103 873 l 117 880 l 114 899 q 288 964 179 946 l 288 1018 q 304 1045 290 1045 l 358 1048 m 214 918 l 217 909 q 260 931 241 909 l 260 937 l 255 942 l 244 942 q 214 918 227 942 m 426 937 l 426 931 l 431 931 l 431 937 l 426 937 m 429 923 l 429 915 l 434 909 l 437 909 l 437 918 l 431 923 l 429 923 m 130 901 l 130 896 l 136 896 l 136 901 l 130 901 m 532 893 q 551 877 536 877 l 553 880 l 553 882 q 545 899 553 897 l 537 899 l 532 893 m 155 736 q 288 622 155 659 l 288 888 q 171 814 203 865 q 155 736 155 780 m 138 820 l 141 812 l 144 812 q 160 820 158 812 l 160 825 l 157 839 l 152 839 q 138 820 147 839 m 233 635 l 231 622 l 236 616 l 239 616 l 239 622 l 241 622 q 233 635 238 635 m 171 616 l 165 608 l 165 606 l 174 597 l 182 597 q 187 606 187 597 q 171 616 184 616 m 274 546 l 271 532 l 271 530 l 285 527 l 293 535 q 277 546 290 546 l 274 546 m 336 456 l 336 448 l 342 443 l 347 443 q 358 465 354 443 l 350 470 q 336 456 342 469 m 369 367 l 369 71 q 480 144 449 94 q 499 226 499 181 q 377 364 499 324 l 369 367 z "},"%":{"ha":1235,"x_min":0,"x_max":0,"o":""},"&":{"ha":926,"x_min":0,"x_max":979,"o":"m 320 1180 l 326 1175 l 320 1175 l 320 1180 m 439 1020 q 453 996 445 1003 l 456 998 l 461 998 l 467 993 q 404 968 437 968 l 396 968 q 382 952 396 960 l 380 952 l 336 958 l 326 941 l 326 936 l 331 930 l 434 952 l 464 952 l 464 947 l 458 947 q 374 884 397 947 q 366 841 366 867 l 366 822 l 363 822 l 361 825 q 342 798 342 817 l 350 787 l 372 792 q 396 730 378 747 l 393 727 l 393 724 q 412 711 393 711 l 412 705 q 401 700 401 705 l 401 692 l 426 692 q 434 686 426 686 l 434 684 q 415 678 434 678 l 429 665 l 429 662 l 426 659 l 426 656 l 439 659 l 442 659 l 450 654 q 461 659 450 659 l 461 665 l 434 667 l 434 673 l 467 673 l 469 670 q 545 741 497 670 q 553 751 547 751 l 556 751 l 559 749 q 575 762 575 753 q 559 776 575 774 l 559 789 l 556 792 l 556 795 l 562 800 l 562 817 q 521 928 562 884 q 534 936 521 932 l 553 933 q 567 968 565 933 q 581 993 572 968 l 594 985 l 591 982 l 591 979 q 600 952 600 966 l 600 947 l 608 947 q 632 955 622 947 q 689 827 689 905 l 689 808 l 686 795 l 684 795 l 667 806 l 665 803 l 665 800 l 673 787 l 675 789 l 678 789 q 684 781 684 789 q 570 637 684 714 q 513 597 513 615 q 507 581 513 581 l 505 583 l 507 586 l 507 589 l 505 605 q 477 586 477 594 q 510 507 492 541 q 646 296 594 366 q 686 401 686 357 l 686 410 l 700 429 q 686 445 694 445 l 678 442 q 608 494 653 494 l 608 502 q 618 510 618 502 l 613 515 l 613 518 q 643 529 613 526 q 713 507 676 526 q 757 537 742 537 q 800 505 799 510 l 789 491 q 806 483 792 483 l 814 483 l 814 486 q 806 499 814 499 l 806 505 q 868 529 840 529 q 920 507 920 518 l 920 505 q 865 480 920 500 q 773 366 805 437 l 770 363 l 768 363 l 757 366 l 751 358 q 760 353 751 353 l 762 350 l 762 347 l 689 231 q 822 133 767 133 q 895 193 871 133 q 914 320 914 250 q 936 331 926 331 l 949 331 q 979 293 975 331 l 979 266 q 865 33 979 130 q 765 -2 815 -2 l 735 -2 q 667 14 698 -2 l 651 8 q 610 41 651 21 q 545 81 564 76 q 410 14 500 46 l 412 5 l 410 -92 l 410 -124 l 404 -124 l 404 -70 l 401 11 q 309 -2 346 -2 l 271 -2 q 22 149 102 -2 q 0 244 0 196 l 0 277 q 22 366 3 354 l 19 369 l 19 372 q 68 448 35 412 q 5 496 48 496 l 0 505 l 0 507 q 49 532 20 532 l 71 532 q 127 502 98 532 q 247 567 182 540 q 201 757 201 691 l 201 784 q 225 887 201 825 l 225 890 l 220 890 l 220 887 l 222 879 l 220 879 q 209 906 214 879 l 209 920 q 220 928 209 924 l 222 925 l 225 936 l 222 939 l 222 941 l 231 949 l 250 949 l 252 947 l 255 947 l 255 952 l 244 958 q 255 966 244 966 l 258 968 l 258 971 l 244 985 l 244 987 l 255 993 l 263 993 l 271 987 l 290 993 l 293 990 l 293 966 l 296 966 q 385 1009 355 1009 l 388 998 l 404 998 q 412 1012 410 998 l 410 1015 q 439 1020 420 1020 m 472 1020 l 494 1009 l 494 998 l 491 998 q 467 1015 476 998 l 472 1020 m 583 977 l 583 971 l 586 971 l 586 977 l 583 977 m 260 968 l 255 960 l 255 958 l 258 958 q 269 966 258 966 l 269 968 l 260 968 m 277 963 l 277 960 l 282 960 l 282 963 l 277 963 m 252 939 l 252 925 l 255 925 l 255 939 l 252 939 m 214 933 l 220 933 l 220 930 l 214 930 l 214 933 m 217 922 l 214 920 l 214 914 l 217 914 l 222 920 l 222 922 l 217 922 m 236 909 l 236 906 l 241 906 l 241 909 l 236 909 m 564 895 l 581 884 l 594 884 l 586 909 l 575 909 q 564 895 570 908 m 618 901 l 613 887 l 621 882 l 629 882 l 635 887 l 635 892 q 618 901 632 901 m 613 865 l 616 863 l 618 863 l 624 873 l 621 873 l 613 865 m 656 860 l 654 852 q 673 836 654 836 l 678 841 q 667 860 674 841 l 656 860 m 610 849 l 610 838 l 618 838 l 618 844 l 613 849 l 610 849 m 567 817 l 570 806 l 600 806 l 602 817 q 583 844 602 835 q 567 817 574 844 m 258 838 l 260 836 l 260 830 l 258 827 l 258 825 q 263 817 263 825 l 271 817 l 274 827 q 263 841 269 840 l 260 838 l 258 838 m 543 827 l 548 827 l 548 803 l 543 803 l 543 827 m 518 825 l 521 822 l 521 819 l 515 814 l 513 817 l 513 819 l 518 825 m 540 792 l 545 792 l 545 789 l 540 789 l 540 792 m 602 789 l 602 784 l 610 776 l 613 776 l 610 789 l 602 789 m 222 749 q 247 738 239 738 l 258 751 l 258 770 l 244 776 q 222 749 226 776 m 540 779 l 545 779 l 545 776 l 543 768 l 540 768 l 540 779 m 505 765 l 507 765 l 513 760 l 513 757 l 510 757 l 505 762 l 505 765 m 537 754 l 543 754 l 543 751 l 537 751 l 537 754 m 404 732 l 412 732 l 412 727 l 404 727 l 404 732 m 502 732 l 507 732 l 507 730 l 502 730 l 502 732 m 475 724 l 483 724 l 483 719 l 475 719 l 475 724 m 562 711 l 562 703 q 583 692 562 694 l 583 694 q 570 713 583 704 l 562 711 m 298 703 l 298 700 l 312 692 l 315 692 l 315 700 l 301 703 l 298 703 m 323 697 l 323 692 l 347 692 l 347 700 l 328 703 l 323 697 m 298 694 l 298 692 l 304 686 l 304 694 l 298 694 m 410 686 l 410 684 l 418 684 l 418 686 l 410 686 m 450 686 l 467 684 l 475 686 l 477 684 l 477 678 l 450 678 l 445 684 l 448 686 l 450 686 m 513 572 l 521 572 l 521 562 l 524 543 l 521 543 l 518 545 l 515 545 l 515 537 q 499 545 499 537 l 496 543 l 494 543 l 491 545 l 491 548 l 494 567 l 499 567 l 499 559 q 513 572 513 564 m 640 564 l 640 556 l 635 562 l 637 564 l 640 564 m 269 548 l 269 537 l 271 537 l 271 548 l 269 548 m 543 551 l 545 551 l 545 545 l 543 545 l 543 551 m 741 515 q 727 505 741 505 l 727 502 q 746 491 732 491 l 749 491 l 754 496 q 741 515 747 514 m 269 499 l 241 472 q 201 363 201 421 q 309 136 201 242 q 353 111 340 111 l 345 157 l 347 165 q 334 296 340 200 l 336 315 l 331 320 l 331 388 l 279 499 l 277 499 l 277 480 l 271 480 l 271 499 l 269 499 m 450 475 l 450 458 l 456 464 l 456 469 l 450 475 m 665 358 l 667 355 l 667 347 l 665 347 l 659 353 l 665 358 m 363 334 l 363 328 l 366 290 l 363 220 l 372 103 l 388 100 l 388 117 l 393 117 l 393 100 l 399 100 l 396 114 l 388 239 l 385 239 l 385 220 l 391 127 l 385 127 q 366 334 372 334 l 363 334 m 407 263 l 407 255 l 412 100 l 429 100 l 429 103 l 423 149 l 426 152 l 429 152 l 431 149 l 431 163 q 426 176 426 163 q 410 263 416 176 l 407 263 m 347 220 l 347 212 l 350 212 l 350 220 l 347 220 m 439 217 l 439 214 l 442 149 l 442 136 l 439 119 l 442 106 q 499 138 469 111 l 442 217 l 439 217 m 423 176 l 423 171 l 418 171 l 423 176 m 415 160 l 420 160 l 420 157 l 415 157 l 415 160 m 358 152 q 353 144 358 144 l 353 138 l 358 133 l 361 133 l 361 152 l 358 152 m 353 127 l 355 111 l 358 111 l 358 127 l 353 127 m 434 114 l 434 103 l 437 103 l 437 114 l 434 114 m 369 -18 l 374 -18 l 374 -21 l 369 -21 l 369 -18 m 374 -54 l 380 -54 l 380 -78 l 374 -78 l 374 -54 m 377 -100 l 382 -100 l 382 -105 l 377 -105 l 377 -100 m 456 -102 l 461 -102 l 461 -105 l 456 -105 l 456 -102 m 562 -159 l 567 -165 l 564 -168 l 562 -168 l 562 -159 z "},"'":{"ha":265,"x_min":10,"x_max":249,"o":"m 121 943 q 246 834 218 943 l 249 810 l 249 785 q 70 541 249 667 l 48 533 l 40 533 q 13 576 13 560 q 130 723 130 647 l 130 726 l 89 726 q 10 821 31 726 l 10 837 q 121 943 10 927 z "},"(":{"ha":463,"x_min":-147,"x_max":452,"o":"m 444 1016 q 452 994 452 1015 q 382 910 452 958 q 243 457 243 773 l 243 425 q 406 -36 243 86 q 450 -90 450 -79 l 450 -128 l 441 -136 q 222 20 301 -65 l 170 83 q 159 47 165 47 l 165 37 l 157 -17 l 149 -12 l 146 -14 l 146 -25 l 151 -31 q 143 -41 150 -41 l 143 -85 l 138 -90 l 135 -87 l 135 -77 l 146 96 l 146 126 l 138 142 l 135 142 l 127 18 l 121 18 l 124 75 l 124 96 l 121 96 q 108 -226 108 -70 l 108 -239 l 102 -239 l 102 -215 l 100 -123 l 102 -90 l 100 -12 l 105 137 l 105 153 l 102 153 l 97 69 l 89 53 l 94 47 q 86 37 86 47 l 83 34 l 81 34 l 81 26 l 83 28 l 86 28 l 89 26 l 89 23 l 83 -33 l 83 -44 l 78 -44 l 78 -9 l 75 -9 l 73 -63 l 67 -63 l 67 -60 l 78 156 l 78 167 l 73 189 l 73 202 q 67 275 73 250 l 64 275 l 64 264 l 59 264 l 59 278 q 67 283 59 283 l 62 338 l 64 354 l 64 384 l 67 414 q 2 484 54 484 l -1 487 l -1 492 q 45 517 -1 506 l 67 517 q 173 793 79 640 q 444 1016 283 949 m 29 395 l 35 395 l 35 389 l 29 389 l 29 395 m -139 227 l -136 224 l -136 221 l -142 216 l -144 218 l -144 221 l -139 227 m 124 121 l 124 99 l 127 99 l 127 121 l 124 121 m 159 94 l 159 83 l 162 83 l 162 94 l 159 94 m 149 26 l 149 9 l 151 9 l 151 26 l 149 26 m 119 12 l 124 12 l 124 -12 l 119 -12 l 119 12 m 151 4 l 151 -9 l 154 -9 l 157 4 l 151 4 m -60 -3 l -58 -6 l -58 -9 l -60 -12 l -63 -12 l -66 -9 l -66 -6 l -63 -3 l -60 -3 m -44 -9 q -28 -31 -28 -14 l -28 -36 l -36 -44 l -41 -44 q -55 -22 -55 -37 l -55 -17 q -44 -9 -55 -13 m 154 -20 l 159 -20 l 159 -22 l 154 -22 l 154 -20 m 24 -50 l 26 -50 l 32 -55 l 32 -60 l 26 -60 l 24 -50 m 149 -55 l 154 -55 l 154 -63 l 149 -63 l 149 -55 m 116 -63 l 121 -63 l 121 -66 l 116 -66 l 116 -63 m -139 -79 l -136 -79 q -123 -101 -123 -86 l -131 -106 l -136 -106 q -147 -87 -147 -102 l -139 -79 m 67 -82 l 73 -82 l 73 -101 l 67 -101 l 67 -82 m 146 -82 l 151 -82 l 151 -85 l 146 -85 l 146 -82 m 116 -87 l 121 -87 l 121 -90 l 119 -98 l 116 -98 l 116 -87 m 132 -98 l 135 -98 l 140 -104 l 138 -104 l 132 -98 m 135 -120 l 140 -120 l 140 -128 l 138 -131 l 138 -134 l 140 -136 l 135 -136 l 135 -120 m 113 -131 l 119 -131 l 119 -139 l 113 -139 l 113 -131 m 130 -172 l 135 -172 l 135 -188 l 130 -188 l 130 -172 m 51 -212 l 56 -212 l 56 -218 l 51 -212 m -47 -269 l -41 -269 l -41 -272 l -47 -272 l -47 -269 m 94 -286 l 100 -286 l 100 -288 l 94 -288 l 94 -286 m -31 -299 l -28 -299 l -28 -304 l -31 -304 l -31 -299 z "},")":{"ha":416,"x_min":0,"x_max":434,"o":"m 8 1021 q 184 907 96 984 q 317 730 290 802 l 315 728 l 309 728 l 309 725 q 328 706 328 725 q 382 522 382 586 l 415 522 q 434 484 424 522 q 393 454 418 484 q 382 448 382 454 l 388 435 l 377 424 l 385 410 q 350 231 385 334 l 345 231 q 326 250 345 241 l 315 229 l 334 215 l 336 215 l 345 218 l 345 215 q 155 -42 304 82 l 141 -42 q 109 -72 141 -59 q 5 -132 73 -101 l 0 -123 l 0 -80 l 90 9 l 95 9 l 103 3 l 103 6 l 98 20 q 136 74 133 56 l 149 71 l 152 74 l 144 87 l 168 128 l 171 136 l 168 144 q 209 424 209 265 l 209 459 q 27 947 209 827 q 0 1004 0 970 q 8 1021 3 1021 m 290 625 l 290 622 q 304 606 294 611 l 309 606 l 315 611 l 315 614 q 296 625 311 625 l 290 625 m 345 503 l 342 500 l 342 492 l 350 492 l 350 497 l 345 503 m 326 462 l 326 459 q 345 440 326 440 l 347 440 l 350 451 q 334 465 345 465 l 326 462 m 239 435 q 250 424 241 424 l 271 427 l 271 432 q 252 456 256 445 q 239 435 239 452 m 361 432 l 358 429 l 358 427 q 372 410 368 427 l 374 410 l 374 416 q 361 432 371 427 m 288 408 l 274 413 q 296 397 279 397 q 307 418 302 397 l 301 418 l 288 408 m 233 370 l 228 361 q 239 299 231 299 l 258 307 l 255 326 l 258 329 l 260 329 l 269 326 l 269 329 l 274 356 l 233 370 m 347 340 l 347 337 l 350 321 l 353 321 l 358 326 l 358 332 q 347 340 358 336 m 334 283 l 334 275 l 339 269 l 342 272 l 342 277 l 336 283 l 334 283 m 331 261 l 331 258 l 336 258 l 336 261 l 331 261 m 301 256 l 301 245 l 309 245 l 309 250 l 304 256 l 301 256 m 296 223 l 293 212 l 298 212 l 301 223 l 296 223 m 217 161 l 214 150 l 220 150 l 222 161 l 217 161 m 184 153 l 184 150 l 193 139 l 198 147 l 193 153 l 184 153 m 222 134 l 222 131 l 233 120 l 236 120 l 244 128 l 244 139 l 222 134 m 160 109 q 168 101 168 109 l 171 101 l 171 109 l 165 115 l 160 109 m 176 90 l 176 82 l 182 77 l 184 77 l 184 85 l 179 90 l 176 90 m 201 22 l 201 20 l 203 12 l 212 12 l 212 14 l 209 22 l 201 22 m 81 -12 l 81 -15 l 90 -15 l 90 -12 l 81 -12 m 35 -88 l 35 -91 l 46 -94 q 38 -88 46 -88 l 35 -88 z "},"*":{"ha":610,"x_min":0,"x_max":602,"o":"m 298 945 l 309 942 l 312 945 l 315 945 q 391 869 391 922 l 391 866 q 334 706 391 834 l 331 690 l 334 690 l 366 714 l 369 714 q 380 692 370 692 l 385 692 l 393 701 l 393 703 q 385 714 385 703 l 374 720 q 507 828 464 828 l 518 828 q 602 758 579 828 l 602 747 q 513 671 602 683 q 361 644 390 660 l 361 641 q 545 608 400 629 q 602 535 602 588 q 515 456 602 470 q 355 578 465 456 l 331 597 l 331 592 q 385 451 331 578 l 391 416 q 298 340 391 353 q 214 397 240 340 l 212 418 q 263 565 212 450 l 271 597 q 144 478 260 597 q 84 456 114 456 l 71 456 l 57 467 l 52 462 q 3 519 3 488 l 0 522 l 3 524 l 5 524 q 16 503 12 524 l 19 503 l 22 511 l 19 524 q 27 535 27 524 q 3 554 19 554 q 119 619 3 604 l 130 619 l 133 616 l 133 608 l 130 606 l 130 603 l 165 589 l 171 589 l 176 595 l 176 616 l 174 619 l 174 622 l 233 638 l 241 641 l 241 644 q 73 673 210 659 l 71 687 l 62 687 l 62 676 q 8 711 41 676 l 0 736 q 27 752 27 740 l 24 763 q 35 782 35 775 l 27 806 q 76 828 54 828 l 95 828 q 214 733 136 828 q 271 687 239 709 l 271 690 q 214 836 271 711 l 212 871 q 277 942 212 920 l 298 945 m 258 888 l 255 885 l 255 880 l 260 874 l 266 874 l 266 877 l 258 888 m 220 880 l 220 874 l 225 869 l 231 869 l 231 871 l 228 880 l 220 880 m 233 855 l 233 852 l 236 844 l 244 844 l 233 855 m 236 831 l 236 812 l 250 809 l 252 809 l 255 823 l 255 825 l 244 836 l 241 836 l 236 831 m 62 806 l 62 793 l 68 793 l 81 798 l 81 804 l 71 814 l 62 806 m 304 801 l 304 795 l 312 787 l 312 801 l 304 801 m 274 795 l 274 779 l 282 771 l 290 777 q 277 795 283 794 l 274 795 m 464 785 l 464 779 l 469 771 q 480 785 480 774 l 472 790 l 469 790 l 464 785 m 263 747 l 263 739 l 279 722 l 282 722 l 293 736 l 293 741 q 277 758 293 758 q 263 747 264 753 m 106 744 l 103 733 l 111 741 l 111 744 l 106 744 m 57 730 q 76 709 62 718 l 81 709 l 90 730 l 87 730 l 73 741 l 65 741 l 57 730 m 27 736 l 27 725 l 35 725 l 35 730 l 30 736 l 27 736 m 98 714 l 98 703 l 103 703 l 103 709 l 98 714 m 420 711 l 418 709 l 418 695 l 426 687 l 429 687 l 434 692 q 420 711 434 708 m 68 698 l 68 695 l 73 695 l 73 698 l 68 698 m 98 541 l 100 538 l 117 549 l 130 546 l 114 562 q 98 541 104 562 m 410 551 l 418 543 l 420 543 l 418 557 l 415 557 l 410 551 m 30 546 l 30 543 q 41 527 36 527 l 46 527 q 35 546 35 539 l 30 546 m 293 543 l 290 530 q 301 511 297 511 l 307 511 q 315 522 315 511 q 298 543 307 540 l 293 543 m 133 527 l 136 524 q 152 503 149 515 l 155 503 l 165 513 l 165 527 l 160 532 l 138 532 l 133 527 m 57 516 l 57 503 l 65 494 l 79 494 l 79 505 l 68 516 l 57 516 m 298 432 q 312 421 301 421 l 312 424 l 307 440 l 304 440 q 298 432 298 440 m 214 424 l 214 421 l 222 421 l 222 424 l 214 424 z "},"+":{"ha":882,"x_min":0,"x_max":898,"o":"m 410 825 l 453 822 l 496 822 q 518 798 518 822 l 518 703 l 505 689 l 499 689 q 494 697 494 689 l 486 700 q 464 665 464 687 q 477 651 470 665 l 486 651 l 488 654 l 502 635 l 505 635 l 502 662 l 510 673 l 513 675 l 518 675 l 518 629 l 515 627 l 515 624 l 486 629 q 469 621 469 627 l 469 613 q 477 608 469 608 l 480 605 l 480 602 l 472 594 q 513 572 496 594 l 518 567 l 518 475 l 882 475 q 898 467 898 473 l 898 366 q 873 347 898 347 l 518 347 l 518 30 q 480 0 518 0 l 410 0 q 380 16 389 0 l 380 347 l 157 347 q 136 355 138 347 q 146 363 146 359 l 141 369 l 114 361 l 114 358 q 127 353 127 358 l 125 350 l 14 350 l 0 361 l 0 464 q 27 475 0 471 l 380 475 l 380 618 l 385 640 l 380 648 l 380 773 l 385 773 q 399 751 392 751 l 410 751 l 420 762 l 420 773 l 418 787 l 420 787 l 434 781 l 445 789 l 445 792 q 420 811 445 811 l 415 803 l 415 789 l 412 789 q 388 819 391 789 l 410 825 m 477 741 l 477 735 l 491 732 l 491 738 l 483 746 l 477 741 m 486 713 l 486 708 l 507 703 l 510 705 l 510 708 l 505 713 l 486 713 m 404 700 l 407 675 q 396 656 396 671 q 418 640 408 643 q 439 673 439 648 l 420 689 q 412 705 420 698 l 404 700 m 445 602 l 442 600 l 442 597 l 445 589 l 453 589 l 453 591 q 445 602 449 602 m 401 510 l 401 505 l 412 499 l 412 505 l 407 510 l 401 510 m 103 363 l 103 355 l 106 355 l 106 363 l 103 363 z "},",":{"ha":259,"x_min":0,"x_max":239,"o":"m 106 215 l 119 215 q 236 109 204 215 l 239 82 l 239 55 q 52 -195 239 -68 l 30 -203 q 3 -159 3 -174 q 119 -2 119 -71 l 95 -2 q 5 60 26 -2 l 0 98 l 0 109 q 79 212 0 189 l 106 215 z "},"-":{"ha":406,"x_min":0,"x_max":369,"o":"m 16 538 l 336 538 q 369 528 369 538 l 369 392 q 350 381 365 381 l 8 381 l 0 389 l 0 530 q 16 538 3 538 m 206 525 l 206 519 l 203 519 q 220 506 209 506 l 225 514 l 225 519 l 220 525 l 206 525 m 152 506 l 152 500 l 155 487 l 160 492 l 160 506 l 152 506 z "},".":{"ha":279,"x_min":-71,"x_max":352,"o":"m -25 248 l -20 242 l -25 242 l -25 248 m 13 237 l 24 237 l 24 231 l 18 226 l 13 231 l 13 237 m 83 237 l 89 237 l 94 210 q 105 218 105 211 l 119 215 l 149 215 l 159 223 q 195 199 189 215 l 205 196 l 211 201 l 214 199 l 216 199 l 227 201 l 230 201 l 230 196 l 214 191 l 214 188 q 252 120 252 150 l 252 98 q 216 25 252 62 l 216 22 l 219 25 l 224 25 l 227 22 l 230 22 l 227 9 l 222 9 l 200 17 q 151 -2 176 -2 l 151 -7 l 157 -7 l 154 -24 q 162 -32 154 -32 l 165 -35 l 165 -37 l 151 -62 q 121 -29 132 -62 q 132 -5 122 -17 l 132 -2 l 130 -5 q 48 25 92 -5 q 32 -5 48 9 l 24 3 l 24 9 l 32 17 l 32 12 l 35 12 l 35 14 l 32 25 l 37 36 q 13 90 16 68 l 10 90 l -6 85 l -6 87 l 2 101 q -6 106 -6 101 q 18 144 18 121 l 16 153 q 29 163 26 153 l 26 166 q 35 177 35 166 l -1 218 l -1 220 l 2 220 l 24 199 l 24 204 l 29 204 l 40 196 l 40 201 l 43 201 q 62 193 53 193 q 86 207 62 202 l 83 220 l 83 237 m 45 229 l 51 229 l 51 226 l 45 226 l 45 229 m 238 229 l 241 229 l 241 226 l 235 220 l 230 220 l 238 229 m 222 220 l 230 220 l 216 207 l 216 210 l 222 220 m 40 218 l 43 215 l 43 204 l 35 204 l 35 212 l 40 218 m 168 212 l 168 210 l 173 210 l 173 212 l 168 212 m 16 185 l 18 182 l 18 180 l 16 177 l 13 177 l 10 180 l 10 182 l 13 185 l 16 185 m 349 153 l 352 150 l 352 147 l 349 144 l 344 144 l 344 147 l 349 153 m 338 150 l 344 142 l 344 139 l 341 139 l 333 147 l 336 150 l 338 150 m -22 147 l -17 147 l -17 144 l -22 144 l -22 147 m -71 144 l -66 144 l -66 142 l -71 142 l -71 144 m 311 131 l 314 131 l 314 125 l 311 125 l 311 131 m 279 52 l 281 52 l 287 47 l 287 44 l 279 52 m 290 41 l 292 41 l 292 36 l 290 36 l 290 41 m 295 33 l 303 25 l 303 20 l 295 28 l 295 33 m 203 -18 l 208 -26 l 195 -40 q 214 -62 203 -40 l 214 -64 l 205 -73 l 203 -73 l 197 -59 l 200 -56 l 200 -54 l 192 -48 l 184 -51 l 178 -45 l 181 -43 l 181 -40 l 176 -29 l 203 -18 m 154 -35 l 154 -37 l 159 -37 l 159 -35 l 154 -35 m 170 -35 l 173 -35 l 173 -40 l 170 -40 l 170 -35 m 254 -40 l 260 -45 l 254 -45 l 254 -40 m 165 -51 l 170 -51 l 170 -54 l 165 -54 l 165 -51 m 227 -67 l 227 -70 l 222 -92 l 216 -92 l 216 -89 l 219 -86 l 219 -83 l 211 -75 q 227 -67 211 -70 m 230 -73 l 235 -78 l 235 -81 l 230 -86 l 230 -73 z "},"/":{"ha":473,"x_min":0,"x_max":483,"o":"m 369 937 l 448 937 q 483 926 483 935 l 483 912 q 282 302 420 709 q 271 296 271 302 l 271 294 l 279 291 q 138 -127 145 -127 l 122 -132 l 27 -132 q 0 -121 0 -129 q 54 50 0 -104 l 57 47 l 62 47 q 76 68 76 54 q 62 74 76 74 q 342 928 290 791 q 369 937 356 937 m 247 288 l 241 261 l 244 258 l 250 258 q 263 288 259 258 l 247 288 m 239 229 l 241 215 l 250 215 l 250 218 q 241 229 245 229 l 239 229 m 187 196 l 187 193 q 209 215 209 193 l 206 218 l 201 218 q 187 196 187 211 m 220 169 l 222 166 l 228 166 l 236 182 l 233 185 l 231 185 q 220 169 225 185 m 100 -54 l 100 -56 l 106 -56 l 106 -54 l 100 -54 z "},":":{"ha":259,"x_min":0,"x_max":241,"o":"m 114 616 l 130 616 q 239 532 204 616 l 241 507 q 152 401 241 431 l 125 399 l 114 399 q 3 488 27 399 l 0 507 q 87 613 0 582 l 114 616 m 117 217 l 127 217 q 241 103 241 198 q 146 0 241 33 l 109 0 q 3 84 35 0 l 0 109 q 87 214 0 183 l 117 217 z "},";":{"ha":269,"x_min":-20,"x_max":333,"o":"m 24 675 l 26 675 l 32 669 l 32 667 l 29 667 l 24 672 l 24 675 m 130 675 l 135 675 l 135 645 q 143 629 143 645 l 146 631 l 149 631 l 151 629 l 151 626 l 149 623 l 189 610 q 203 626 189 618 l 205 626 l 205 623 l 195 602 q 214 585 209 600 l 235 566 l 235 564 l 233 561 q 243 523 243 543 l 249 523 l 252 534 l 249 536 l 252 536 l 241 555 l 241 564 l 243 564 q 257 536 252 564 q 246 512 257 527 l 257 512 l 271 515 l 271 512 l 268 509 l 268 507 q 281 498 281 506 l 281 496 l 279 496 l 252 507 l 249 507 q 238 474 243 507 q 159 406 217 433 q 146 385 146 395 l 146 382 q 154 376 154 382 l 154 374 q 140 366 154 368 l 138 368 l 140 371 l 140 379 l 135 379 l 135 387 l 140 395 q 132 406 134 395 l 130 406 l 127 404 l 124 406 l 108 406 q 102 398 108 398 l 97 398 l 97 404 l 102 404 q 81 412 102 409 q 67 393 81 396 l 67 390 l 70 376 l 67 374 l 64 374 l 62 376 l 48 368 l 43 368 q 35 385 35 371 l 35 387 q 54 422 35 408 q 7 493 7 460 l 2 493 l -1 490 l -3 490 l -6 493 l -6 496 l -3 498 l -3 501 l -6 504 l -3 504 l 5 501 l 2 504 l 5 507 l 5 520 q 62 610 5 572 q 113 623 92 623 l 124 623 l 130 629 l 130 675 m 154 675 l 159 669 l 154 664 l 149 669 l 154 675 m 108 669 l 111 669 l 111 664 l 108 664 l 108 669 m 157 648 l 159 645 l 159 642 l 149 634 l 146 637 l 146 640 l 157 648 m 64 640 l 67 640 l 67 634 l 64 634 l 64 640 m 113 640 l 119 640 l 119 634 l 113 634 l 113 640 m 32 602 l 37 602 l 37 596 l 32 596 l 32 602 m 287 517 l 290 517 l 295 512 l 298 515 l 300 515 l 306 509 l 306 507 q 287 515 287 509 l 287 517 m -20 490 l -12 490 l -12 488 l -20 488 l -20 490 m 203 425 l 211 425 l 211 420 l 203 420 l 203 425 m 317 387 l 319 387 l 319 382 l 317 382 l 317 387 m 328 382 l 333 376 l 330 374 l 328 374 l 322 379 l 325 382 l 328 382 m 319 379 l 319 374 l 314 374 l 319 379 m 70 376 l 75 371 l 70 371 l 70 376 m 78 376 l 83 376 l 86 368 l 94 371 q 105 366 94 366 l 108 355 l 105 352 l 102 352 l 86 355 l 86 352 l 92 344 q 83 322 86 344 l 70 322 q 81 338 70 338 l 73 355 l 73 357 l 81 368 l 78 371 l 78 376 m 56 366 l 62 366 l 62 360 l 56 360 l 56 366 m 211 357 l 216 357 l 216 355 l 211 355 l 211 357 m 208 349 l 214 349 l 214 344 l 208 344 l 208 349 m 205 336 l 211 336 l 208 314 l 203 314 l 203 317 l 205 336 m 75 317 l 81 317 l 89 309 l 75 306 l 70 311 l 75 317 m 64 303 l 73 303 l 73 298 l 64 298 l 64 303 m 86 303 l 89 303 l 89 300 l 81 292 l 78 295 l 78 298 l 86 303 m 108 224 l 116 224 q 238 119 206 224 l 241 89 l 241 73 q 54 -184 241 -60 l 29 -193 q 5 -149 5 -159 q 121 7 121 -60 l 97 7 q 10 59 36 7 q 2 105 2 85 l 2 124 q 81 222 2 198 l 108 224 z "},"<":{"ha":811,"x_min":0,"x_max":0,"o":""},"=":{"ha":823,"x_min":0,"x_max":819,"o":"m 24 545 l 27 545 q 33 528 33 545 l 41 536 l 35 542 l 38 545 l 100 545 q 117 528 117 539 l 119 526 l 133 526 l 133 534 l 122 534 l 122 539 l 133 545 l 231 545 q 244 531 244 538 l 247 531 l 247 539 l 244 542 l 247 545 l 458 545 q 469 526 463 545 l 472 526 l 475 528 l 475 536 l 472 539 l 472 542 l 475 545 l 795 545 q 819 520 819 541 l 819 460 q 803 431 819 439 l 16 431 q 0 463 9 431 l 0 523 q 24 545 0 545 m 95 542 l 95 536 q 106 520 101 520 l 109 520 l 109 526 l 95 542 m 146 536 l 138 520 l 141 517 l 144 517 l 152 534 l 149 536 l 146 536 m 288 526 q 312 509 297 509 l 317 517 l 317 520 q 298 531 313 531 l 293 531 l 288 526 m 52 517 l 52 512 l 60 520 l 60 523 l 57 523 l 52 517 m 247 512 l 247 509 l 250 509 l 255 515 l 255 517 l 252 517 l 247 512 m 65 504 l 65 493 l 71 493 q 84 507 84 493 l 98 504 q 76 512 96 512 l 65 504 m 52 501 l 52 498 l 54 490 l 57 490 l 57 498 l 54 501 l 52 501 m 255 501 q 269 482 262 484 l 274 488 q 255 501 270 501 m 252 474 l 252 469 l 271 463 l 277 469 l 271 474 l 252 474 m 122 450 l 122 447 l 127 441 q 141 452 140 447 l 136 452 l 122 450 m 11 284 l 803 284 q 819 254 819 276 l 819 197 q 789 170 819 170 l 770 168 l 46 168 q 0 192 0 168 l 0 260 q 11 284 0 281 m 334 257 l 334 254 l 336 246 l 339 246 l 339 254 l 336 257 l 334 257 m 488 243 l 488 241 l 496 241 l 496 243 l 488 243 z "},">":{"ha":811,"x_min":0,"x_max":0,"o":""},"?":{"ha":635,"x_min":0,"x_max":656,"o":"m 353 1069 l 385 1069 q 629 936 543 1069 q 656 827 656 890 l 656 822 q 545 621 656 697 q 396 491 449 553 q 377 499 386 499 l 374 499 l 366 491 l 366 488 q 388 472 373 488 q 366 366 366 433 l 366 350 l 361 334 l 363 320 q 345 312 353 312 l 342 312 q 288 336 288 312 l 285 366 l 290 366 q 304 347 297 347 q 312 363 309 347 q 298 391 306 391 l 285 391 l 285 399 l 293 488 q 222 548 293 532 l 220 559 q 282 583 248 583 q 331 570 296 583 q 437 830 437 754 l 437 844 q 355 987 437 948 l 317 996 q 160 830 199 996 q 57 656 105 656 l 41 656 q 0 681 18 656 l 0 700 q 33 732 7 732 l 33 1039 l 41 1047 l 87 1047 q 106 1015 95 1044 q 125 1006 116 1006 q 271 1061 149 1006 q 353 1069 307 1069 m 312 488 l 309 486 l 309 480 q 317 472 317 480 l 320 469 l 323 469 l 326 472 l 328 472 q 312 488 323 488 m 339 418 l 336 404 q 347 391 342 391 l 350 391 q 355 404 355 391 l 358 404 q 350 418 355 418 l 339 418 m 309 323 l 315 317 l 317 320 l 317 323 l 309 323 m 212 269 l 214 266 l 214 263 l 206 258 l 206 263 l 212 269 m 195 260 l 201 260 l 198 247 l 193 252 l 195 260 m 212 258 l 217 250 l 212 244 l 203 244 l 203 250 l 212 258 m 420 250 l 426 250 l 426 244 l 420 244 l 420 250 m 222 247 q 231 231 231 244 l 228 228 l 233 222 l 236 225 l 241 225 l 250 220 q 320 244 275 244 l 334 244 l 331 222 q 355 203 331 215 l 355 198 l 347 171 q 366 163 347 165 q 393 179 393 166 q 369 201 393 193 l 361 233 l 363 236 q 393 195 393 227 l 393 193 l 407 195 l 407 193 l 420 182 l 418 179 l 415 179 l 412 182 l 410 182 l 407 179 l 407 176 l 404 179 l 399 179 l 404 168 q 396 157 400 157 l 396 163 l 393 163 l 393 160 l 396 149 l 404 149 l 407 152 l 410 149 l 412 149 l 423 157 l 426 157 l 429 146 q 407 87 429 118 l 407 84 l 415 84 l 434 90 l 434 84 l 426 73 l 431 73 l 431 68 q 420 60 431 60 q 407 46 420 50 l 407 43 l 410 35 l 401 33 l 401 30 l 415 30 l 415 27 l 396 14 l 399 5 l 393 5 l 393 3 q 429 -43 393 -9 l 429 -46 l 404 -24 l 404 -30 l 401 -30 l 388 -22 l 388 -27 l 385 -27 q 366 -16 373 -16 l 366 -19 l 363 -22 l 355 -19 l 358 -22 l 358 -24 l 353 -30 l 345 -24 l 342 -27 l 345 -46 l 345 -60 l 339 -60 l 334 -30 l 331 -30 q 323 -43 325 -30 l 317 -43 q 307 -30 317 -30 l 285 -35 l 312 -16 l 312 -14 l 293 -14 l 293 -19 l 279 -19 q 266 -11 279 -11 l 263 -11 q 239 -19 249 -11 q 260 -41 239 -26 l 263 -38 l 266 -38 l 269 -41 l 271 -38 l 277 -38 l 277 -41 l 269 -49 q 236 -38 250 -38 l 239 -35 l 239 -33 l 233 -14 l 217 -27 l 214 -24 l 212 -24 l 201 -27 l 198 -27 l 198 -22 q 241 5 233 -9 l 244 5 l 247 3 q 260 16 254 3 q 206 73 206 54 l 217 79 l 228 76 l 231 87 q 212 133 212 111 l 212 149 q 201 155 201 149 l 201 163 l 206 168 l 212 163 q 225 195 212 171 l 220 201 q 233 217 233 207 l 231 217 q 214 241 223 217 l 222 247 m 423 236 l 426 236 l 426 231 l 423 231 l 423 236 m 195 225 l 198 225 l 198 220 l 195 220 l 195 225 m 307 203 q 290 171 307 191 l 274 179 l 274 176 q 290 163 279 163 l 307 165 l 309 163 l 315 168 l 315 165 l 312 157 l 315 157 l 326 155 q 334 160 326 160 l 334 163 q 315 201 317 177 l 307 203 m 122 157 l 125 157 q 136 138 130 157 q 122 157 129 140 m 138 136 l 141 136 l 141 130 l 138 130 l 138 136 m 144 127 l 149 122 l 144 122 l 144 127 m 203 84 l 195 76 l 193 79 l 193 81 l 195 84 l 203 84 m 445 79 l 448 79 l 439 71 l 439 73 l 445 79 m 114 49 l 117 49 l 117 43 l 114 43 l 114 49 m 84 35 l 90 35 l 90 33 l 84 33 l 84 35 m 494 35 l 499 35 l 499 30 l 494 30 l 494 35 m 448 33 l 450 33 l 450 27 l 448 27 l 448 33 m 84 30 l 84 22 l 81 22 l 76 27 l 79 30 l 84 30 m 396 27 l 396 24 l 404 24 l 404 27 l 396 27 m 241 -5 l 241 -11 l 255 -8 l 255 -5 l 241 -5 m 317 -19 l 317 -27 l 320 -30 l 323 -30 l 323 -27 l 320 -19 l 317 -19 m 388 -27 l 393 -27 l 393 -38 l 388 -43 l 388 -27 m 198 -43 l 203 -43 l 203 -46 l 198 -46 l 198 -43 m 193 -46 l 198 -46 q 187 -54 198 -50 l 187 -52 l 193 -46 m 410 -52 l 415 -52 l 415 -62 l 404 -62 l 404 -57 l 410 -52 m 448 -68 l 453 -68 l 453 -71 l 448 -71 l 448 -68 z "},"@":{"ha":991,"x_min":0,"x_max":1012,"o":"m 591 1044 l 605 1044 q 996 817 909 1044 q 1012 694 1012 751 q 860 336 1012 495 q 665 255 770 255 l 648 255 q 575 293 608 255 l 567 285 l 562 285 q 553 307 553 287 l 551 307 q 426 255 497 255 l 410 255 q 228 399 275 255 l 222 456 l 222 486 l 225 505 q 176 529 201 529 l 176 537 q 222 562 176 551 l 239 562 l 252 608 l 247 616 l 255 629 l 255 635 q 247 640 255 640 l 244 643 l 244 651 q 258 673 258 660 l 266 678 l 282 667 l 285 667 q 355 762 285 680 q 437 811 424 811 l 434 814 l 434 817 q 448 844 440 844 l 445 852 l 450 876 l 448 892 l 458 901 l 461 901 l 469 892 l 469 884 l 461 873 l 464 871 l 464 868 q 445 827 450 827 l 445 817 q 475 827 475 823 l 472 830 l 472 833 q 486 857 479 857 q 480 922 480 882 q 469 944 480 932 l 469 947 l 472 949 l 472 952 l 469 952 l 453 941 l 456 939 l 456 930 q 429 873 456 918 l 420 846 l 431 852 l 437 844 q 412 806 418 808 l 404 819 l 404 822 l 407 825 l 407 827 l 401 827 q 388 800 393 801 l 385 803 l 385 808 q 404 860 404 833 q 420 882 420 860 q 429 914 426 882 l 431 914 l 429 917 l 429 939 l 426 939 l 407 922 l 401 928 l 369 914 l 372 911 l 372 906 l 355 884 l 353 887 l 353 890 l 361 906 l 355 906 q 84 475 84 733 l 84 467 q 125 285 84 377 l 119 277 l 122 277 l 130 279 q 214 174 144 245 q 179 133 179 140 l 195 125 l 217 168 l 220 168 q 404 81 299 104 l 404 71 q 350 35 404 47 l 334 19 q 60 233 142 86 q 0 458 0 340 l 0 494 l 3 496 l 0 499 l 0 502 q 125 814 0 647 q 591 1044 317 1044 m 741 977 l 741 974 q 749 968 749 974 q 776 985 776 978 l 776 993 l 773 993 q 741 977 741 985 m 214 987 l 217 987 l 217 982 l 212 977 l 209 977 l 209 982 l 214 987 m 760 987 l 762 987 l 768 982 l 765 979 l 762 979 l 760 982 l 760 987 m 553 966 l 553 963 q 562 958 562 963 l 562 955 l 556 949 l 548 952 l 543 947 l 543 958 l 545 960 l 545 963 l 534 963 q 529 955 534 955 l 529 963 l 507 960 l 507 955 l 513 949 l 510 922 l 510 901 q 524 920 514 901 l 534 920 l 545 909 l 545 906 q 510 879 545 900 l 502 827 l 515 830 q 635 779 591 830 l 643 803 l 632 827 q 656 868 632 850 l 656 871 l 648 871 l 648 873 l 651 876 l 651 879 l 654 876 l 659 876 l 665 911 l 662 922 l 656 922 l 659 920 l 659 917 l 654 911 l 646 914 l 646 906 l 643 906 l 637 911 l 640 914 l 637 917 l 637 920 q 643 939 643 926 l 648 933 l 646 930 l 648 920 l 651 920 q 659 930 651 930 l 659 963 l 651 958 l 648 958 l 648 966 l 635 966 l 624 963 l 605 966 l 553 966 m 608 963 l 616 963 l 610 958 l 608 958 l 608 963 m 705 958 l 703 947 l 705 944 l 705 939 l 703 936 l 703 933 l 708 928 l 705 925 l 703 925 l 700 928 l 692 898 l 694 887 l 686 882 l 675 882 l 675 901 q 684 906 675 906 l 686 909 l 686 911 l 681 911 l 681 917 q 694 947 694 917 l 689 947 q 670 890 670 916 l 670 871 l 678 876 l 684 871 l 684 868 l 678 868 l 681 854 l 678 852 l 675 852 l 667 857 l 662 830 l 665 827 l 665 825 l 662 817 l 665 808 l 684 819 l 686 817 l 689 817 l 686 819 l 686 825 l 692 830 l 697 830 l 703 825 l 697 814 l 765 814 l 779 817 l 781 814 l 789 822 l 806 808 l 798 779 l 806 768 l 811 768 l 811 765 q 800 760 811 760 l 743 562 l 746 562 q 784 537 777 551 l 784 534 q 762 526 784 526 q 716 486 734 517 q 686 347 686 391 l 686 342 l 689 339 l 689 336 q 857 461 766 336 q 928 697 928 577 q 906 822 928 748 l 920 841 l 911 860 l 909 857 l 906 857 l 892 860 l 887 854 q 798 928 821 927 l 798 925 l 800 906 q 787 887 800 887 l 787 890 l 784 887 l 781 887 q 773 903 776 887 l 776 914 l 773 936 l 776 939 l 746 947 l 746 944 q 727 892 739 935 l 724 892 l 722 895 l 722 898 l 730 920 l 727 920 l 732 933 q 724 955 727 933 l 711 958 l 705 958 m 616 955 l 618 955 l 618 949 l 616 949 l 616 955 m 529 952 l 532 949 l 532 944 l 526 939 l 524 939 l 524 947 l 529 952 m 719 944 l 722 944 l 722 939 l 719 939 l 719 944 m 581 939 l 586 939 l 586 936 l 581 936 l 581 939 m 708 920 l 708 906 l 703 906 l 703 914 l 708 920 m 594 914 l 602 914 l 597 909 l 594 909 l 594 914 m 575 911 q 583 903 575 903 l 586 901 l 586 898 l 583 895 l 581 895 l 570 909 l 572 911 l 575 911 m 751 911 l 754 911 l 760 906 l 757 903 l 751 903 l 751 911 m 700 898 l 705 898 l 705 892 l 700 892 l 700 898 m 760 898 l 768 898 l 768 892 l 760 892 l 760 898 m 627 895 l 629 895 l 632 892 l 635 892 l 643 895 l 646 892 l 646 890 l 640 884 q 627 895 628 890 m 827 895 l 830 895 q 836 887 836 895 q 817 830 836 830 l 814 833 l 814 836 q 827 863 827 840 l 822 884 l 822 890 l 827 895 m 575 892 l 578 890 l 578 887 l 572 882 l 570 884 l 570 887 l 575 892 m 768 882 l 773 882 l 773 879 l 765 871 l 762 871 l 768 882 m 618 879 l 627 871 l 616 860 l 613 863 l 613 873 l 618 879 m 787 879 l 787 871 l 781 876 l 784 879 l 787 879 m 567 876 l 572 876 l 572 873 l 567 873 l 567 876 m 738 873 l 743 873 l 743 871 l 738 871 l 738 873 m 377 871 l 380 868 l 380 865 l 377 863 l 374 863 l 372 865 l 372 868 l 374 871 l 377 871 m 553 871 l 562 871 l 562 868 l 556 863 l 553 863 l 553 871 m 700 868 l 703 865 l 703 860 l 697 854 l 694 857 l 694 863 l 700 868 m 811 865 l 814 863 l 814 860 l 808 854 l 806 857 l 806 860 l 811 865 m 534 863 l 540 857 l 537 854 l 534 854 l 529 860 l 532 863 l 534 863 m 594 857 l 597 854 l 597 849 l 591 844 l 586 849 l 594 857 m 515 852 l 521 846 l 521 844 l 515 838 l 510 846 l 515 852 m 738 849 l 743 849 l 743 838 l 738 844 l 738 849 m 811 849 l 814 846 l 814 844 l 811 841 l 808 841 l 806 844 l 806 846 l 808 849 l 811 849 m 719 846 l 719 841 l 713 841 l 719 846 m 410 817 l 415 817 l 420 827 l 420 841 q 410 817 415 841 m 765 841 l 768 838 l 768 836 q 757 825 760 833 q 741 836 741 830 l 743 836 l 746 833 l 749 833 l 765 841 m 681 838 l 686 838 l 686 836 l 681 836 l 681 838 m 385 836 l 388 836 l 388 830 l 385 830 l 385 836 m 773 836 l 781 836 l 781 830 l 773 830 l 773 836 m 800 833 l 800 822 l 798 822 l 789 830 l 792 833 l 800 833 m 618 817 l 624 811 l 618 811 l 618 817 m 817 817 l 819 814 l 819 811 l 814 806 l 811 808 l 811 811 l 817 817 m 247 811 l 250 808 l 250 806 l 247 803 l 244 803 l 241 806 l 241 808 l 244 811 l 247 811 m 822 806 l 827 806 l 827 800 l 822 800 l 822 806 m 621 803 l 624 803 l 624 798 l 621 798 l 621 803 m 271 792 l 274 789 l 274 787 l 271 784 l 269 784 l 266 787 l 266 789 l 269 792 l 271 792 m 637 776 l 637 770 l 640 770 l 640 776 l 637 776 m 296 776 l 298 776 l 298 770 l 296 770 l 296 776 m 827 776 l 830 773 l 822 762 l 817 768 l 827 776 m 496 749 l 496 722 l 499 722 l 502 724 l 505 724 l 507 722 l 507 719 l 505 716 l 502 716 l 499 719 l 496 719 l 496 716 q 505 711 496 711 l 505 708 q 496 703 505 703 l 499 681 l 505 686 l 502 689 l 505 689 l 515 686 l 515 689 l 510 697 l 510 705 l 518 713 l 524 713 l 526 711 l 529 711 q 540 727 529 722 l 545 727 q 551 719 551 727 l 564 730 l 570 719 l 578 722 l 575 724 l 575 730 l 583 738 l 581 741 l 581 746 q 589 751 581 751 q 545 770 564 770 q 510 751 532 770 l 496 749 m 567 762 l 567 754 l 564 754 l 559 760 l 562 762 l 567 762 m 293 760 l 296 757 l 296 754 l 293 751 l 290 751 l 288 754 l 288 757 l 290 760 l 293 760 m 521 757 l 532 757 l 532 749 l 526 749 l 521 754 l 521 757 m 551 754 l 556 749 l 551 749 l 551 754 m 586 738 l 589 735 l 589 730 l 583 724 q 602 703 589 707 l 605 703 l 605 705 l 602 708 l 602 711 l 605 719 l 597 743 l 594 743 l 586 738 m 719 727 l 719 705 l 746 705 l 746 711 l 749 711 q 727 730 746 730 l 719 727 m 521 724 l 524 722 l 524 719 l 521 716 l 518 716 l 515 719 l 515 722 l 518 724 l 521 724 m 461 716 q 407 562 407 599 q 453 532 441 562 q 393 486 393 517 l 393 477 q 410 513 401 477 l 420 515 l 423 513 l 423 502 q 401 480 413 480 l 401 458 l 391 437 l 399 380 l 401 380 l 412 388 l 420 380 l 420 374 l 418 361 q 429 350 429 361 l 431 350 l 439 353 l 442 350 l 442 336 l 439 334 l 439 331 l 453 328 l 464 328 l 458 377 l 458 429 l 461 431 l 453 467 q 469 480 458 480 l 467 494 q 412 412 412 429 l 410 412 l 407 415 l 407 429 q 423 458 407 437 l 437 491 l 448 494 l 450 491 q 461 510 450 510 l 469 507 l 467 526 l 456 518 l 450 518 l 450 524 q 461 529 450 529 l 458 532 l 458 543 l 464 548 l 461 551 l 461 553 l 464 597 l 472 610 l 469 618 l 475 667 l 469 716 l 461 716 m 559 697 l 559 694 l 564 694 l 564 697 l 559 697 m 507 656 l 513 656 q 526 675 519 675 l 524 678 l 524 681 l 529 689 l 529 694 q 507 656 519 689 m 567 692 l 567 689 l 570 681 l 581 684 l 581 689 l 567 692 m 784 686 l 789 686 l 789 684 l 784 684 l 784 686 m 499 673 l 499 662 l 502 662 l 502 673 l 499 673 m 562 667 l 562 662 l 567 662 l 567 673 l 562 667 m 583 656 l 583 651 l 594 656 l 594 662 l 589 662 l 583 656 m 499 659 l 499 651 l 502 651 l 502 659 l 499 659 m 548 648 l 548 640 l 556 643 l 556 651 l 548 648 m 499 646 l 502 632 l 496 627 l 499 613 l 491 600 l 502 578 q 496 564 502 564 q 510 545 498 556 l 505 534 q 513 529 513 534 l 513 524 l 502 513 l 499 513 l 496 524 l 494 524 l 486 499 l 488 488 l 502 491 l 507 477 l 486 450 l 486 393 l 483 350 l 486 334 l 491 334 q 532 372 518 349 l 526 377 l 532 382 l 534 382 l 537 380 l 540 380 q 551 399 540 389 l 540 488 l 543 488 l 537 513 l 540 513 l 537 521 l 540 529 q 532 551 534 529 l 545 578 l 548 589 q 537 594 537 589 l 537 605 q 551 610 537 610 l 551 613 q 524 627 551 617 q 499 646 524 646 m 575 629 l 578 616 l 570 594 l 572 578 l 562 564 l 562 556 q 602 567 602 564 l 610 618 l 605 618 l 605 597 l 600 597 l 594 602 l 594 605 q 602 627 602 616 l 597 627 l 589 621 l 586 629 l 575 629 m 499 627 l 505 627 l 505 621 l 499 621 l 499 627 m 526 618 l 529 618 l 529 613 l 526 613 l 526 618 m 562 521 l 562 510 l 564 510 l 567 521 l 562 521 m 562 505 l 567 456 l 564 453 l 564 450 l 570 420 q 589 450 589 434 l 586 450 l 572 448 l 575 467 l 570 472 l 570 475 l 575 483 l 575 494 l 570 505 l 562 505 m 583 502 l 583 494 l 586 494 l 586 502 l 583 502 m 581 491 l 581 483 l 583 483 l 583 491 l 581 491 m 822 488 l 830 488 l 830 483 l 825 477 l 822 480 l 822 488 m 298 467 l 298 464 l 304 464 l 304 467 l 298 467 m 499 461 l 502 458 l 502 453 l 494 453 l 494 456 l 499 461 m 521 458 l 526 458 l 532 453 l 532 450 l 518 415 l 510 415 q 521 458 517 458 m 14 418 l 14 412 l 24 407 l 24 412 l 19 418 l 14 418 m 787 415 l 792 410 l 789 401 l 795 396 l 795 393 l 784 391 l 776 393 l 773 391 q 765 401 772 401 l 765 404 l 770 410 l 781 407 q 787 415 781 415 m 507 410 l 510 407 l 510 404 l 507 401 l 502 401 l 502 404 l 507 410 m 100 274 q 92 244 92 264 l 95 244 l 103 241 q 114 271 114 261 l 111 271 l 100 274 m 309 277 l 312 274 l 312 263 l 307 258 l 304 260 l 304 271 l 309 277 m 90 212 l 92 198 l 95 198 l 98 201 l 100 201 q 92 212 96 212 l 90 212 m 825 193 q 865 155 865 183 l 865 152 q 681 33 865 103 q 564 5 624 14 l 556 8 q 507 0 556 0 l 469 0 q 372 11 418 0 l 372 16 q 407 62 379 16 l 420 65 l 418 79 l 418 81 q 483 76 442 76 l 486 76 q 803 184 626 76 l 825 193 m 586 38 l 586 35 l 589 35 l 594 41 l 594 46 l 586 38 z "},"A":{"ha":873,"x_min":0,"x_max":2238,"o":"m 483 1013 l 486 1013 l 534 983 q 600 1004 559 1004 q 659 985 640 1004 l 659 983 q 608 961 658 977 l 589 934 l 724 519 l 751 522 q 806 500 784 522 l 806 494 l 770 475 q 754 437 754 456 l 754 432 l 854 125 q 808 109 828 109 l 825 68 l 852 93 l 863 93 q 882 28 882 81 l 854 6 l 868 -28 q 854 -39 856 -34 l 854 -45 l 860 -50 l 871 -37 l 873 -37 l 903 -107 l 903 -113 q 892 -121 892 -114 l 895 -129 l 901 -129 l 914 -126 l 930 -164 l 911 -140 l 909 -140 q 895 -164 901 -140 l 898 -164 q 944 -232 925 -164 q 974 -251 974 -232 l 947 -256 l 928 -240 l 911 -245 q 876 -210 911 -228 l 871 -197 q 857 -213 866 -197 l 827 -213 l 814 -202 l 819 -194 l 819 -183 q 784 -132 798 -183 l 762 -83 l 762 -77 l 765 -69 l 762 -69 q 735 -12 755 -68 l 743 -9 q 757 -15 757 -9 q 770 3 770 -11 l 768 6 l 708 6 l 708 9 q 735 44 735 32 q 724 52 724 48 q 697 44 711 44 q 637 163 684 44 q 570 332 570 301 l 572 334 q 559 359 562 334 q 480 332 524 332 l 453 332 q 396 342 396 332 q 404 359 404 345 l 401 361 l 396 361 l 377 342 q 296 378 336 356 l 209 104 q 277 71 209 71 q 290 36 290 65 l 290 25 q 266 6 290 6 l 198 6 q 193 20 193 6 l 190 20 l 182 12 l 187 12 l 187 6 l 8 6 q 0 55 0 6 l 0 58 q 73 79 0 71 q 133 223 92 79 l 206 429 l 198 462 q 222 503 206 503 l 279 513 l 282 513 l 290 508 q 298 516 290 516 q 315 549 315 538 q 296 562 307 562 q 250 535 284 562 l 244 535 l 241 538 l 241 541 l 372 931 q 312 972 355 972 l 309 975 q 301 980 301 975 l 301 985 q 361 1004 309 1001 q 426 983 395 1004 q 483 1013 474 1013 m 358 576 l 361 573 l 361 570 l 326 462 q 469 389 407 389 l 483 389 q 526 427 526 395 q 456 481 502 481 l 453 494 q 496 513 477 513 l 507 513 l 429 763 q 361 576 418 748 l 358 576 m 339 660 l 345 654 l 347 657 l 347 660 l 339 660 m 643 627 l 643 622 l 648 622 l 648 627 l 643 627 m 434 372 l 437 359 l 445 359 l 445 361 q 437 372 441 372 l 434 372 m 583 361 l 578 351 l 578 340 l 581 340 l 591 353 l 591 361 l 583 361 m 735 313 l 730 299 l 732 291 q 743 310 738 291 l 741 313 l 735 313 m 754 242 l 754 239 l 760 223 l 765 223 q 754 242 765 238 m 686 185 l 684 182 l 684 174 l 689 174 l 692 182 l 689 185 l 686 185 m 163 136 l 157 125 l 157 112 l 163 112 q 174 131 174 117 l 168 136 l 163 136 m 111 66 q 125 47 115 47 q 157 90 140 47 l 144 96 q 111 66 111 87 m 24 50 q 35 28 29 28 l 49 41 q 38 63 49 50 q 24 50 31 63 m 770 -39 l 781 -72 l 784 -72 q 795 -58 795 -66 l 789 -42 l 792 -39 l 798 -39 l 800 -42 l 803 -42 l 803 -26 l 792 -26 q 770 -39 776 -26 m 789 -75 l 784 -83 q 806 -110 784 -100 l 811 -102 l 811 -96 q 789 -75 811 -75 m 868 -115 l 873 -121 l 876 -121 q 887 -107 882 -119 l 884 -104 l 879 -104 l 868 -115 m 800 -137 q 817 -151 805 -151 q 827 -142 827 -146 l 827 -137 l 822 -132 l 808 -132 l 800 -137 m 1823 -164 l 1836 -164 q 2119 -349 1954 -164 q 2238 -685 2238 -525 l 2238 -707 q 1912 -1078 2238 -984 q 1801 -1092 1856 -1092 l 1780 -1092 q 1636 -1067 1697 -1092 q 1332 -905 1522 -1049 l 1302 -872 q 1267 -831 1278 -872 l 1264 -831 l 1251 -834 q 1226 -796 1227 -812 q 1185 -766 1207 -796 l 1185 -761 q 1204 -753 1194 -761 q 1194 -718 1197 -743 q 1120 -669 1146 -698 l 1126 -663 q 1145 -674 1131 -674 l 1150 -674 l 1169 -655 l 1175 -655 l 1172 -658 l 1172 -661 l 1180 -666 l 1183 -666 q 1191 -650 1183 -659 l 1188 -650 l 1180 -652 l 1180 -650 l 1175 -633 l 1183 -631 l 1183 -628 l 1166 -609 l 1172 -604 q 1164 -593 1168 -593 l 1161 -595 l 1161 -601 l 1166 -609 l 1164 -609 q 1112 -593 1141 -593 l 1112 -571 l 1104 -571 q 1099 -579 1104 -579 l 1093 -574 l 1093 -563 l 1107 -563 l 1112 -557 l 1112 -552 q 1088 -522 1112 -522 q 1080 -509 1086 -509 l 1077 -509 l 1061 -528 l 1058 -528 q 1017 -479 1044 -524 l 1025 -468 l 1025 -460 l 1017 -452 q 1009 -468 1009 -454 l 1009 -476 l 1006 -476 q 974 -457 974 -467 l 974 -444 l 979 -438 l 982 -441 l 985 -441 l 985 -438 q 960 -384 973 -429 l 958 -381 l 936 -389 q 892 -346 928 -389 q 882 -330 882 -346 q 854 -281 870 -330 q 879 -270 869 -270 l 892 -275 l 898 -275 l 906 -273 l 906 -275 l 911 -281 q 928 -264 911 -273 q 966 -346 966 -288 l 987 -362 l 987 -365 q 977 -387 987 -375 l 1004 -392 q 1036 -384 1036 -391 l 1036 -376 q 1001 -351 1035 -370 l 1015 -340 q 1072 -422 1029 -340 q 1101 -479 1101 -460 l 1104 -476 l 1107 -476 l 1126 -503 q 1118 -514 1119 -503 l 1145 -552 q 1128 -585 1128 -564 l 1128 -587 l 1134 -587 q 1172 -568 1146 -587 q 1185 -585 1175 -585 l 1191 -601 l 1185 -601 l 1180 -609 q 1202 -636 1180 -616 l 1204 -650 l 1199 -655 l 1210 -663 l 1226 -644 l 1245 -669 q 1318 -745 1256 -669 q 1381 -812 1381 -797 l 1386 -812 l 1386 -815 l 1389 -812 l 1392 -812 l 1402 -823 l 1402 -826 q 1394 -845 1394 -836 l 1402 -853 l 1405 -853 l 1419 -840 l 1421 -840 q 1584 -948 1487 -891 l 1584 -964 q 1600 -978 1600 -967 l 1598 -997 l 1600 -1000 l 1603 -1000 q 1611 -975 1610 -991 q 1603 -970 1603 -975 l 1603 -967 l 1609 -962 l 1614 -962 q 1739 -1000 1670 -983 l 1744 -1005 l 1747 -1002 l 1747 -1000 l 1799 -1005 l 1834 -1005 q 2089 -907 1961 -1005 q 2186 -669 2186 -817 q 2002 -286 2186 -467 q 1809 -180 1898 -195 l 1807 -178 l 1807 -172 q 1823 -164 1809 -164 m 895 -180 l 895 -189 l 903 -189 l 903 -186 l 898 -180 l 895 -180 m 920 -224 l 917 -227 l 917 -235 l 920 -235 l 925 -229 l 920 -224 m 977 -264 l 985 -264 l 1009 -319 l 993 -308 l 979 -311 l 958 -281 l 958 -275 q 966 -270 958 -270 l 974 -273 l 977 -264 m 930 -289 l 925 -305 l 922 -305 q 930 -321 926 -321 q 947 -300 939 -321 q 930 -289 944 -289 m 890 -302 l 890 -308 l 895 -313 l 901 -313 q 911 -297 911 -308 l 909 -294 l 906 -294 q 890 -302 890 -296 m 985 -400 l 982 -403 l 982 -416 l 985 -416 l 993 -414 l 1009 -446 q 1039 -454 1039 -446 l 1039 -457 l 1036 -471 l 1047 -476 l 1066 -473 l 1066 -468 q 1058 -449 1066 -459 l 1061 -438 q 1042 -433 1048 -438 l 1044 -430 l 1044 -419 l 1039 -414 l 1034 -414 l 1020 -425 l 1001 -416 l 1001 -411 l 1006 -411 l 1006 -408 l 985 -400 m 947 -438 q 977 -481 947 -444 l 979 -492 l 977 -495 l 974 -495 l 941 -441 l 944 -438 l 947 -438 m 1061 -495 l 1066 -506 q 1082 -473 1078 -506 l 1077 -473 l 1077 -471 q 1061 -495 1065 -471 m 1036 -487 l 1036 -492 l 1042 -492 l 1044 -481 l 1042 -481 l 1036 -487 m 1093 -495 l 1090 -503 l 1096 -503 l 1101 -498 l 1101 -495 l 1093 -495 m 1044 -498 l 1044 -500 l 1055 -500 l 1055 -498 l 1044 -498 m 1047 -576 l 1061 -590 l 1080 -587 l 1093 -606 l 1093 -612 l 1090 -614 l 1090 -617 q 1101 -636 1101 -622 l 1101 -639 l 1096 -644 l 1093 -644 q 1063 -614 1081 -627 q 1047 -595 1063 -595 l 1042 -587 l 1042 -582 l 1047 -576 m 1164 -680 q 1196 -699 1164 -687 l 1215 -709 l 1215 -715 l 1213 -718 l 1213 -720 q 1248 -734 1248 -724 l 1248 -736 q 1240 -761 1240 -736 l 1242 -764 l 1245 -764 l 1261 -758 q 1280 -788 1280 -772 l 1283 -791 l 1291 -791 q 1299 -780 1299 -791 l 1294 -764 l 1313 -761 l 1313 -755 q 1305 -736 1313 -747 l 1286 -739 l 1275 -739 q 1245 -712 1261 -733 l 1251 -707 q 1270 -723 1261 -723 l 1272 -720 l 1272 -718 q 1253 -701 1272 -701 q 1229 -677 1253 -677 l 1196 -680 l 1172 -671 l 1164 -680 m 1210 -769 l 1210 -774 q 1218 -780 1210 -780 q 1234 -766 1230 -777 l 1234 -764 l 1210 -769 m 1299 -802 l 1299 -804 l 1308 -812 l 1313 -812 l 1313 -810 q 1299 -802 1313 -804 m 1286 -807 l 1286 -812 l 1294 -812 l 1294 -807 l 1286 -807 m 1337 -815 l 1340 -818 l 1343 -818 l 1348 -810 l 1348 -807 l 1345 -807 l 1337 -815 m 1272 -815 l 1270 -823 l 1272 -826 l 1275 -826 l 1280 -818 l 1280 -815 l 1272 -815 m 1340 -837 l 1337 -840 l 1337 -845 l 1340 -845 l 1345 -840 l 1343 -837 l 1340 -837 m 1389 -910 l 1389 -913 l 1392 -913 l 1397 -907 l 1397 -902 l 1389 -910 m 1459 -913 l 1459 -924 q 1468 -929 1459 -929 q 1481 -918 1480 -924 l 1481 -916 l 1470 -905 l 1459 -913 m 1411 -937 l 1411 -943 l 1419 -935 l 1419 -932 l 1416 -932 l 1411 -937 m 1478 -945 q 1516 -986 1478 -953 q 1533 -1019 1521 -1019 q 1560 -994 1552 -1019 q 1525 -978 1560 -978 l 1487 -940 l 1484 -940 l 1478 -945 m 1451 -956 l 1451 -964 l 1454 -964 l 1459 -959 l 1459 -956 l 1451 -956 m 1622 -983 l 1619 -997 l 1619 -1000 l 1625 -1000 l 1625 -983 l 1622 -983 m 1647 -1021 l 1649 -1024 l 1649 -1027 q 1663 -1013 1663 -1022 l 1660 -1005 l 1655 -1005 q 1647 -1021 1647 -1008 m 1769 -1076 l 1774 -1081 l 1774 -1076 l 1769 -1076 z "},"B":{"ha":782,"x_min":-892,"x_max":809,"o":"m -463 1272 q -162 1161 -270 1272 l -157 1145 l -157 1142 l -162 1137 l -165 1137 q -458 1234 -277 1234 q -778 1093 -650 1234 q -829 941 -829 1011 q -718 673 -829 800 q -623 602 -653 618 l -623 597 q -648 578 -647 583 l -642 572 l -640 572 q -629 586 -640 581 l -621 586 l -612 581 l -599 589 q -439 526 -533 553 l -439 524 l -444 513 l -436 505 l -436 502 q -420 521 -429 502 l -414 521 l -401 510 l -393 515 l -249 491 l -249 488 l -246 491 l -235 491 q -230 483 -230 491 l -216 486 l -208 486 l -203 480 l -208 461 l -195 461 q -189 469 -195 469 l -178 469 l -162 467 q -151 486 -155 467 l -146 486 q -132 480 -132 485 l -130 483 l -121 483 l -121 477 q -111 442 -119 442 l -97 461 l -97 467 l -100 469 l -100 472 l -97 475 l -94 472 l -56 472 l -51 477 l -54 480 l -51 483 l -32 483 l -21 480 l -5 486 l 20 486 l 14 502 q 33 510 24 510 l 36 510 q 50 491 36 499 l 58 499 l 58 518 l 79 518 l 79 594 l 85 600 l 93 597 l 96 600 l 96 602 q 79 627 96 614 l 79 922 q 6 971 79 958 l 3 982 q 55 998 26 998 l 71 998 q 128 977 109 998 q 185 1006 176 1006 q 261 963 197 1006 q 394 1004 333 1004 q 768 727 768 1004 q 654 526 768 606 q 595 502 608 502 l 595 499 q 752 418 669 494 q 809 277 809 352 q 749 100 809 168 l 749 106 l 752 114 l 749 117 l 747 117 l 635 95 q 592 106 611 95 l 597 122 l 597 127 l 589 130 l 562 122 l 559 125 l 559 127 q 587 184 570 138 l 595 182 q 611 198 603 182 l 592 209 q 606 255 592 237 q 597 263 606 263 l 595 266 l 595 277 q 492 448 595 384 l 459 453 l 334 453 l 337 464 q 329 477 334 477 l 323 472 l 323 458 l 329 458 l 329 453 l 296 453 l 296 410 l 283 396 l 283 393 l 291 385 l 294 388 l 296 385 l 296 214 l 280 217 l 280 225 l 291 228 l 288 244 q 242 201 242 233 q 267 179 249 179 l 283 179 l 286 195 l 288 195 l 294 190 l 291 174 l 294 165 l 267 127 l 272 127 l 291 130 q 299 100 296 124 l 291 95 l 288 95 q 242 122 283 104 l 237 127 l 234 127 q 204 109 234 115 l 201 111 l 201 114 q 234 141 228 129 l 234 149 q 220 155 234 155 l 218 157 l 218 163 l 234 179 l 234 193 l 220 195 q 210 163 210 188 l 207 160 l 201 160 q 177 182 177 160 l 182 225 l 180 228 l 169 228 l 166 225 l 163 225 q 153 260 155 232 q 144 274 144 267 l 139 274 l 136 271 l 134 263 l 131 263 q 158 231 137 231 l 158 225 l 155 206 l 166 195 l 155 168 q 101 217 101 193 l 96 212 l 98 182 l 96 179 l 93 179 q 79 190 81 184 l 79 241 q 96 252 79 247 l 101 260 l 101 263 q 79 296 101 277 l 79 372 l 82 372 l 93 366 q 104 382 104 369 q 93 399 98 399 l 79 399 l 79 415 l 66 415 l 68 412 l 68 407 l 60 399 l 52 399 q 28 412 39 399 l 41 429 l 36 434 l 31 434 q 22 418 22 431 l -7 418 q -37 426 -37 418 l -29 445 l -35 450 l -37 448 l -48 448 l -62 456 q -86 442 -86 450 l -78 431 l -89 423 l -92 439 l -105 431 l -111 431 q -143 456 -130 452 l -143 458 l -135 461 l -135 467 l -143 467 l -149 461 l -146 458 l -149 458 l -173 461 l -170 458 l -170 456 q -186 448 -170 450 l -186 450 l -192 456 l -195 439 l -189 439 l -186 442 l -184 442 l -181 439 l -181 437 l -186 418 q -168 399 -186 412 l -168 396 l -173 396 q -235 423 -215 407 l -238 423 q -271 410 -271 414 l -268 396 l -271 393 q -314 407 -298 393 l -319 407 l -325 401 q -360 418 -349 404 l -376 412 q -412 426 -386 412 l -420 423 q -599 488 -528 453 q -783 627 -675 522 q -892 925 -892 764 q -599 1253 -892 1162 q -463 1272 -527 1272 m 296 909 l 296 526 l 435 526 l 462 529 l 473 518 l 475 518 q 489 543 481 518 q 559 716 559 612 q 443 936 559 884 l 391 944 q 296 909 331 944 m 226 689 l 226 681 q 237 673 226 677 q 250 681 250 676 l 250 689 l 237 692 l 226 689 m 109 675 q 117 659 111 659 l 120 659 l 125 665 q 117 681 125 679 l 115 681 l 109 675 m -691 610 l -691 600 l -686 594 l -677 605 l -677 613 l -691 610 m -659 589 l -650 589 l -648 597 l -650 597 l -659 589 m 619 583 l 619 581 l 625 575 l 630 575 l 641 586 l 641 589 q 633 594 641 594 q 619 583 621 589 m 267 567 l 261 562 q 272 548 267 549 l 277 548 l 286 556 l 286 559 q 267 567 286 565 m -629 537 l -629 521 l -621 513 l -618 513 l -588 521 l -555 513 l -550 513 l -545 518 q -596 532 -545 525 q -618 548 -604 548 l -629 537 m -531 521 q -523 510 -527 510 q -512 526 -512 513 l -520 532 l -523 532 q -531 521 -530 532 m 389 507 l 391 505 l 397 505 q 413 518 413 505 l 410 521 l 408 521 q 389 507 393 521 m 128 515 q 120 502 128 502 l 112 505 l 112 502 l 109 491 l 128 486 l 139 486 l 144 491 l 139 491 l 139 496 l 150 496 l 150 502 q 128 515 143 515 m 188 502 q 196 480 196 502 l 193 477 l 193 475 l 196 464 q 201 475 201 464 l 204 477 l 220 477 l 220 483 q 199 513 220 497 l 188 502 m 424 494 l 427 491 l 437 491 l 448 502 l 446 505 l 446 507 q 424 494 424 500 m -547 494 l -547 486 l -542 486 l -542 494 l -547 494 m -330 486 l -325 472 q -341 461 -341 467 l -341 453 l -330 450 l -325 456 l -322 456 q -298 437 -298 456 l -292 437 q -279 453 -279 445 l -268 453 l -249 437 q -243 445 -249 445 q -197 420 -205 420 l -195 431 q -233 475 -214 440 l -241 480 l -260 477 l -268 486 q -281 475 -280 480 l -273 469 l -271 472 l -260 472 l -260 469 q -268 464 -260 464 q -306 494 -306 464 l -322 494 l -330 486 m 576 494 l 576 483 l 578 483 l 578 494 l 576 494 m -385 488 l -385 477 l -379 483 l -379 488 l -385 488 m -479 472 l -479 467 l -474 467 l -474 477 l -479 472 m 120 477 l 117 464 q 123 472 123 464 l 123 477 l 120 477 m -509 475 l -509 467 l -504 472 l -504 475 l -509 475 m -404 472 l -404 464 l -401 464 l -401 472 l -404 472 m -35 469 l -37 467 l -37 458 l -29 467 l -32 469 l -35 469 m 1 456 q 20 437 7 437 l 31 448 l 52 429 l 74 434 l 77 434 q 82 426 82 434 l 85 426 l 87 434 l 79 439 l 63 439 q 47 464 53 464 l 39 458 q 31 469 32 458 l 28 469 l 1 456 m -24 450 l -24 439 q -2 458 -2 441 l -5 467 l -7 467 l -24 450 m -366 464 l -368 461 l -368 458 l -355 456 l -355 461 l -366 464 m -357 450 l -357 445 l -352 445 l -357 450 m 272 448 l 272 445 l 277 445 l 277 448 l 272 448 m -355 437 l -357 434 l -357 426 l -352 426 l -349 434 l -352 437 l -355 437 m -13 434 l -13 429 l -7 429 l -13 434 m 1 429 l 1 426 l 6 426 l 6 434 l 1 429 m 229 423 q 237 385 234 416 l 239 385 q 250 407 243 407 l 253 407 l 264 404 q 272 415 272 404 l 275 415 q 239 434 275 427 q 229 423 229 431 m -295 429 l -298 426 l -298 420 l -295 407 l -287 407 l -287 412 q -295 429 -287 427 m -108 410 q -83 393 -83 408 l -64 391 l -64 382 l -75 380 l -92 388 l -108 382 q -135 388 -108 388 l -138 391 l -138 396 l -132 401 l -113 401 q -108 410 -113 410 m 120 385 l 120 374 l 131 363 l 136 380 l 136 382 q 128 388 136 388 l 120 385 m 47 388 l 68 385 l 68 380 l 31 380 l 31 385 l 47 388 m 74 388 l 85 388 l 85 382 l 74 382 l 74 388 m 169 372 l 172 347 l 163 339 l 163 323 q 185 307 174 307 q 207 328 192 307 l 218 320 l 229 320 l 242 334 l 242 336 q 226 347 237 347 l 207 339 l 204 339 q 196 347 204 347 l 180 363 l 180 377 l 174 377 l 169 372 m 652 372 l 644 347 l 646 347 l 660 339 l 663 339 q 676 350 675 345 l 676 353 l 657 372 l 652 372 m 760 363 l 760 361 q 777 345 760 345 l 779 347 l 779 350 q 768 369 779 365 l 766 369 l 760 363 m 728 355 q 749 345 728 348 l 755 353 l 747 361 l 733 361 l 728 355 m 258 353 l 272 350 l 277 350 l 277 353 l 272 358 l 264 358 l 258 353 m 592 328 q 616 307 592 311 q 627 312 627 307 q 616 347 625 347 l 611 347 q 592 328 592 347 m 85 323 l 85 309 l 93 301 l 104 301 l 104 304 q 93 323 104 319 l 85 323 m 134 309 l 134 307 l 139 307 l 139 309 l 134 309 m 210 309 l 210 304 l 207 304 q 220 282 214 282 l 223 285 l 223 304 l 218 309 l 210 309 m 234 309 l 234 304 l 239 304 l 239 309 l 234 309 m 104 293 l 104 290 l 109 285 q 117 290 109 290 l 120 293 l 120 301 l 112 301 l 104 293 m 117 288 l 115 285 l 115 282 l 120 277 l 128 277 l 134 282 l 117 288 m 269 277 q 277 260 272 260 l 286 260 l 286 274 l 277 282 l 275 282 l 269 277 m 641 255 l 641 252 q 654 228 646 228 q 673 247 673 228 l 673 255 q 654 277 673 277 q 641 255 641 270 m 204 263 l 180 263 l 177 250 q 188 228 180 229 l 199 228 q 218 236 209 236 l 231 236 q 253 252 231 252 l 264 252 q 253 271 253 264 l 250 271 l 204 263 m 106 266 l 104 255 l 106 247 l 112 247 l 115 258 l 112 266 l 106 266 m 703 250 q 717 225 713 225 l 720 225 q 736 250 729 229 q 725 263 730 262 q 703 250 703 256 m 125 225 l 125 222 q 134 206 128 206 l 136 206 l 136 212 l 139 212 q 128 225 134 224 l 125 225 m 660 214 l 660 209 l 665 203 l 671 203 l 671 206 l 668 214 l 660 214 m 142 195 l 142 190 l 150 198 l 150 201 l 147 201 l 142 195 m 646 174 q 671 155 654 155 l 673 155 q 690 179 690 164 q 668 190 681 179 l 657 190 q 646 174 652 190 m 264 168 l 258 149 l 258 146 l 261 149 l 269 149 l 272 146 l 275 146 l 277 149 q 267 168 271 168 l 264 168 m 619 117 l 622 114 l 625 114 q 644 146 625 127 l 635 152 l 633 152 q 619 117 625 152 m 646 106 l 649 106 l 654 111 l 654 117 l 646 106 m 747 98 l 747 95 q 692 49 721 65 l 676 52 q 665 35 665 52 q 641 24 651 24 q 635 38 635 24 l 625 52 l 611 52 l 611 54 q 682 84 623 73 l 692 95 l 695 95 l 741 92 l 747 98 m 503 76 l 503 73 l 497 57 q 535 24 497 29 l 543 5 l 519 11 q 511 0 515 0 l 424 0 q 380 19 404 19 l 370 14 q 348 49 368 29 l 345 57 q 353 73 348 73 l 435 73 q 478 49 464 49 q 503 76 478 76 m 375 62 l 367 41 l 367 35 q 386 24 372 24 q 402 41 394 24 q 375 62 402 54 m 589 52 q 611 24 611 43 q 570 5 611 5 l 570 8 q 584 24 574 20 l 592 24 l 595 22 l 597 22 l 600 33 l 581 43 l 581 46 q 589 52 581 52 m 1 49 l 3 46 l 3 43 q -13 35 1 35 l -13 41 q 1 49 -13 45 m 432 41 l 432 30 l 440 22 l 456 22 l 465 30 l 465 35 q 446 46 460 46 l 437 46 l 432 41 m 465 22 l 465 16 q 484 27 479 16 l 484 33 l 475 33 l 465 22 z "},"C":{"ha":907,"x_min":0,"x_max":925,"o":"m 524 1020 q 760 963 612 1020 l 787 960 q 822 990 807 960 l 833 993 l 879 993 l 887 985 l 887 751 q 917 711 911 751 l 917 703 q 860 667 917 667 l 857 667 q 757 806 819 667 q 548 936 677 936 l 510 936 q 369 849 404 936 q 326 534 326 738 l 347 534 q 396 510 372 534 q 353 486 396 500 q 328 439 328 463 q 366 228 328 342 q 298 206 343 206 l 296 203 l 296 193 q 312 171 296 173 l 358 206 l 372 209 q 442 117 404 149 q 556 79 492 79 l 556 73 l 532 71 l 499 73 q 467 46 467 59 l 469 27 q 437 16 460 20 l 434 14 q 163 212 269 63 q 76 434 92 327 q 5 499 32 499 l 0 507 l 0 510 q 49 534 20 534 l 73 534 l 73 540 q 282 947 73 766 q 524 1020 390 1020 m 236 703 l 236 697 l 244 705 l 244 708 l 241 708 l 236 703 m 296 586 l 298 583 l 304 583 l 309 594 l 309 602 l 307 602 q 296 586 296 597 m 269 543 l 266 534 q 279 524 269 524 l 285 532 l 285 534 q 269 543 282 543 m 176 377 q 198 358 176 361 q 217 399 212 358 l 214 401 l 203 401 q 176 377 176 398 m 879 353 q 925 282 925 353 q 887 174 925 237 q 871 146 872 174 q 681 16 811 60 q 600 3 625 3 l 600 5 q 632 27 600 10 l 646 24 l 648 27 l 648 35 l 643 41 l 621 41 l 621 52 l 624 54 l 624 57 l 613 60 l 572 57 l 570 60 l 570 68 q 591 73 570 73 q 624 81 591 81 q 730 117 677 92 l 730 114 l 727 111 q 743 100 730 100 q 773 122 773 112 l 773 133 l 768 133 l 749 130 q 830 296 830 199 q 879 353 844 353 m 290 244 l 290 241 l 296 241 l 296 244 l 290 244 m 827 217 q 838 203 833 205 q 849 225 849 215 l 849 231 l 844 231 l 844 233 q 827 217 827 229 m 293 225 l 293 220 l 298 220 l 298 225 l 293 225 m 854 146 l 854 144 l 860 144 l 860 146 l 854 146 m 616 46 l 618 43 l 618 38 q 559 3 584 3 l 526 11 q 510 0 510 5 l 491 3 l 483 3 l 483 8 q 570 41 495 8 l 616 46 z "},"D":{"ha":930,"x_min":-25,"x_max":970,"o":"m 203 1011 l 205 1011 q 279 970 214 1011 q 404 1003 347 1003 q 870 707 743 1003 q 905 523 905 604 l 924 523 q 970 498 949 523 l 970 496 q 924 471 970 491 q 892 382 899 443 q 786 159 871 269 l 778 154 l 775 154 l 759 170 l 751 170 q 664 113 691 113 l 650 119 q 626 102 650 108 l 621 86 l 610 86 l 610 83 q 618 78 618 83 l 612 70 l 623 67 l 626 70 l 631 70 q 653 62 631 62 q 702 97 668 62 l 715 97 l 715 94 q 634 40 694 73 q 618 24 634 24 l 615 21 l 615 -1 l 618 2 l 626 2 l 631 -3 l 629 -6 l 626 -6 l 629 -9 l 629 -14 q 615 -22 622 -14 l 626 -41 q 618 -58 623 -58 l 607 -58 l 607 -52 l 618 -52 l 618 -50 l 607 -50 l 604 -52 q 596 -41 600 -41 l 588 -55 q 604 -71 593 -71 l 604 -77 l 602 -77 l 599 -74 l 596 -74 q 588 -90 596 -81 l 588 -93 l 591 -93 l 615 -79 l 615 -77 l 612 -63 l 615 -60 l 618 -60 l 629 -68 l 629 -71 l 623 -79 l 631 -87 q 618 -98 626 -98 l 618 -106 l 626 -101 l 629 -101 l 640 -115 l 640 -117 l 629 -128 l 631 -131 l 631 -136 q 626 -150 626 -136 l 623 -153 l 626 -153 l 634 -150 l 634 -153 l 637 -163 l 637 -166 l 623 -158 l 615 -166 l 612 -163 l 612 -161 l 621 -139 l 615 -117 q 585 -153 585 -121 l 591 -158 l 593 -155 l 596 -155 l 602 -161 l 596 -166 l 583 -158 l 580 -172 l 580 -180 l 591 -172 l 591 -177 l 593 -177 q 602 -169 602 -177 l 604 -166 l 612 -166 l 623 -172 l 623 -177 q 610 -188 615 -177 l 610 -191 l 612 -201 l 610 -204 l 615 -231 l 612 -234 l 610 -234 l 612 -237 q 602 -277 607 -277 l 599 -275 l 604 -245 l 602 -237 l 604 -229 q 596 -215 600 -229 l 602 -204 l 599 -201 l 599 -199 l 604 -185 l 602 -185 l 591 -188 l 591 -191 l 593 -204 l 591 -207 l 588 -207 l 585 -204 l 585 -201 l 588 -199 l 585 -191 l 583 -191 q 577 -212 583 -212 l 583 -226 l 580 -223 l 577 -223 l 574 -226 l 574 -256 l 561 -288 l 561 -291 l 569 -332 q 555 -351 569 -351 l 555 -348 l 553 -351 l 550 -351 q 542 -334 545 -351 l 545 -323 l 542 -304 q 555 -275 555 -284 l 550 -275 l 547 -277 l 545 -277 l 545 -275 q 558 -269 545 -269 l 561 -248 l 555 -234 l 558 -234 q 564 -220 564 -234 l 564 -215 l 561 -218 l 555 -218 l 555 -215 l 561 -204 l 558 -193 l 566 -177 l 566 -174 l 561 -174 l 561 -172 l 566 -163 l 566 -158 l 561 -150 l 561 -142 q 569 -123 569 -142 l 569 -120 l 564 -115 l 558 -120 l 555 -117 l 555 -115 l 561 -109 l 564 -112 l 566 -112 l 569 -109 l 569 -96 l 566 -96 q 555 -106 566 -106 l 545 -134 q 555 -139 555 -134 l 550 -144 l 547 -144 l 545 -142 l 542 -142 l 539 -172 q 547 -177 547 -172 l 545 -185 l 547 -182 l 550 -182 l 555 -188 l 534 -201 q 528 -215 534 -215 l 523 -210 l 528 -201 l 526 -188 l 526 -182 l 531 -174 l 531 -172 l 523 -172 q 507 -204 523 -179 l 504 -201 l 501 -201 l 493 -210 l 496 -218 l 485 -220 l 485 -223 l 488 -226 l 488 -229 l 479 -237 l 479 -250 l 482 -267 l 471 -291 l 474 -294 l 474 -299 l 471 -302 l 471 -304 l 477 -310 l 474 -313 l 471 -313 l 469 -310 l 460 -340 l 463 -351 l 455 -356 l 444 -356 l 444 -337 q 452 -332 444 -332 l 455 -329 l 455 -326 l 450 -326 l 450 -321 q 463 -291 463 -321 l 458 -291 q 439 -348 439 -322 l 439 -367 l 447 -361 l 452 -367 l 452 -370 l 447 -370 l 450 -383 l 447 -386 l 444 -386 l 436 -380 l 431 -408 l 433 -410 l 433 -413 l 431 -421 l 433 -424 l 431 -437 l 431 -448 l 433 -451 l 431 -454 l 431 -467 l 433 -486 l 431 -511 l 431 -535 l 436 -541 l 436 -538 l 433 -530 l 441 -524 l 444 -524 q 450 -532 450 -524 l 433 -557 l 436 -559 l 436 -562 q 425 -597 425 -583 l 428 -616 q 414 -660 420 -660 l 412 -660 l 412 -654 l 409 -654 l 406 -663 l 409 -671 q 404 -687 407 -687 l 406 -695 l 398 -749 l 412 -766 l 417 -760 l 420 -763 l 420 -777 q 404 -795 408 -795 l 401 -795 q 387 -763 393 -795 l 390 -739 l 385 -720 l 387 -703 l 385 -695 q 390 -687 390 -695 q 371 -652 382 -666 q 387 -627 376 -652 l 393 -627 l 393 -633 l 398 -633 q 417 -614 398 -621 l 414 -611 l 414 -608 l 420 -576 q 412 -524 417 -524 l 414 -522 l 414 -511 q 406 -484 414 -497 l 409 -467 l 409 -462 l 404 -462 l 412 -435 l 401 -410 q 425 -370 401 -387 l 425 -367 l 417 -367 l 417 -364 l 420 -361 l 420 -359 l 422 -361 l 428 -361 l 433 -326 l 431 -315 l 425 -315 l 428 -318 l 428 -321 l 422 -326 l 414 -323 l 414 -332 l 412 -332 l 406 -326 l 409 -323 l 406 -321 l 406 -318 q 412 -299 412 -312 l 417 -304 l 414 -307 l 417 -318 l 420 -318 q 428 -307 420 -307 l 428 -277 l 441 -267 l 447 -267 l 455 -272 l 463 -272 q 471 -250 463 -257 l 471 -248 q 441 -229 462 -233 l 441 -223 l 452 -182 l 447 -182 q 439 -196 445 -196 l 431 -188 l 433 -185 l 433 -182 q 412 -174 432 -174 l 414 -172 l 414 -169 l 404 -166 q 393 -185 397 -185 l 390 -185 l 390 -180 l 393 -177 l 390 -174 l 390 -166 l 398 -158 q 422 -169 422 -161 l 425 -169 q 431 -158 425 -158 q 436 -172 436 -158 l 439 -174 l 441 -174 l 447 -158 l 431 -147 q 444 -139 444 -147 l 441 -136 l 441 -134 q 455 -123 443 -126 l 463 -125 l 455 -112 l 460 -96 l 458 -93 l 455 -93 l 455 -98 l 450 -98 l 452 -85 q 447 -77 447 -85 q 436 -109 439 -77 q 447 -115 447 -109 l 441 -120 l 433 -115 l 431 -134 l 433 -144 q 425 -155 427 -144 l 409 -142 q 420 -136 409 -136 l 422 -125 l 414 -123 l 406 -131 q 398 -117 400 -131 l 409 -112 l 406 -98 l 404 -98 q 398 -109 404 -109 q 393 -90 398 -90 l 390 -90 q 385 -109 390 -103 l 385 -120 l 395 -120 l 395 -125 q 382 -131 395 -131 l 382 -136 q 390 -142 390 -136 l 387 -144 l 382 -144 q 376 -136 376 -144 q 357 -204 366 -136 l 360 -212 l 355 -212 l 355 -218 l 357 -231 l 352 -237 l 355 -256 q 344 -267 346 -258 l 347 -269 l 344 -272 l 341 -272 l 336 -264 q 357 -136 357 -193 l 349 -115 q 357 -96 355 -115 l 382 -104 l 390 -74 l 390 -71 l 387 -71 l 387 -77 l 385 -77 q 374 -68 374 -73 l 385 -47 q 376 -33 381 -33 q 385 -22 380 -22 l 390 -28 l 385 -36 l 395 -39 q 404 -14 404 -28 l 404 5 l 401 2 l 398 2 l 382 5 l 387 -3 l 366 -14 l 363 -12 l 363 -6 l 371 5 l 357 5 l 349 -22 l 352 -22 q 360 -28 360 -22 l 357 -41 l 360 -50 q 355 -60 355 -50 l 352 -63 l 344 -63 l 344 -58 l 349 -50 l 349 -47 l 347 -50 l 341 -50 q 333 -33 333 -47 q 349 -1 344 -33 l 349 2 l 347 2 q 336 -17 347 -10 l 328 -9 l 328 -14 l 330 -22 l 322 -25 q 314 -12 314 -25 q 306 -6 306 -12 l 303 -6 l 303 -12 l 322 -36 q 295 -55 312 -39 l 287 -50 l 276 -60 l 279 -60 l 290 -58 q 295 -66 290 -66 l 298 -55 l 306 -55 l 311 -60 l 311 -74 l 298 -77 l 284 -77 l 281 -93 l 290 -98 l 292 -98 l 292 -93 l 298 -93 l 292 -115 l 309 -125 l 309 -136 q 300 -142 309 -142 l 303 -144 l 303 -147 q 290 -153 303 -153 l 284 -172 l 290 -172 q 300 -182 290 -182 l 306 -196 q 290 -239 298 -196 l 287 -242 l 284 -242 l 281 -239 l 279 -239 l 271 -261 q 281 -288 278 -288 l 279 -315 l 279 -337 q 292 -318 283 -337 l 303 -318 l 314 -329 l 314 -332 q 295 -345 310 -345 q 279 -359 295 -350 q 260 -427 271 -427 l 262 -446 l 260 -446 l 262 -448 l 262 -451 l 260 -454 l 260 -456 l 265 -470 l 295 -467 l 295 -473 q 265 -489 283 -489 l 265 -516 l 268 -516 l 271 -513 l 273 -513 l 276 -516 l 276 -519 l 273 -522 l 271 -522 l 268 -519 l 265 -519 l 265 -522 q 273 -527 265 -527 l 273 -530 q 265 -535 273 -535 l 268 -557 l 273 -551 l 271 -549 l 273 -549 l 284 -551 l 284 -549 l 279 -541 l 279 -532 l 287 -524 l 292 -524 l 295 -527 l 298 -527 q 309 -511 298 -516 l 314 -511 q 319 -519 319 -511 l 333 -508 l 338 -519 l 347 -516 l 344 -513 l 344 -508 l 352 -500 l 349 -497 l 349 -492 l 355 -486 l 360 -492 l 360 -494 l 355 -500 l 357 -503 l 357 -508 l 352 -513 q 371 -535 357 -530 l 374 -535 l 374 -532 l 371 -524 l 379 -519 l 385 -519 l 393 -527 l 390 -530 l 395 -546 l 395 -551 q 379 -603 379 -592 l 382 -616 l 374 -619 l 374 -635 l 368 -641 l 363 -635 l 363 -633 q 371 -611 371 -621 l 366 -611 l 357 -616 l 355 -608 l 344 -608 l 347 -622 l 338 -644 l 341 -660 q 328 -690 328 -673 l 330 -728 l 333 -728 q 344 -709 337 -709 l 347 -709 q 355 -722 353 -709 q 341 -771 349 -771 l 338 -768 l 338 -763 l 344 -755 l 344 -744 l 338 -733 l 330 -733 l 336 -782 l 333 -785 l 333 -787 l 338 -817 l 341 -814 l 344 -814 l 347 -817 l 347 -833 q 338 -839 347 -839 l 344 -871 l 344 -885 l 341 -888 l 347 -918 l 344 -920 l 344 -923 l 347 -939 l 347 -942 l 336 -953 l 330 -953 q 319 -926 324 -953 l 322 -909 l 319 -890 l 322 -871 l 309 -749 l 311 -749 l 306 -725 l 309 -725 l 306 -722 l 306 -720 l 309 -709 l 300 -687 l 314 -660 l 317 -649 q 306 -644 306 -649 l 306 -633 q 319 -627 306 -627 l 319 -625 q 292 -611 319 -621 q 268 -592 292 -592 l 271 -606 l 265 -611 l 268 -625 l 260 -638 l 271 -660 q 265 -673 271 -673 q 279 -692 267 -682 l 273 -703 q 281 -709 281 -703 l 281 -714 l 271 -725 l 268 -725 l 265 -714 l 262 -714 l 254 -739 l 257 -749 l 271 -747 l 276 -760 l 254 -787 l 254 -844 l 252 -885 l 257 -934 l 254 -945 l 257 -958 l 238 -969 l 233 -969 l 233 -945 l 230 -931 l 233 -915 l 227 -861 l 227 -809 l 230 -806 l 222 -771 q 238 -758 227 -758 l 235 -744 q 181 -825 181 -809 l 178 -825 l 176 -823 l 176 -809 q 192 -779 176 -800 l 205 -747 l 216 -744 l 219 -747 q 230 -728 219 -728 l 238 -730 l 235 -711 l 224 -720 l 219 -720 l 219 -714 q 230 -709 219 -709 l 227 -706 l 227 -695 l 233 -690 l 230 -687 l 230 -684 l 233 -641 l 241 -627 l 238 -619 l 243 -570 q 233 -522 241 -522 l 233 -516 q 241 -508 241 -516 l 238 -494 l 235 -497 l 233 -497 l 214 -492 l 184 -494 l 184 -492 l 195 -481 l 208 -484 l 219 -484 l 233 -475 l 233 -473 q 219 -459 225 -473 l 224 -454 l 233 -459 l 235 -459 l 235 -435 q 246 -416 235 -420 l 241 -405 q 254 -380 248 -380 q 249 -315 249 -356 l 238 -291 q 252 -283 238 -283 q 230 -242 252 -259 l 222 -248 q 192 -182 192 -224 l 195 -163 l 184 -155 l 184 -150 q 195 -144 184 -144 l 195 -142 q 186 -136 186 -142 q 192 -123 192 -136 l 200 -115 l 197 -106 l 200 -104 l 192 -96 l 197 -87 l 197 -85 l 189 -87 l 189 -101 q 181 -106 189 -106 l 181 -112 l 189 -123 l 186 -125 l 181 -125 l 168 -123 l 159 -144 l 159 -150 l 162 -153 l 162 -155 l 154 -161 l 151 -158 l 151 -155 l 157 -131 l 154 -131 l 157 -128 l 157 -115 q 149 -109 149 -115 q 165 -85 149 -85 l 157 -74 l 157 -68 l 162 -63 l 165 -63 q 173 -77 171 -63 l 168 -82 q 181 -93 181 -82 l 184 -93 l 192 -77 l 192 -58 l 189 -60 l 186 -60 l 181 -52 l 178 -55 l 176 -55 l 168 -47 l 173 -39 l 159 -33 l 146 -41 l 143 -39 q 130 -55 143 -45 l 132 -58 l 130 -60 l 127 -60 l 121 -55 q 130 -41 127 -55 l 127 -39 l 130 -36 l 121 -33 l 121 -31 q 132 -25 132 -31 l 113 -17 l 130 5 l 121 5 l 108 -14 l 111 -17 l 108 -20 l 102 -20 l 108 5 l 105 5 l 97 -1 l 94 2 l 92 2 q 86 -6 92 -6 l 81 -1 l 83 2 l 83 5 l 48 5 l 40 -1 l 32 5 l 2 5 q -6 54 -6 5 l -3 67 l -9 73 l -9 75 l -1 75 l -1 70 q 81 92 81 81 l 78 100 q 89 119 85 100 l 83 119 l 83 124 l 89 124 l 89 149 l 86 146 l 81 146 l 73 154 q 89 159 73 159 l 89 414 q 54 477 89 452 q 78 507 54 507 q 127 517 106 517 l 132 517 l 140 512 l 157 531 q 165 555 165 541 q 146 566 161 566 q 100 539 134 566 l 92 539 l 89 542 l 89 932 q 21 976 89 962 l 18 979 l 18 987 q 78 1006 24 1002 q 149 981 116 1006 q 203 1011 190 1011 m 306 895 l 306 523 l 328 523 q 376 498 351 523 q 333 471 376 491 l 303 436 q 287 409 287 436 l 290 406 l 295 406 l 303 412 l 306 412 l 306 290 l 311 281 l 306 276 l 306 181 q 322 170 306 176 l 322 168 l 319 165 l 325 165 l 325 159 l 311 162 l 306 154 l 306 124 q 317 119 317 124 l 306 116 q 325 108 306 111 l 328 94 l 319 86 l 319 81 l 328 86 l 330 78 l 347 86 l 349 83 l 355 94 l 357 92 l 360 92 l 357 89 l 357 81 l 360 83 l 366 83 l 360 75 l 401 75 l 401 78 l 398 89 l 401 100 l 404 97 l 406 97 l 414 102 l 417 102 l 417 100 l 414 97 l 414 94 l 422 94 l 420 97 l 420 100 l 422 102 l 425 102 l 433 100 l 436 100 l 436 102 q 428 108 428 102 l 425 105 l 422 105 l 412 113 l 420 124 l 428 111 l 431 111 l 433 113 l 436 113 l 439 111 l 439 92 l 444 92 l 447 102 l 441 119 l 460 124 l 463 105 q 447 75 453 105 l 450 75 l 466 89 l 469 89 q 474 78 474 89 l 479 78 l 479 75 q 528 89 517 81 l 531 86 l 534 86 q 602 143 562 91 l 604 151 l 602 154 l 602 159 l 604 162 l 604 165 l 599 170 l 602 173 l 604 173 l 610 162 q 656 347 637 189 l 661 417 q 593 490 661 467 l 591 493 l 591 498 q 645 523 609 523 l 661 523 l 661 534 q 536 900 661 814 q 398 930 494 930 q 306 895 340 930 m 192 664 l 192 661 l 197 661 l 197 664 l 192 664 m 737 577 l 743 572 q 783 604 760 572 l 783 615 l 781 615 q 737 577 737 600 m 211 583 l 211 580 l 222 569 l 222 572 q 214 583 218 583 l 211 583 m 772 417 q 740 387 740 394 l 740 382 l 748 374 q 786 404 757 374 l 786 409 q 772 417 786 413 m 287 376 l 284 374 l 287 363 l 295 363 l 295 368 l 287 376 m 233 344 l 235 341 l 241 341 q 254 363 254 348 l 254 366 l 246 366 q 233 344 233 358 m 268 325 l 268 314 l 271 314 l 281 328 l 276 333 l 268 325 m 447 246 l 450 243 l 450 241 l 441 241 l 447 246 m 404 243 l 409 243 l 409 238 l 404 238 l 404 243 m 479 243 l 482 241 l 482 238 l 479 235 l 477 235 l 474 238 l 474 241 l 477 243 l 479 243 m 319 241 l 328 241 l 322 235 l 319 238 l 319 241 m 458 230 l 460 227 l 460 224 l 458 222 l 455 222 l 452 224 l 452 227 l 455 230 l 458 230 m 558 230 l 564 230 l 564 224 l 558 224 l 558 230 m 577 227 l 583 222 l 583 219 l 577 219 l 572 224 l 574 227 l 577 227 m 100 203 l 102 195 q 121 214 121 195 l 121 216 l 116 222 q 100 203 100 214 m 621 224 l 626 224 l 626 222 l 621 222 l 621 224 m 596 222 l 599 222 l 599 216 l 596 216 l 596 222 m 509 219 l 515 219 l 520 214 l 520 208 l 515 203 l 512 203 l 509 216 l 509 219 m 70 216 l 73 214 l 73 211 l 70 208 l 67 208 l 64 211 l 64 214 l 67 216 l 70 216 m 466 216 q 471 205 471 216 l 474 208 l 477 208 l 485 200 l 474 189 l 477 186 l 477 181 l 471 176 l 466 181 l 471 192 l 469 203 l 466 200 l 463 200 l 458 205 l 458 208 l 466 216 m 786 211 l 781 200 l 783 200 l 791 208 l 789 211 l 786 211 m 580 208 l 583 205 l 583 203 l 580 200 l 574 200 l 574 203 l 580 208 m 54 203 l 59 197 l 59 195 l 54 195 l 48 200 l 51 203 l 54 203 m 24 200 l 26 200 l 26 195 l 24 195 l 24 200 m 363 200 q 368 186 368 200 l 371 184 l 374 184 l 371 165 l 368 165 l 366 168 l 363 168 l 360 149 l 363 146 l 363 143 l 360 140 l 357 140 l 352 149 l 357 170 l 355 184 l 357 186 l 357 189 l 355 197 l 357 200 l 363 200 m 450 200 l 455 200 l 455 197 l 450 197 l 450 200 m 325 189 l 330 184 l 325 178 l 319 178 l 319 184 l 325 189 m 488 189 l 490 186 l 490 184 l 488 181 l 485 181 l 482 184 l 482 186 l 485 189 l 488 189 m 618 189 l 618 181 l 615 181 l 610 186 l 612 189 l 618 189 m 398 186 l 404 186 l 404 184 l 398 184 l 398 186 m 420 186 q 436 176 420 179 l 436 173 q 422 154 427 170 l 417 154 l 420 173 l 414 181 l 420 186 m 498 176 l 507 168 q 496 151 502 168 l 493 151 l 488 159 q 493 173 493 159 l 496 176 l 498 176 m 404 173 l 412 162 l 401 151 l 404 143 l 401 140 l 398 140 l 395 143 l 390 132 l 395 121 l 393 113 l 398 108 q 387 102 398 102 l 387 92 l 385 92 l 376 100 l 376 102 l 379 116 l 376 119 l 374 119 q 395 146 384 146 l 395 154 l 393 151 l 385 151 l 385 154 l 387 168 l 390 168 l 393 165 l 395 165 l 404 173 m 347 168 l 352 168 l 352 162 l 347 162 l 347 168 m 580 168 l 585 168 l 591 162 l 591 159 l 585 154 q 577 135 582 154 l 572 135 q 580 168 574 168 m 531 162 l 536 162 l 536 157 l 531 157 l 531 162 m 48 157 l 51 157 l 56 151 l 51 146 l 48 149 l 48 157 m 344 154 l 349 149 l 341 146 l 344 143 l 344 140 l 341 138 l 336 138 l 330 143 l 344 154 m 371 154 l 376 149 l 374 146 l 371 146 l 366 151 l 368 154 l 371 154 m 482 149 l 488 143 l 482 138 l 477 143 l 482 149 m 64 146 l 67 143 l 67 140 l 62 135 l 59 135 l 59 140 l 64 146 m 417 146 l 417 138 l 414 138 l 409 143 l 412 146 l 417 146 m 455 146 l 460 138 l 458 135 l 455 135 l 450 143 l 452 146 l 455 146 m 493 146 l 501 146 l 501 140 l 493 140 l 493 146 m 322 143 l 328 138 l 319 127 l 314 132 l 317 135 l 317 138 l 314 140 l 317 143 l 322 143 m 528 143 l 534 143 l 534 140 l 528 135 l 528 143 m -1 140 l 2 138 l 2 135 l -1 132 l -3 132 l -6 135 l -6 138 l -3 140 l -1 140 m 512 140 l 523 132 l 523 130 l 509 130 l 509 135 l 512 138 l 512 140 m 759 138 l 762 135 l 762 132 l 726 102 l 724 102 l 721 119 l 759 138 m 412 135 l 417 130 l 414 127 l 412 127 l 406 132 l 409 135 l 412 135 m 466 135 l 471 135 l 471 130 l 466 130 l 466 135 m 485 135 l 493 127 l 488 121 l 485 111 l 482 108 l 477 108 q 485 135 478 135 m 43 130 l 51 130 l 51 121 l 48 121 l 43 127 l 43 130 m 574 130 l 580 124 l 574 119 l 569 124 l 574 130 m 404 124 l 409 124 l 409 119 l 404 113 l 401 113 l 401 116 l 404 124 m 360 121 l 363 121 l 363 116 l 360 116 l 360 121 m 54 119 l 56 119 l 64 108 l 56 105 l 48 108 l 48 113 l 54 119 m 330 119 l 338 119 l 338 113 l 330 113 l 330 119 m -9 113 l -6 111 l -6 108 l -9 105 l -12 105 l -14 108 l -14 111 l -12 113 l -9 113 m 349 113 l 355 113 l 357 111 l 360 113 l 368 113 l 368 108 l 357 97 l 352 97 l 352 100 l 355 102 l 355 105 l 349 105 l 349 113 m 507 111 q 515 100 508 100 l 515 94 l 509 89 l 504 94 l 507 97 l 507 100 l 501 105 l 507 111 m 520 111 l 523 108 l 523 105 l 517 100 l 515 100 l 515 105 l 520 111 m 24 105 q 40 94 40 98 l 37 92 l 29 92 q 21 102 25 92 l 24 105 m 463 105 l 466 105 l 471 100 l 471 97 l 469 97 l 463 102 l 463 105 m 490 102 l 496 97 l 496 94 l 490 94 l 490 102 m 146 97 l 146 92 l 151 92 l 151 97 l 146 97 m -3 92 l 2 92 l 2 89 l -3 89 l -3 92 m 488 89 l 488 81 l 482 86 l 485 89 l 488 89 m 18 86 l 21 86 l 26 81 l 24 78 l 18 78 l 18 86 m 553 51 l 553 45 l 558 45 l 558 40 q 542 29 547 40 l 547 24 l 545 16 l 547 13 l 523 -3 l 517 2 q 534 26 522 3 l 526 35 l 517 32 l 517 40 l 504 40 l 496 32 l 496 24 l 501 24 l 498 26 l 498 29 l 501 32 l 504 32 l 507 29 l 507 26 l 509 29 l 515 29 q 523 16 519 29 l 512 -6 l 517 -6 l 531 -3 q 536 -14 531 -14 l 536 -9 l 534 -1 l 536 2 l 539 -1 l 545 -1 l 545 10 l 547 10 l 555 5 q 577 32 555 11 l 574 35 l 574 37 q 585 51 585 37 l 588 51 l 585 54 l 585 59 q 604 73 604 66 l 602 75 l 599 75 q 553 51 572 51 m 531 54 l 523 43 l 526 40 l 526 37 l 536 40 l 536 48 l 531 54 m -14 54 l -12 51 l -12 48 l -14 45 l -17 45 l -20 48 l -20 51 l -17 54 l -14 54 m -14 37 l -12 35 l -12 32 l -14 29 l -17 29 l -20 32 l -20 35 l -17 37 l -14 37 m 558 29 l 561 26 l 561 21 l 558 21 l 553 26 l 555 29 l 558 29 m 32 16 l 43 10 l 43 24 q 32 16 32 20 m 661 26 l 664 24 l 664 21 l 661 18 l 659 18 l 656 21 l 656 24 l 659 26 l 661 26 m 485 16 l 485 5 l 493 2 l 493 7 l 496 7 l 493 16 l 485 16 m 585 16 l 580 10 l 580 7 l 593 5 l 593 13 l 585 16 m 127 13 l 132 7 l 132 13 l 127 13 m 626 10 l 631 10 l 631 7 l 626 7 l 626 10 m 309 5 l 309 -6 l 319 2 l 322 -1 l 325 -1 l 325 5 l 309 5 m 330 -1 l 330 -6 l 336 -1 l 336 5 l 330 -1 m 412 5 l 412 -17 q 420 -22 420 -17 l 422 -20 l 425 -20 l 428 -22 l 431 -22 l 436 5 l 425 -3 l 420 2 l 422 5 l 412 5 m 444 5 l 444 -3 l 450 -3 l 450 5 l 444 5 m 130 -3 l 135 -12 l 138 -9 l 140 -9 l 151 -12 l 151 -14 l 149 -17 l 149 -20 q 154 -31 154 -20 l 157 -31 l 157 -20 q 138 -1 150 -1 l 130 -3 m 585 -1 q 574 -9 585 -9 l 572 -12 l 572 -20 q 588 -28 579 -20 l 591 -25 l 591 -20 l 588 -6 l 591 -3 l 588 -1 l 585 -1 m -22 -1 l -17 -1 l -17 -6 l -22 -6 l -22 -1 m 62 -1 l 64 -1 l 70 -6 q 64 -17 64 -6 l 62 -17 l 56 -12 l 56 -6 l 62 -1 m 452 -3 q 460 -20 455 -20 l 460 -17 l 458 -3 l 452 -3 m 558 -3 l 558 -9 l 564 -9 l 564 -3 l 558 -3 m 599 -20 l 599 -22 l 604 -22 l 607 -25 l 612 -20 l 607 -6 l 610 -3 l 607 -3 q 599 -20 599 -6 m 376 -9 l 379 -9 q 395 -17 395 -12 l 395 -20 l 393 -20 q 376 -12 378 -20 l 376 -9 m 477 -12 l 477 -17 l 488 -17 l 488 -12 l 477 -12 m 21 -12 l 21 -20 l 16 -14 l 18 -12 l 21 -12 m 78 -12 l 83 -12 l 83 -14 l 78 -14 l 78 -12 m 135 -14 l 135 -20 l 138 -20 l 138 -14 l 135 -14 m 490 -14 l 490 -22 l 496 -22 l 496 -14 l 490 -14 m 64 -17 l 70 -17 l 70 -25 l 64 -20 l 64 -17 m 602 -17 l 607 -17 l 607 -20 l 602 -20 l 602 -17 m 648 -17 l 653 -17 l 653 -22 l 648 -22 l 648 -17 m 276 -22 l 276 -28 l 281 -28 l 281 -22 l 276 -22 m 471 -22 l 469 -36 l 477 -36 l 474 -22 l 471 -22 m 92 -22 l 94 -25 l 94 -28 l 92 -31 l 89 -31 l 86 -28 l 86 -25 l 89 -22 l 92 -22 m 284 -25 l 290 -31 l 292 -31 l 287 -25 l 284 -25 m 455 -25 l 458 -28 l 458 -33 l 452 -33 l 455 -47 q 463 -28 461 -47 l 460 -25 l 455 -25 m 536 -25 l 536 -31 l 534 -31 l 531 -28 l 528 -28 l 528 -33 q 539 -44 539 -33 l 550 -33 l 550 -31 l 545 -25 l 536 -25 m 637 -22 l 640 -25 l 640 -31 l 634 -36 l 631 -33 l 631 -28 l 637 -22 m -25 -25 l -20 -25 l -20 -28 l -25 -28 l -25 -25 m 303 -28 l 303 -33 l 311 -33 l 311 -28 l 303 -28 m 409 -28 l 409 -31 q 422 -39 422 -33 l 417 -47 l 422 -55 l 417 -60 l 414 -52 l 401 -55 l 401 -58 q 422 -82 413 -58 l 433 -85 l 433 -71 l 431 -74 l 428 -74 l 425 -71 l 422 -71 l 428 -63 l 425 -60 l 425 -58 l 431 -52 l 428 -50 l 428 -47 l 436 -39 l 433 -31 l 420 -33 l 420 -28 l 409 -28 m 504 -28 l 501 -41 l 501 -47 l 507 -41 l 507 -28 l 504 -28 m 48 -28 l 48 -33 l 43 -33 l 48 -28 m 73 -28 l 78 -28 l 78 -36 l 73 -31 l 73 -28 m 102 -28 l 105 -28 l 113 -36 l 108 -41 l 105 -41 l 97 -33 l 102 -28 m 347 -31 l 344 -33 l 347 -41 l 349 -41 l 355 -36 l 347 -31 m 18 -31 l 21 -31 l 26 -36 l 24 -39 l 21 -39 l 18 -36 l 18 -31 m 366 -31 l 368 -31 l 368 -36 l 366 -36 l 366 -31 m 520 -36 l 520 -41 l 526 -55 l 523 -74 l 528 -79 l 526 -90 l 528 -93 l 528 -96 q 517 -109 528 -109 l 515 -120 l 528 -115 l 531 -117 l 531 -123 l 526 -131 l 526 -134 l 536 -128 l 534 -109 l 534 -101 q 542 -96 534 -96 l 539 -93 l 539 -87 l 547 -85 l 545 -63 l 547 -63 l 545 -55 l 542 -55 q 534 -66 542 -66 l 531 -63 l 531 -52 l 534 -50 l 534 -47 q 523 -36 523 -47 l 520 -36 m 447 -41 l 447 -47 l 452 -41 l 447 -41 m 656 -39 l 661 -39 l 661 -41 l 656 -41 l 656 -39 m 116 -41 l 121 -41 l 121 -44 l 116 -44 l 116 -41 m 108 -44 l 113 -50 l 113 -55 l 111 -55 l 102 -47 l 105 -44 l 108 -44 m -3 -47 l 5 -47 l -1 -52 l -3 -52 l -3 -47 m 366 -47 l 371 -47 l 371 -50 l 366 -50 l 366 -47 m 29 -52 l 35 -52 l 35 -55 l 29 -55 l 29 -52 m 441 -55 l 441 -68 l 447 -68 l 450 -58 l 441 -55 m 471 -55 l 471 -60 l 479 -60 l 479 -55 l 471 -55 m 555 -60 l 564 -60 l 561 -63 l 561 -66 l 558 -63 l 553 -63 l 553 -71 l 558 -77 q 564 -68 558 -68 l 566 -68 l 566 -79 l 569 -79 l 569 -71 l 564 -55 l 561 -55 l 555 -60 m 314 -55 l 319 -55 l 319 -60 l 314 -60 l 314 -55 m 366 -55 l 371 -55 l 371 -60 l 366 -60 l 366 -55 m 385 -58 l 385 -60 l 390 -66 l 393 -66 l 390 -58 l 385 -58 m 593 -55 l 599 -55 l 599 -60 l 593 -55 m 56 -60 l 62 -60 l 62 -63 l 56 -63 l 56 -60 m 235 -63 l 235 -68 l 241 -68 l 241 -63 l 235 -63 m 238 -77 l 230 -74 l 230 -77 l 219 -106 l 230 -123 l 230 -134 l 222 -161 l 222 -166 l 224 -177 l 222 -185 l 227 -212 l 249 -204 l 252 -207 q 265 -193 265 -207 l 271 -188 l 265 -172 l 268 -169 l 268 -166 l 265 -158 l 262 -158 l 257 -180 l 262 -180 l 262 -182 l 243 -188 l 241 -185 l 241 -180 l 243 -177 l 238 -163 l 246 -134 q 235 -109 246 -121 l 235 -106 l 238 -93 l 230 -93 l 235 -87 l 238 -90 l 243 -85 q 249 -93 249 -85 l 254 -93 l 254 -85 l 249 -77 q 260 -68 249 -70 l 260 -66 l 254 -66 l 254 -63 q 246 -74 246 -63 l 238 -77 m 281 -63 l 281 -68 l 284 -68 l 284 -63 l 281 -63 m 482 -68 l 482 -74 l 488 -68 l 488 -63 l 482 -68 m 35 -63 l 40 -63 l 40 -66 l 35 -66 l 35 -63 m 178 -63 l 184 -77 l 181 -79 l 178 -79 l 173 -66 l 176 -63 l 178 -63 m 135 -66 l 138 -66 l 143 -71 l 140 -74 l 138 -74 l 135 -71 l 135 -66 m 512 -68 l 509 -82 l 512 -79 l 515 -79 l 515 -85 l 520 -85 l 515 -77 l 517 -74 l 517 -71 l 515 -68 l 512 -68 m 260 -71 l 257 -82 l 260 -85 l 265 -85 l 265 -71 l 260 -71 m 347 -68 l 352 -74 l 352 -79 l 347 -85 l 336 -85 l 333 -71 l 336 -74 l 338 -74 l 347 -68 m 24 -71 l 26 -71 l 32 -77 l 18 -82 l 16 -79 l 16 -77 l 24 -71 m 119 -74 l 127 -82 l 119 -87 l 113 -82 l 113 -79 l 119 -74 m 637 -74 l 642 -79 l 634 -85 l 631 -85 l 631 -79 l 637 -74 m 393 -85 l 395 -85 l 401 -79 l 398 -79 l 393 -85 m 54 -79 l 56 -79 l 56 -85 l 54 -85 l 54 -79 m 83 -79 l 86 -82 l 86 -85 l 81 -90 l 78 -87 l 78 -85 l 83 -79 m 138 -79 l 140 -79 l 146 -85 l 143 -87 l 140 -87 l 138 -85 l 138 -79 m 368 -79 l 368 -82 l 363 -87 l 360 -85 l 360 -82 l 363 -79 l 368 -79 m 409 -82 l 406 -85 l 406 -90 l 409 -90 l 414 -85 l 412 -82 l 409 -82 m 102 -82 l 105 -85 l 105 -87 l 100 -93 l 97 -90 l 97 -87 l 102 -82 m 509 -85 l 509 -87 l 515 -93 l 515 -90 l 509 -85 m 322 -85 l 325 -85 l 330 -90 l 328 -98 l 333 -104 l 319 -109 l 322 -112 l 322 -117 l 319 -117 l 314 -112 l 317 -109 l 317 -106 l 314 -90 l 322 -85 m 417 -87 l 420 -101 l 422 -101 l 431 -93 l 417 -87 m 257 -90 l 257 -93 l 262 -93 l 262 -90 l 257 -90 m 306 -90 l 309 -90 l 309 -96 l 306 -96 l 306 -90 m 490 -93 l 490 -101 l 493 -101 l 493 -93 l 490 -93 m 604 -93 l 604 -104 l 607 -104 l 607 -93 l 604 -93 m 498 -101 l 498 -104 q 507 -131 505 -111 q 488 -166 493 -131 l 485 -169 l 488 -180 l 515 -172 l 515 -166 q 504 -158 504 -166 l 509 -153 l 517 -158 l 517 -153 l 512 -142 l 515 -128 l 509 -123 l 512 -120 l 509 -117 l 507 -117 l 509 -115 l 509 -101 l 504 -96 l 498 -101 m 124 -101 l 130 -101 l 132 -115 l 130 -117 l 127 -117 l 124 -115 l 124 -101 m 300 -101 l 306 -101 l 306 -109 l 300 -109 l 300 -101 m 414 -104 l 417 -106 l 417 -109 l 412 -115 l 425 -120 l 425 -112 l 417 -104 l 414 -104 m 488 -104 l 488 -112 l 490 -112 l 490 -104 l 488 -104 m 471 -109 l 469 -123 l 469 -128 l 474 -128 l 474 -125 l 471 -123 l 471 -120 l 479 -117 l 479 -112 l 471 -109 m 86 -112 l 89 -112 l 94 -117 l 94 -123 l 86 -123 l 81 -117 l 86 -112 m 108 -112 l 113 -112 l 113 -115 l 108 -115 l 108 -112 m 268 -131 l 268 -134 l 279 -128 l 276 -115 q 268 -131 268 -117 m 13 -120 l 13 -125 l 7 -125 l 13 -120 m 146 -120 l 149 -120 l 149 -123 l 143 -128 l 140 -128 l 140 -125 l 146 -120 m 260 -123 l 252 -147 l 252 -153 l 257 -153 l 262 -125 l 262 -123 l 260 -123 m 336 -120 l 344 -120 l 347 -134 l 344 -134 l 336 -125 l 336 -120 m 482 -123 l 479 -142 l 482 -144 l 485 -144 l 488 -134 l 485 -123 l 482 -123 m 656 -120 l 664 -120 l 664 -128 l 661 -128 l 656 -123 l 656 -120 m 81 -125 l 86 -131 l 86 -136 l 81 -136 l 75 -131 l 81 -125 m 108 -125 l 113 -125 l 119 -131 l 113 -136 l 108 -136 l 102 -131 l 108 -125 m 135 -128 l 140 -128 l 140 -136 l 135 -142 l 130 -134 l 135 -128 m 604 -128 l 612 -142 l 607 -147 l 602 -136 l 593 -139 l 593 -134 l 604 -128 m 469 -134 l 460 -174 l 463 -174 l 471 -182 q 463 -199 471 -197 l 460 -188 l 455 -193 l 455 -199 l 460 -204 q 485 -150 473 -204 l 477 -150 q 471 -161 477 -161 l 469 -158 l 469 -155 l 474 -136 l 471 -134 l 469 -134 m 176 -134 l 181 -139 l 178 -142 l 176 -142 l 170 -136 l 173 -134 l 176 -134 m 238 -136 l 241 -139 l 241 -144 l 233 -144 l 233 -142 l 238 -136 m 531 -139 q 523 -155 531 -146 l 523 -161 l 534 -163 l 536 -139 l 531 -139 m 455 -142 l 455 -147 l 458 -147 l 458 -142 l 455 -142 m 642 -142 l 645 -142 l 645 -147 l 640 -153 l 637 -150 l 637 -147 l 642 -142 m 113 -144 l 119 -150 l 113 -155 l 108 -150 l 113 -144 m 78 -155 l 83 -155 l 83 -163 l 78 -169 l 75 -166 l 75 -163 l 78 -155 m 452 -158 l 452 -163 l 455 -163 l 455 -158 l 452 -158 m 504 -161 l 504 -169 l 501 -169 l 496 -163 l 498 -161 l 504 -161 m 558 -161 l 564 -166 l 558 -166 l 558 -161 m 656 -161 l 661 -161 l 661 -163 l 656 -163 l 656 -161 m 450 -166 l 450 -174 l 452 -174 l 452 -166 l 450 -166 m 178 -166 l 186 -166 l 192 -172 l 184 -177 l 178 -172 l 178 -166 m 379 -172 l 382 -174 l 382 -177 l 374 -177 l 379 -172 m 121 -174 l 124 -177 l 124 -180 l 121 -182 l 119 -182 l 116 -180 l 116 -177 l 119 -174 l 121 -174 m 2 -177 l 7 -182 l 2 -188 l -3 -182 l 2 -177 m 100 -177 l 105 -182 l 105 -185 l 100 -191 l 94 -185 l 94 -182 l 100 -177 m 420 -182 l 422 -185 l 422 -188 l 420 -196 l 414 -196 l 414 -191 l 412 -193 l 409 -193 l 404 -188 l 420 -182 m 233 -191 l 233 -199 l 227 -193 l 230 -191 l 233 -191 m 382 -191 q 387 -199 387 -191 q 376 -215 381 -215 l 371 -210 l 376 -204 l 374 -193 l 376 -191 l 382 -191 m 157 -193 l 159 -196 l 159 -199 l 157 -201 l 154 -201 l 151 -199 l 151 -196 l 154 -193 l 157 -193 m 273 -196 l 265 -229 l 273 -229 q 279 -220 273 -220 l 284 -220 l 287 -223 l 290 -223 l 290 -210 l 276 -210 l 276 -204 l 279 -201 l 279 -199 l 276 -196 l 273 -196 m 642 -201 l 653 -201 l 653 -207 l 648 -207 l 642 -201 m 83 -207 l 89 -212 l 83 -218 l 78 -212 l 83 -207 m 189 -210 l 195 -215 l 189 -215 l 189 -210 m 469 -212 l 463 -220 q 469 -237 469 -220 l 471 -237 l 474 -215 l 471 -212 l 469 -212 m 637 -210 l 640 -212 l 640 -215 l 634 -220 l 631 -218 l 631 -215 l 637 -210 m 260 -215 l 260 -223 l 262 -223 l 262 -215 l 260 -215 m 542 -215 l 550 -215 l 550 -218 l 545 -223 l 542 -220 l 542 -215 m 140 -218 l 143 -218 l 149 -223 l 149 -226 l 143 -231 l 140 -231 l 135 -226 l 135 -223 l 140 -218 m 534 -218 l 536 -220 l 536 -223 l 534 -226 l 528 -226 l 528 -223 l 534 -218 m 393 -220 l 398 -220 l 404 -226 l 401 -229 l 398 -229 l 393 -223 l 393 -220 m 73 -223 l 78 -223 l 83 -229 l 78 -234 l 73 -229 l 73 -223 m 360 -223 l 366 -223 l 366 -229 l 360 -229 l 360 -223 m 501 -226 l 507 -231 l 498 -237 l 496 -234 l 496 -231 l 501 -226 m 523 -226 l 528 -226 l 528 -231 l 523 -231 l 523 -226 m 553 -226 l 558 -226 l 558 -231 l 553 -231 l 553 -226 m 56 -234 l 62 -234 l 62 -239 l 56 -239 l 56 -234 m 390 -234 l 393 -237 l 393 -239 l 390 -242 l 387 -242 l 385 -239 l 385 -237 l 387 -234 l 390 -234 m 591 -234 l 599 -234 l 599 -237 l 593 -242 l 591 -239 l 591 -234 m 623 -234 l 626 -237 l 626 -242 l 623 -242 l 618 -237 l 621 -234 l 623 -234 m 168 -237 l 173 -237 l 173 -250 l 168 -250 l 168 -237 m 431 -239 l 439 -253 l 431 -264 l 425 -264 l 425 -245 l 431 -239 m 303 -242 l 311 -250 q 298 -283 304 -283 l 298 -277 l 300 -267 l 295 -248 l 303 -242 m 504 -242 l 509 -248 l 509 -250 l 507 -253 l 517 -269 l 515 -272 l 507 -272 q 498 -245 500 -272 l 501 -242 l 504 -242 m 550 -245 l 553 -248 l 553 -250 l 550 -253 l 547 -253 l 545 -250 l 545 -248 l 547 -245 l 550 -245 m 81 -248 l 86 -248 l 86 -250 l 81 -250 l 81 -248 m -17 -250 l -14 -250 l -14 -256 l -20 -261 l -22 -261 l -22 -256 l -17 -250 m 534 -250 l 536 -253 l 536 -256 l 534 -258 l 531 -258 l 528 -256 l 528 -253 l 531 -250 l 534 -250 m 493 -256 l 498 -261 l 496 -264 l 493 -264 l 488 -258 l 490 -256 l 493 -256 m 203 -258 l 208 -258 l 203 -264 l 203 -258 m 311 -258 l 319 -258 l 325 -264 l 325 -269 l 322 -272 l 322 -275 q 330 -280 330 -275 l 330 -283 l 325 -288 l 317 -286 l 311 -291 l 311 -286 l 314 -275 l 311 -264 l 311 -258 m 371 -267 l 374 -267 l 374 -272 l 371 -272 l 371 -267 m 390 -269 l 390 -275 l 385 -275 l 390 -269 m 376 -275 l 385 -275 l 379 -280 l 376 -280 l 376 -275 m 417 -275 l 422 -275 l 422 -280 l 417 -280 l 417 -275 m 507 -277 q 515 -294 515 -280 q 496 -345 508 -302 l 493 -345 l 490 -342 l 490 -340 l 498 -318 l 496 -318 l 501 -304 l 496 -299 l 496 -288 l 507 -277 m 211 -280 l 219 -280 l 224 -286 l 224 -294 l 222 -296 l 224 -299 l 224 -307 q 197 -364 224 -320 l 189 -391 l 200 -386 l 205 -394 q 181 -432 186 -430 l 173 -418 l 173 -416 l 176 -413 l 176 -410 l 170 -410 q 157 -437 161 -437 l 154 -435 l 154 -429 q 173 -378 173 -404 q 189 -356 189 -378 l 200 -323 l 197 -321 l 197 -302 l 211 -280 m 385 -283 l 387 -283 l 387 -288 l 385 -288 l 385 -283 m 618 -283 l 621 -286 l 621 -288 l 618 -291 l 615 -291 l 612 -288 l 612 -286 l 615 -283 l 618 -283 m 298 -286 l 300 -288 l 300 -294 l 295 -299 l 292 -299 l 292 -291 l 298 -286 m 75 -288 l 78 -288 l 83 -294 l 83 -296 l 78 -302 l 75 -302 l 70 -296 l 70 -294 l 75 -288 m 488 -294 l 490 -294 l 490 -299 l 488 -299 l 488 -294 m 181 -296 l 184 -304 q 176 -315 180 -315 l 173 -313 l 173 -304 l 181 -296 m 349 -299 l 355 -299 l 355 -302 l 349 -302 l 349 -299 m 32 -315 l 35 -318 l 35 -321 l 26 -321 l 32 -315 m 477 -318 l 477 -332 l 471 -332 l 471 -323 l 477 -318 m 135 -323 l 140 -329 l 140 -332 l 124 -353 l 121 -351 l 121 -348 l 135 -323 m 363 -323 l 371 -323 l 366 -329 l 363 -329 l 363 -323 m 344 -326 q 352 -334 344 -334 l 355 -337 l 355 -340 l 352 -342 l 349 -342 l 338 -329 l 341 -326 l 344 -326 m 520 -326 l 523 -326 l 528 -332 l 526 -334 l 520 -334 l 520 -326 m 227 -337 l 230 -337 l 238 -345 l 238 -353 l 230 -364 l 233 -367 l 233 -370 l 208 -427 l 203 -421 q 216 -394 209 -394 l 214 -386 l 219 -361 l 216 -345 l 227 -337 m 469 -340 l 474 -340 l 474 -345 l 469 -345 l 469 -340 m 528 -340 l 536 -340 l 536 -345 l 528 -345 l 528 -340 m 395 -342 l 398 -342 l 401 -345 l 404 -345 l 412 -342 l 414 -345 l 414 -348 l 409 -353 q 395 -342 397 -348 m 596 -342 l 599 -342 q 604 -351 604 -342 q 585 -408 604 -408 l 583 -405 l 583 -402 q 596 -375 596 -398 l 591 -353 l 591 -348 l 596 -342 m 344 -345 l 347 -348 l 347 -351 l 341 -356 l 338 -353 l 338 -351 l 344 -345 m 536 -356 l 542 -356 l 542 -359 l 534 -367 l 531 -367 l 536 -356 m 387 -359 l 395 -367 l 385 -378 l 382 -375 l 382 -364 l 387 -359 m 555 -359 l 555 -367 l 550 -361 l 553 -359 l 555 -359 m 336 -361 l 341 -361 l 341 -364 l 336 -364 l 336 -361 m 507 -364 l 512 -364 l 512 -367 l 507 -367 l 507 -364 m 146 -367 l 149 -370 l 149 -372 l 146 -375 l 143 -375 l 140 -372 l 140 -370 l 143 -367 l 146 -367 m 322 -367 l 330 -367 l 330 -370 l 325 -375 l 322 -375 l 322 -367 m 51 -370 l 54 -372 l 54 -375 l 51 -378 l 48 -378 l 45 -375 l 45 -372 l 48 -370 l 51 -370 m 469 -370 l 471 -372 l 471 -378 l 466 -383 l 463 -380 l 463 -375 l 469 -370 m 580 -372 l 583 -375 l 583 -378 l 577 -383 l 574 -380 l 574 -378 l 580 -372 m 303 -375 l 309 -380 l 306 -383 l 303 -383 l 298 -378 l 300 -375 l 303 -375 m 363 -380 l 366 -383 l 366 -389 l 360 -394 l 355 -389 l 363 -380 m 284 -386 l 290 -391 l 290 -394 l 284 -399 l 279 -391 l 284 -386 m 507 -389 l 512 -389 l 512 -399 l 507 -394 l 507 -389 m 580 -389 l 583 -391 l 583 -394 l 580 -397 l 577 -397 l 574 -394 l 574 -391 l 577 -389 l 580 -389 m 488 -391 l 488 -397 l 482 -397 l 488 -391 m 178 -421 l 184 -421 l 189 -410 l 189 -397 q 178 -421 184 -397 m 534 -397 l 536 -399 l 536 -402 q 526 -413 528 -405 q 509 -402 509 -408 l 512 -402 l 515 -405 l 517 -405 l 534 -397 m 450 -399 l 455 -399 l 455 -402 l 450 -402 l 450 -399 m 154 -402 l 157 -402 l 157 -408 l 154 -408 l 154 -402 m 542 -402 l 550 -402 l 550 -408 l 542 -408 l 542 -402 m 569 -405 l 569 -416 l 566 -416 l 558 -408 l 561 -405 l 569 -405 m 460 -408 l 466 -408 l 471 -413 q 460 -435 465 -435 l 458 -432 l 458 -429 l 460 -421 l 455 -416 l 455 -413 l 460 -408 m 558 -416 q 566 -429 564 -416 l 564 -432 l 561 -432 l 553 -424 l 553 -421 l 558 -416 m 455 -418 l 455 -427 l 452 -427 l 447 -421 l 450 -418 l 455 -418 m 387 -421 l 393 -427 l 387 -427 l 387 -421 m 585 -421 l 588 -424 l 588 -427 l 583 -432 l 580 -429 l 580 -427 l 585 -421 m 16 -427 l 18 -429 l 18 -432 l 16 -435 l 13 -435 l 10 -432 l 10 -429 l 13 -427 l 16 -427 m 447 -432 l 452 -440 l 452 -446 l 444 -454 l 441 -451 l 441 -437 l 447 -432 m 591 -432 l 596 -432 l 596 -437 l 591 -437 l 591 -432 m 390 -435 l 393 -435 l 393 -440 l 390 -440 l 390 -435 m 488 -443 l 493 -443 l 493 -448 l 488 -448 l 488 -443 m 40 -446 l 43 -448 l 43 -451 l 40 -454 l 37 -454 l 35 -451 l 35 -448 l 37 -446 l 40 -446 m 159 -456 l 162 -459 l 162 -465 l 157 -470 l 151 -465 l 159 -456 m 360 -456 l 368 -456 l 368 -462 l 360 -462 l 360 -456 m 273 -459 l 279 -465 l 273 -465 l 273 -459 m 569 -459 q 580 -470 569 -470 l 580 -473 l 574 -478 q 564 -462 564 -473 l 566 -459 l 569 -459 m 64 -462 l 67 -462 l 67 -467 l 64 -467 l 64 -462 m 596 -462 l 599 -465 l 591 -475 l 585 -470 l 596 -462 m 433 -465 l 439 -465 l 439 -470 l 433 -470 l 433 -465 m 341 -470 l 344 -470 l 349 -475 l 347 -478 l 341 -478 l 341 -470 m 550 -473 l 553 -475 l 553 -478 l 550 -481 l 547 -481 l 545 -478 l 545 -475 l 547 -473 l 550 -473 m 336 -475 l 336 -484 l 333 -484 l 328 -478 l 330 -475 l 336 -475 m 62 -478 l 64 -481 l 64 -484 l 62 -486 l 59 -486 l 56 -484 l 56 -481 l 59 -478 l 62 -478 m 290 -481 l 300 -481 l 300 -489 l 295 -489 l 290 -484 l 290 -481 m 463 -481 l 469 -481 q 488 -522 488 -488 q 482 -546 486 -546 l 485 -559 l 488 -557 l 490 -557 l 493 -559 l 493 -562 l 485 -570 l 482 -600 l 488 -606 l 482 -611 l 482 -635 q 493 -711 487 -711 q 479 -755 482 -711 l 482 -771 l 474 -777 l 469 -777 q 460 -760 460 -774 q 471 -739 471 -750 l 474 -739 l 471 -736 l 471 -730 l 474 -730 l 471 -703 l 471 -665 q 458 -611 471 -637 l 463 -595 l 460 -592 l 460 -589 l 463 -576 l 460 -551 l 463 -551 q 452 -505 452 -532 l 452 -500 q 463 -481 452 -485 m 319 -484 l 325 -489 l 319 -489 l 319 -484 m 385 -484 l 393 -484 l 393 -489 l 385 -489 l 385 -484 m 130 -486 l 130 -489 l 124 -494 l 121 -492 l 121 -489 l 124 -486 l 130 -486 m 401 -489 l 406 -494 l 401 -500 l 395 -492 l 398 -489 l 401 -489 m 441 -494 l 444 -497 l 444 -500 l 436 -500 l 441 -494 m 143 -500 l 149 -500 l 149 -505 l 143 -505 l 143 -500 m 385 -503 l 390 -503 l 390 -505 l 385 -505 l 385 -503 m 290 -513 l 292 -516 l 292 -519 l 290 -522 l 287 -522 l 284 -519 l 284 -516 l 287 -513 l 290 -513 m 222 -530 l 224 -532 l 224 -535 l 219 -541 l 214 -541 l 214 -538 l 222 -530 m 409 -532 l 414 -541 l 414 -543 l 412 -543 l 404 -535 l 406 -532 l 409 -532 m 328 -541 l 328 -543 l 333 -543 l 333 -541 l 328 -541 m 165 -541 l 178 -541 l 178 -543 l 173 -549 l 165 -541 m 276 -581 l 281 -581 q 295 -562 288 -562 l 292 -559 l 292 -557 l 298 -549 l 298 -543 q 276 -581 288 -549 m 336 -546 l 336 -549 l 338 -557 l 349 -554 l 349 -549 l 336 -546 m 553 -551 l 558 -551 l 558 -554 l 553 -554 l 553 -551 m 35 -559 q 54 -576 47 -564 l 54 -581 q 35 -614 35 -601 l 32 -614 l 35 -616 l 35 -619 l 26 -627 l 21 -627 l 16 -622 l 24 -608 l 24 -603 q 16 -597 24 -597 l 13 -595 l 13 -587 q 26 -565 26 -578 l 35 -559 m 268 -565 l 268 -576 l 271 -576 l 271 -565 l 268 -565 m 330 -570 l 330 -576 l 336 -576 l 336 -565 l 330 -570 m 165 -565 l 168 -565 l 173 -570 l 173 -573 q 162 -581 173 -577 l 159 -578 l 159 -570 l 165 -565 m 352 -581 l 352 -587 l 363 -581 l 363 -576 l 357 -576 l 352 -581 m 268 -578 l 268 -587 l 271 -587 l 271 -578 l 268 -578 m 433 -576 l 439 -576 l 439 -581 l 433 -576 m 151 -578 l 154 -581 l 154 -584 l 151 -587 l 149 -587 l 146 -584 l 146 -581 l 149 -578 l 151 -578 m 317 -589 l 317 -597 l 325 -595 l 325 -587 l 317 -589 m 127 -608 l 130 -611 l 130 -614 l 127 -616 l 124 -616 l 121 -614 l 121 -611 l 124 -608 l 127 -608 m 268 -611 l 273 -611 l 273 -616 l 268 -616 l 268 -611 m 295 -619 l 298 -619 l 298 -625 l 295 -625 l 295 -619 m 83 -646 l 86 -649 l 86 -652 l 83 -654 l 78 -654 l 78 -652 l 83 -646 m 89 -657 l 92 -657 l 92 -663 l 89 -663 l 89 -657 m 62 -665 l 67 -665 l 59 -673 l 56 -673 l 56 -671 l 62 -665 m 501 -665 l 507 -665 l 507 -668 l 501 -668 l 501 -665 m 157 -679 l 162 -679 l 162 -684 l 151 -695 l 149 -692 l 149 -690 q 157 -679 153 -679 m 192 -682 l 197 -682 l 197 -684 l 192 -684 l 192 -682 m 504 -682 l 509 -687 l 509 -701 l 504 -706 l 498 -690 l 498 -687 l 504 -682 m 97 -692 l 102 -692 l 102 -695 q 89 -703 102 -700 l 89 -701 l 97 -692 m 81 -706 l 86 -706 l 81 -711 l 81 -706 m 157 -722 l 162 -722 l 162 -725 l 157 -725 l 157 -722 m 189 -722 l 192 -725 l 192 -736 q 170 -758 182 -758 l 170 -779 l 149 -806 l 151 -814 l 149 -817 l 146 -817 q 138 -812 146 -812 l 135 -809 l 135 -806 q 159 -763 150 -792 q 178 -725 168 -763 l 189 -722 m 493 -728 l 496 -730 l 496 -739 l 490 -744 l 488 -741 l 488 -733 l 493 -728 m 135 -739 l 140 -744 l 116 -766 l 113 -763 l 113 -760 q 130 -739 123 -760 l 135 -739 m 102 -744 l 105 -747 l 105 -749 l 97 -758 l 94 -758 l 94 -755 l 102 -744 m 591 -749 l 599 -749 l 599 -755 l 593 -760 l 591 -758 l 591 -749 m 268 -777 l 271 -779 l 271 -785 l 262 -785 l 262 -782 l 268 -777 m 290 -779 l 295 -779 l 300 -785 l 300 -787 l 287 -823 l 279 -823 q 290 -779 286 -779 m 382 -779 l 390 -779 l 390 -785 l 385 -790 l 382 -787 l 382 -779 m 10 -801 l 16 -806 l 7 -814 l 5 -814 l 5 -806 l 10 -801 m 73 -801 l 75 -804 l 75 -806 l 64 -817 l 62 -814 l 62 -812 l 73 -801 m 555 -823 l 561 -828 l 558 -836 l 564 -842 l 564 -844 l 553 -847 l 545 -844 l 542 -847 q 534 -836 541 -836 l 534 -833 l 539 -828 l 550 -831 q 555 -823 550 -823 m 276 -828 l 279 -831 l 279 -833 l 276 -836 l 271 -836 l 271 -833 l 276 -828 m 382 -833 l 387 -833 l 387 -836 l 382 -836 l 382 -833 m 181 -850 l 189 -858 l 189 -863 l 186 -877 q 197 -888 197 -877 l 200 -888 l 208 -885 l 211 -888 l 211 -896 q 197 -923 211 -910 l 186 -909 q 178 -896 178 -909 q 159 -907 166 -907 l 157 -904 l 157 -888 q 181 -850 172 -853 m 300 -855 l 306 -855 l 306 -858 l 298 -866 l 295 -863 l 295 -861 l 300 -855 m 113 -909 l 116 -909 l 121 -915 l 121 -918 q 97 -947 108 -947 l 94 -945 l 94 -942 l 102 -934 l 100 -931 l 100 -928 q 113 -909 106 -911 m 159 -953 l 162 -956 l 159 -964 l 154 -964 l 154 -958 l 159 -953 m 78 -961 l 81 -964 l 81 -975 l 75 -980 l 73 -977 l 73 -966 l 78 -961 z "},"E":{"ha":752,"x_min":0,"x_max":776,"o":"m 203 1006 l 209 1006 q 228 971 218 1006 l 225 960 l 231 925 l 231 922 q 225 879 231 890 l 228 868 l 225 865 q 212 860 225 860 q 206 849 212 849 l 203 849 l 203 854 l 198 854 l 184 825 q 201 792 194 822 l 195 787 l 198 784 l 198 776 l 195 757 q 203 741 200 757 l 198 719 q 212 686 207 686 q 231 708 220 686 l 231 719 l 217 716 l 217 719 l 209 732 q 217 773 211 766 l 214 787 q 222 833 214 810 l 225 833 l 225 822 l 228 825 l 231 825 l 228 827 l 228 830 l 239 860 l 236 887 q 260 949 239 922 l 260 955 l 250 958 l 247 944 l 241 944 l 241 985 l 247 985 q 266 977 257 977 l 738 977 q 754 968 754 975 l 754 732 q 770 700 770 712 l 770 689 q 727 654 770 654 q 673 719 688 654 q 469 901 598 854 q 434 906 457 906 l 309 906 l 309 526 l 442 526 q 518 567 499 526 l 524 589 l 524 600 q 477 656 524 640 l 469 665 l 469 670 q 513 681 469 679 q 624 594 600 681 l 624 575 q 570 494 624 518 q 624 407 624 458 l 624 391 q 543 304 624 335 l 515 301 l 510 301 q 469 312 469 301 l 469 317 q 502 336 469 322 q 524 388 524 355 l 524 393 q 439 456 524 448 l 309 456 l 309 109 q 355 71 309 71 l 418 71 q 651 231 517 71 q 703 328 667 250 q 732 339 718 339 q 776 296 776 339 q 757 258 776 287 l 741 8 l 730 0 l 5 0 l 0 5 l 0 57 q 79 76 0 71 q 92 136 92 92 l 92 347 q 133 363 92 351 l 133 377 l 130 374 l 109 374 q 92 382 94 374 l 92 415 q 30 483 92 460 q 22 488 22 483 l 22 494 q 71 518 22 505 l 92 518 l 92 882 l 98 887 q 130 860 98 871 l 130 857 q 117 841 117 856 l 117 836 q 125 830 125 836 l 125 819 q 111 787 111 804 q 119 770 119 784 l 117 768 l 122 730 l 119 727 l 133 637 l 130 629 l 136 621 l 133 608 l 133 572 l 130 556 l 136 529 l 146 529 q 157 551 153 529 l 155 562 l 157 564 l 157 567 l 152 594 l 155 618 l 149 640 l 157 648 l 157 665 l 146 665 l 141 749 l 146 754 q 136 789 142 754 q 152 825 138 808 l 152 827 l 149 841 q 155 857 155 841 l 157 857 l 155 860 l 155 873 l 160 873 l 171 865 l 179 873 l 182 873 l 182 863 l 179 860 l 179 857 l 182 857 l 193 863 l 193 868 l 187 876 l 190 876 l 187 879 l 187 882 l 206 930 q 193 963 203 963 q 182 947 185 963 l 179 947 l 160 966 l 146 963 l 144 966 l 144 968 l 146 971 l 141 971 l 133 966 l 117 968 l 106 955 l 103 958 l 98 958 q 90 944 92 958 l 87 944 l 76 958 l 76 960 l 79 963 l 76 966 l 76 993 l 100 998 q 152 977 116 998 q 203 1006 191 1006 m 30 987 l 46 987 l 52 982 l 52 971 l 49 968 l 49 966 q 22 982 22 966 l 30 987 m 106 936 l 109 936 l 109 933 l 103 928 l 106 925 l 106 920 q 92 911 106 913 l 92 914 q 106 936 101 936 m 152 936 l 160 933 l 160 928 l 155 928 l 152 925 l 146 930 l 146 933 l 149 936 l 152 936 m 141 914 l 146 914 l 146 909 l 141 903 l 138 906 l 141 914 m 168 906 l 171 906 l 171 903 l 165 898 l 163 898 l 163 901 l 168 906 m 133 895 l 136 892 l 136 890 l 130 884 l 125 890 l 133 895 m 130 155 l 130 149 l 133 149 l 133 155 l 130 155 m 109 133 l 109 122 l 111 122 l 111 133 l 109 133 z "},"F":{"ha":706,"x_min":0,"x_max":738,"o":"m 209 1006 l 263 979 l 703 979 q 719 971 719 978 l 719 770 q 738 730 738 749 q 700 692 738 692 l 689 692 q 632 765 659 692 q 567 841 612 801 l 567 838 l 575 803 q 562 784 575 784 l 562 787 l 559 784 l 556 784 q 548 800 551 784 l 551 811 l 548 830 l 559 846 q 521 873 555 854 l 515 873 l 515 871 l 524 871 l 524 868 l 518 863 l 513 863 q 507 879 507 863 l 486 887 l 486 884 l 488 868 l 477 844 l 480 841 l 480 836 l 477 833 l 477 830 l 483 825 l 480 822 l 477 822 l 475 825 l 467 795 l 469 784 l 461 779 l 450 779 l 450 798 q 458 803 450 803 l 461 806 l 461 808 l 456 808 l 456 814 q 469 844 469 814 l 464 844 q 445 787 445 812 l 445 768 l 453 773 l 458 768 l 458 765 l 453 765 l 456 751 l 453 749 l 450 749 l 442 754 l 437 727 l 439 724 l 439 722 l 437 713 l 439 711 l 437 697 l 437 686 l 439 684 l 437 681 l 437 667 l 439 648 l 437 624 l 437 600 l 442 594 l 442 597 l 439 605 l 448 610 l 450 610 q 456 602 456 610 l 439 578 l 442 575 l 442 572 q 431 529 431 555 l 437 529 q 469 540 452 529 l 467 543 l 467 545 l 469 559 l 467 583 l 469 583 q 458 629 458 602 l 458 637 l 450 640 l 450 635 l 442 635 l 442 637 l 445 640 l 442 643 l 442 651 q 480 662 442 662 l 494 662 q 600 575 583 662 q 537 491 600 513 l 537 488 q 600 407 600 465 q 529 326 600 351 q 499 320 518 320 l 475 320 q 442 331 442 320 l 442 334 q 480 355 445 341 l 480 358 q 467 374 467 358 q 477 396 477 385 l 480 396 l 477 399 l 480 407 q 453 448 480 448 q 412 456 453 454 l 410 448 l 412 439 l 404 385 l 418 369 l 423 374 l 426 372 l 426 358 q 410 339 414 339 l 407 339 q 393 372 399 339 l 396 396 l 391 415 l 393 431 l 391 439 l 396 445 l 396 448 l 388 456 l 339 456 l 334 450 l 336 407 l 339 407 q 350 426 343 426 l 353 426 q 361 412 359 426 q 347 363 355 363 l 345 366 l 345 372 l 350 380 l 350 391 l 345 401 l 336 401 l 342 353 l 339 350 l 339 347 l 345 317 l 347 320 l 350 320 l 353 317 l 353 301 q 345 296 353 296 l 350 263 l 350 250 l 347 247 l 353 217 l 350 214 l 350 212 l 353 195 l 353 193 l 342 182 l 336 182 q 326 209 330 182 l 328 225 l 326 244 l 328 263 l 315 385 l 317 385 l 312 410 l 315 410 l 312 412 l 312 415 l 315 426 l 312 434 l 309 434 l 309 288 l 312 279 l 309 266 l 309 119 q 339 73 309 73 l 372 73 q 404 27 404 73 l 404 16 q 396 0 404 2 l 5 0 l 0 5 l 0 49 q 68 73 0 73 q 95 138 95 73 l 95 407 q 87 426 95 416 l 90 429 q 62 464 75 464 q 22 483 61 475 l 19 496 q 71 518 51 518 l 95 518 l 95 920 l 92 917 l 90 917 l 84 922 q 92 928 84 928 q 24 968 92 960 l 19 982 q 71 998 41 998 l 87 998 q 146 977 120 998 l 206 1006 l 209 1006 m 79 911 l 84 911 l 90 906 l 84 901 l 79 906 l 79 911 m 309 909 l 309 895 l 317 884 l 309 844 l 309 819 l 320 806 l 320 803 l 309 787 l 309 762 l 315 754 l 309 749 l 309 621 l 312 624 l 320 624 q 326 616 326 624 l 339 627 l 345 616 l 353 618 l 350 621 l 350 627 l 358 635 l 355 637 l 355 643 l 361 648 l 366 643 l 366 640 l 361 635 l 363 632 l 363 627 l 358 621 q 377 600 363 604 l 380 600 l 380 602 l 377 610 l 385 616 l 391 616 l 399 608 l 396 605 l 401 589 l 401 583 q 385 532 385 543 l 385 526 l 420 526 l 426 559 q 418 610 423 610 l 420 613 l 420 624 q 412 651 420 637 l 415 667 l 415 673 l 410 673 l 418 700 l 407 724 q 431 765 407 747 l 431 768 l 423 768 l 423 770 l 426 773 l 426 776 l 429 773 l 434 773 l 439 808 l 437 819 l 431 819 l 434 817 l 434 814 l 429 808 l 420 811 l 420 803 l 418 803 l 412 808 l 415 811 l 412 814 l 412 817 q 418 836 418 823 l 423 830 l 420 827 l 423 817 l 426 817 q 434 827 426 827 l 434 857 l 448 868 l 453 868 l 461 863 l 469 863 q 477 884 469 878 l 477 890 q 464 895 464 890 l 461 892 l 458 892 q 374 906 421 906 l 366 903 l 363 906 l 358 898 l 361 879 q 350 868 353 877 l 353 865 l 350 863 l 347 863 l 342 871 q 353 901 344 892 l 353 906 l 326 909 l 309 909 m 62 901 l 68 901 l 68 895 l 62 895 l 62 901 m 396 901 l 399 898 l 399 895 l 396 892 l 393 892 l 391 895 l 391 898 l 393 901 l 396 901 m 437 895 l 445 882 q 437 871 441 871 l 431 871 l 431 890 l 437 895 m 87 887 l 92 887 l 92 884 l 87 884 l 87 887 m 499 879 l 505 873 l 502 871 l 499 871 l 494 876 l 496 879 l 499 879 m 317 876 l 326 876 l 331 871 l 331 865 l 328 863 l 328 860 q 336 854 336 860 l 336 852 l 331 846 l 323 849 l 317 844 l 317 849 l 320 860 l 317 871 l 317 876 m 377 868 l 380 868 l 380 863 l 377 863 l 377 868 m 396 865 l 396 860 l 391 860 l 396 865 m 382 860 l 391 860 l 385 854 l 382 854 l 382 860 m 423 860 l 429 860 l 429 854 l 423 854 l 423 860 m 513 857 q 521 841 521 854 q 502 789 514 832 l 499 789 l 496 792 l 496 795 l 505 817 l 502 817 l 507 830 l 502 836 l 502 846 l 513 857 m 391 852 l 393 852 l 393 846 l 391 846 l 391 852 m 81 846 l 84 846 l 90 841 l 90 838 l 84 833 l 81 833 l 76 838 l 76 841 l 81 846 m 494 841 l 496 841 l 496 836 l 494 836 l 494 841 m 355 836 l 361 836 l 361 833 l 355 833 l 355 836 m 38 819 l 41 817 l 41 814 l 33 814 l 38 819 m 483 817 l 483 803 l 477 803 l 477 811 l 483 817 m 369 811 l 377 811 l 372 806 l 369 806 l 369 811 m 350 808 q 358 800 350 800 l 361 798 l 361 795 l 358 792 l 355 792 l 345 806 l 347 808 l 350 808 m 526 808 l 529 808 l 534 803 l 532 800 l 526 800 l 526 808 m 475 795 l 480 795 l 480 789 l 475 789 l 475 795 m 534 795 l 543 795 l 543 789 l 534 789 l 534 795 m 401 792 l 404 792 l 407 789 l 410 789 l 418 792 l 420 789 l 420 787 l 415 781 q 401 792 403 787 m 602 792 l 608 787 l 608 754 q 591 727 608 733 l 589 730 l 589 732 q 602 760 602 736 l 597 781 l 597 787 l 602 792 m 350 789 l 353 787 l 353 784 l 347 779 l 345 781 l 345 784 l 350 789 m 543 779 l 548 779 l 548 776 l 540 768 l 537 768 l 543 779 m 393 776 l 401 768 l 391 757 l 388 760 l 388 770 l 393 776 m 562 776 l 562 768 l 556 773 l 559 776 l 562 776 m 342 773 l 347 773 l 347 770 l 342 770 l 342 773 m 513 770 l 518 770 l 518 768 l 513 768 l 513 770 m 328 768 l 336 768 l 336 765 l 331 760 l 328 760 l 328 768 m 57 765 l 60 762 l 60 760 l 57 757 l 54 757 l 52 760 l 52 762 l 54 765 l 57 765 m 475 765 l 477 762 l 477 757 l 472 751 l 469 754 l 469 760 l 475 765 m 586 762 l 589 760 l 589 757 l 583 751 l 581 754 l 581 757 l 586 762 m 369 754 l 372 751 l 372 746 l 366 741 l 361 746 l 369 754 m 513 746 l 518 746 l 518 735 l 513 741 l 513 746 m 586 746 l 589 743 l 589 741 l 586 738 l 583 738 l 581 741 l 581 743 l 583 746 l 586 746 m 494 743 l 494 738 l 488 738 l 494 743 m 540 738 l 543 735 l 543 732 q 532 722 534 730 q 515 732 515 727 l 518 732 l 521 730 l 524 730 l 540 738 m 456 735 l 461 735 l 461 732 l 456 732 l 456 735 m 548 732 l 556 732 l 556 727 l 548 727 l 548 732 m 575 730 l 575 719 l 572 719 l 564 727 l 567 730 l 575 730 m 467 727 l 472 727 l 477 722 q 467 700 471 700 l 464 703 l 464 705 l 467 713 l 461 719 l 461 722 l 467 727 m 564 719 q 572 705 570 719 l 570 703 l 567 703 l 559 711 l 559 713 l 564 719 m 461 716 l 461 708 l 458 708 l 453 713 l 456 716 l 461 716 m 393 713 l 399 708 l 393 708 l 393 713 m 591 713 l 594 711 l 594 708 l 589 703 l 586 705 l 586 708 l 591 713 m 453 703 l 458 694 l 458 689 l 450 681 l 448 684 l 448 697 l 453 703 m 597 703 l 602 703 l 602 697 l 597 697 l 597 703 m 396 700 l 399 700 l 399 694 l 396 694 l 396 700 m 494 692 l 499 692 l 499 686 l 494 686 l 494 692 m 46 689 l 49 686 l 49 684 l 46 681 l 43 681 l 41 684 l 41 686 l 43 689 l 46 689 m 366 678 l 374 678 l 374 673 l 366 673 l 366 678 m 575 675 q 586 665 575 665 l 586 662 l 581 656 q 570 673 570 662 l 572 675 l 575 675 m 71 673 l 73 673 l 73 667 l 71 667 l 71 673 m 602 673 l 605 670 l 597 659 l 591 665 l 602 673 m 439 670 l 445 670 l 445 665 l 439 665 l 439 670 m 347 665 l 350 665 l 355 659 l 353 656 l 347 656 l 347 665 m 556 662 l 559 659 l 559 656 l 556 654 l 553 654 l 551 656 l 551 659 l 553 662 l 556 662 m 342 659 l 342 651 l 339 651 l 334 656 l 336 659 l 342 659 m 68 656 l 71 654 l 71 651 l 68 648 l 65 648 l 62 651 l 62 654 l 65 656 l 68 656 m 326 651 l 331 646 l 326 646 l 326 651 m 391 651 l 399 651 l 399 646 l 391 646 l 391 651 m 407 646 l 412 640 l 407 635 l 401 643 l 404 646 l 407 646 m 391 632 l 396 632 l 396 629 l 391 629 l 391 632 m 203 602 l 212 594 l 220 594 q 228 605 221 605 l 231 597 q 241 610 241 600 l 236 610 l 203 602 m 491 602 l 488 589 l 491 575 l 499 583 l 496 602 l 491 602 m 415 602 l 420 594 l 420 591 l 418 591 l 410 600 l 412 602 l 415 602 m 334 594 l 334 591 l 339 591 l 339 594 l 334 594 m 342 589 l 342 586 l 345 578 l 355 581 l 355 586 l 342 589 m 41 575 q 60 559 53 570 l 60 553 q 41 521 41 534 l 38 521 l 41 518 l 41 515 l 33 507 l 27 507 l 22 513 l 30 526 l 30 532 l 22 543 l 22 548 q 33 570 33 558 l 41 575 m 336 564 l 336 559 l 342 559 l 342 570 l 336 564 m 491 567 l 491 562 l 494 562 l 494 567 l 491 567 m 358 553 l 358 548 l 369 553 l 369 559 l 363 559 l 358 553 m 439 559 l 445 559 l 445 553 l 439 559 m 323 545 l 323 537 l 331 540 l 331 548 l 323 545 m 491 418 l 486 377 l 488 366 l 491 366 l 496 380 l 494 404 l 496 407 l 496 410 l 494 418 l 491 418 m 597 385 l 605 385 l 605 380 l 600 374 l 597 377 l 597 385 m 388 355 l 396 355 l 396 350 l 391 345 l 388 347 l 388 355 m 79 334 l 81 331 l 81 328 l 71 317 l 68 320 l 68 323 l 79 334 m 562 312 l 567 307 l 564 298 l 570 293 l 570 290 l 559 288 l 551 290 l 548 288 q 540 298 547 298 l 540 301 l 545 307 l 556 304 q 562 312 556 312 m 388 301 l 393 301 l 393 298 l 388 298 l 388 301 m 290 250 l 290 244 l 296 250 l 290 250 m 84 174 l 87 171 l 87 160 l 81 155 l 79 157 l 79 168 l 84 174 z "},"G":{"ha":1006,"x_min":0,"x_max":1047,"o":"m 404 1287 l 412 1287 l 420 1282 l 437 1287 l 442 1263 l 439 1255 l 442 1246 q 429 1233 429 1245 l 423 1233 l 423 1230 l 431 1219 l 429 1203 l 431 1195 l 420 1187 l 412 1192 l 412 1187 l 429 1176 l 434 1168 l 420 1149 l 415 1149 l 418 1152 l 418 1154 l 404 1162 l 401 1160 l 399 1162 l 399 1165 l 412 1171 l 412 1176 l 399 1173 l 399 1176 l 404 1198 l 401 1200 l 399 1200 q 393 1179 399 1179 l 396 1176 l 396 1171 l 382 1168 q 369 1184 379 1179 l 366 1181 l 366 1179 l 369 1176 l 366 1173 l 363 1173 l 361 1176 l 361 1179 l 363 1179 l 358 1200 l 358 1214 l 366 1222 l 369 1219 q 385 1244 369 1244 q 407 1257 407 1244 l 415 1260 l 412 1263 l 412 1265 l 410 1263 l 404 1263 q 393 1279 404 1269 l 393 1282 l 404 1287 m 450 1263 l 456 1263 l 456 1260 l 450 1255 l 445 1255 l 445 1257 l 450 1263 m 399 1260 l 401 1257 l 401 1246 l 399 1246 l 393 1252 l 393 1255 l 399 1260 m 423 1257 l 423 1255 l 429 1255 l 429 1257 l 423 1257 m 399 1230 l 399 1225 l 401 1225 l 401 1230 l 399 1230 m 776 1233 l 781 1233 l 781 1227 l 776 1233 m 361 1227 l 366 1227 l 366 1225 l 361 1225 l 361 1227 m 363 1217 l 363 1211 l 369 1217 l 363 1217 m 382 1203 l 391 1195 l 393 1195 l 393 1198 l 388 1203 l 382 1203 m 694 1203 l 700 1203 l 700 1198 l 694 1198 l 694 1203 m 694 1190 l 700 1190 l 700 1184 l 694 1184 l 694 1190 m 439 1157 l 439 1149 l 434 1149 l 434 1152 l 439 1157 m 732 1146 l 741 1146 l 741 1143 l 735 1138 l 732 1138 l 732 1146 m 426 1143 l 431 1138 l 426 1138 l 426 1143 m 692 1122 l 697 1122 l 694 1108 l 694 1095 q 703 1089 703 1095 l 689 1089 l 689 1103 l 692 1122 m 404 1116 l 410 1116 l 412 1076 l 418 1081 l 418 1114 l 423 1114 l 426 1089 l 423 1086 l 423 1084 q 439 1073 423 1077 l 439 1070 l 431 1062 l 426 1067 l 426 1062 l 429 1059 l 429 1057 l 426 1054 l 423 1054 l 426 1051 l 426 1040 l 418 1040 l 418 1073 l 412 1073 l 412 1046 l 415 1043 l 415 1040 l 412 1038 l 410 1038 q 404 1067 404 1048 l 404 1116 m 662 1116 l 667 1116 l 667 1111 l 662 1111 l 662 1116 m 431 1089 l 437 1089 l 437 1084 l 431 1078 l 431 1089 m 686 1078 l 692 1078 l 692 1067 l 686 1067 l 686 1078 m 654 1059 l 659 1054 l 659 1051 l 654 1051 l 654 1059 m 431 1057 l 437 1057 l 437 1043 l 431 1043 l 431 1057 m 686 1054 l 692 1054 l 692 1046 l 686 1046 l 686 1054 m 423 1035 l 429 1029 l 429 1021 l 426 1019 l 429 1008 l 431 1010 l 434 1008 l 458 1010 l 458 1013 q 450 1019 450 1013 l 450 1024 l 456 1029 l 461 1029 q 467 1021 467 1029 l 464 1013 l 483 1013 l 477 1021 l 477 1027 l 483 1032 l 494 1032 l 502 1027 l 505 1027 l 513 1032 q 521 1019 519 1032 l 507 1019 l 507 1016 q 732 967 614 1016 l 776 956 q 822 989 808 956 l 876 989 l 884 981 l 884 747 q 914 715 907 747 l 914 696 q 863 663 914 663 l 854 663 q 781 758 810 663 q 659 897 741 843 l 659 886 q 667 880 667 886 l 667 875 l 662 875 l 662 880 l 654 875 l 654 878 l 656 886 q 651 902 651 886 l 648 899 l 643 899 q 616 916 643 911 l 613 916 q 586 899 613 907 l 581 910 l 578 910 l 578 907 l 581 883 l 581 875 l 583 875 l 613 888 l 610 886 l 610 883 l 613 880 l 616 880 l 610 864 l 610 856 l 613 856 l 627 859 q 618 864 627 864 l 618 883 l 616 886 l 616 888 l 632 894 l 632 891 l 624 883 q 635 848 635 863 l 629 829 l 632 791 l 632 774 l 627 774 l 627 731 l 621 731 l 616 845 l 608 845 l 613 831 q 597 750 607 831 l 594 715 q 605 696 605 711 l 605 685 l 600 685 l 597 704 q 583 560 588 704 l 594 349 l 589 349 l 589 365 l 586 397 l 583 397 l 583 327 l 578 327 l 578 368 q 570 438 578 418 l 572 452 l 572 476 l 570 473 l 567 473 l 564 476 l 564 479 l 556 585 l 553 585 l 553 566 l 559 392 l 556 332 l 559 267 l 559 254 l 556 199 l 551 199 l 551 210 q 534 541 551 363 l 532 541 l 532 533 l 537 433 l 532 433 l 532 435 q 518 680 518 612 l 518 707 l 521 734 l 515 734 l 513 661 l 513 560 l 510 511 q 521 335 521 407 l 518 332 l 518 330 l 513 330 l 513 335 l 515 346 l 513 349 l 513 351 l 515 362 l 513 370 q 507 354 507 370 l 502 354 l 502 365 l 513 378 l 510 381 l 507 381 l 510 384 l 510 403 l 505 403 l 505 397 l 499 397 l 494 433 l 496 433 l 494 435 l 494 446 l 496 463 q 488 492 488 477 l 491 492 l 486 509 l 486 538 l 483 552 l 486 552 l 480 595 l 486 601 q 477 642 477 614 l 477 718 q 472 796 477 770 l 475 818 q 467 829 475 829 l 472 837 q 456 869 467 869 l 456 883 l 453 897 l 439 888 l 437 891 q 429 883 437 883 q 423 848 423 871 l 423 772 l 420 758 l 415 758 l 412 799 l 412 821 l 418 821 l 418 861 l 415 861 l 415 829 l 410 829 l 410 894 q 326 549 326 812 l 326 530 l 336 530 q 396 506 373 530 q 350 479 396 498 q 326 441 326 455 l 326 416 q 396 134 326 255 l 437 102 l 437 99 l 431 99 l 431 96 l 437 80 l 437 77 l 431 72 l 388 75 l 382 75 q 361 64 371 64 l 353 64 q 320 72 320 64 q 312 85 320 85 l 307 85 q 298 75 300 85 l 293 75 q 87 373 152 170 q 49 473 66 473 q 3 498 48 482 l 0 509 q 57 530 28 530 l 71 530 q 285 945 71 764 q 388 994 365 992 l 382 1002 l 382 1005 l 385 1008 l 385 1010 l 407 1005 l 407 1032 l 415 1032 l 415 1005 l 418 1005 q 423 1035 418 1035 m 624 1032 l 629 1032 l 624 1027 l 624 1032 m 431 1029 l 437 1029 l 437 1019 l 431 1019 l 431 1029 m 534 1029 l 537 1029 l 543 1024 l 543 1021 l 540 1021 l 534 1027 l 534 1029 m 553 1027 l 559 1027 l 559 1021 l 553 1021 l 553 1027 m 624 1019 l 629 1019 l 629 1013 l 624 1013 l 624 1019 m 597 913 l 597 907 l 600 907 l 600 913 l 597 913 m 439 880 l 448 880 l 448 867 l 442 867 l 439 880 m 648 867 l 654 867 l 654 861 l 648 861 l 648 867 m 665 867 l 667 867 l 670 859 l 667 856 l 667 853 l 673 837 l 667 837 l 667 842 l 665 842 l 665 831 l 651 834 l 646 815 l 640 815 l 640 834 l 637 845 l 640 856 l 646 856 l 646 850 l 665 867 m 434 864 l 439 864 l 439 861 l 434 861 l 434 864 m 543 850 l 543 848 l 548 848 l 548 850 l 543 850 m 646 840 l 646 834 l 648 834 l 648 840 l 646 840 m 437 834 l 442 834 l 442 829 l 437 829 l 437 834 m 385 821 l 388 821 l 388 815 l 385 815 l 385 821 m 415 736 l 420 736 l 420 723 l 415 723 l 415 736 m 811 652 l 817 647 l 811 642 l 806 647 l 811 652 m 863 528 l 920 498 q 993 519 950 519 q 1047 500 1047 513 l 1047 495 q 1004 481 1047 491 q 974 422 974 460 l 971 425 l 963 425 l 963 411 l 977 397 l 977 289 l 971 283 l 968 286 l 966 286 l 958 283 l 958 270 l 960 267 l 960 264 l 977 270 l 977 254 l 974 243 l 977 235 l 968 232 l 977 221 l 977 218 l 974 218 l 971 221 l 968 221 l 960 213 l 958 213 l 958 218 l 955 218 q 939 210 939 216 l 939 208 l 958 210 l 958 208 l 952 199 l 952 197 l 963 159 l 968 159 l 971 161 l 974 161 l 977 159 l 977 148 q 963 140 977 142 q 898 170 906 170 q 822 94 863 118 q 741 39 822 82 q 711 28 721 28 q 703 34 711 34 q 670 64 694 64 q 597 80 633 80 l 597 85 q 746 248 746 123 l 746 362 l 754 373 l 754 376 l 746 387 l 746 411 q 757 430 757 420 q 741 465 748 430 q 675 492 726 479 l 675 500 q 738 519 684 517 q 803 495 777 519 q 863 528 855 528 m 494 517 l 494 500 l 496 500 l 496 517 l 494 517 m 564 468 l 570 468 l 570 463 l 564 463 l 564 468 m 760 430 l 760 427 l 768 425 q 776 444 776 435 l 776 452 q 760 430 760 452 m 499 446 l 499 441 l 505 435 l 507 435 l 507 446 l 505 444 l 502 444 l 499 446 m 860 441 l 857 438 l 857 430 l 873 427 l 882 430 q 860 441 882 436 m 502 430 l 502 408 l 505 408 l 505 430 l 502 430 m 534 427 l 540 427 l 540 403 l 534 403 l 534 427 m 895 416 q 882 406 890 406 l 882 403 q 901 392 886 392 l 906 392 l 906 397 q 895 416 906 412 m 730 414 l 732 411 l 732 408 l 727 403 l 724 406 l 724 408 l 730 414 m 711 406 q 722 397 722 401 l 722 389 q 703 370 722 370 l 694 378 l 694 387 q 711 406 694 406 m 749 351 q 784 338 768 338 l 784 346 l 781 343 l 779 343 q 765 365 774 365 q 749 351 754 361 m 632 365 l 640 365 l 640 362 l 635 343 l 629 343 l 632 365 m 597 362 l 602 362 l 602 359 l 597 359 l 597 362 m 854 354 l 854 351 l 860 351 l 860 354 l 854 354 m 922 343 l 922 340 q 949 321 939 340 q 958 332 951 332 l 960 330 l 963 330 l 968 351 l 955 351 l 922 343 m 537 349 l 543 349 l 543 346 l 537 346 l 537 349 m 833 343 l 833 338 l 836 338 l 849 340 q 841 346 849 346 l 833 343 m 882 324 q 911 300 882 314 l 930 319 l 930 321 l 917 330 l 914 330 l 911 327 l 909 327 q 901 338 905 338 l 892 338 q 882 324 887 336 m 505 338 l 510 338 l 510 332 l 505 332 l 505 338 m 589 338 l 594 338 l 594 302 l 589 302 l 589 338 m 515 324 l 521 324 l 521 321 l 515 321 l 515 324 m 537 324 l 543 324 l 543 319 l 537 319 l 537 324 m 524 316 l 526 316 l 526 313 l 521 308 l 518 308 l 518 311 l 524 316 m 518 294 l 524 294 l 524 270 l 518 275 l 521 275 l 518 278 l 518 294 m 768 292 l 768 283 l 770 281 l 773 281 l 773 283 l 770 292 l 768 292 m 903 283 l 901 281 l 901 278 l 903 270 l 911 270 l 911 275 l 903 283 m 540 281 l 545 281 l 545 270 l 540 270 l 540 281 m 524 270 l 529 264 l 524 264 l 524 270 m 917 254 l 920 254 l 928 262 l 928 264 l 925 264 l 917 254 m 898 256 l 898 251 l 903 251 l 903 256 l 898 256 m 947 251 l 947 248 l 949 240 l 952 240 l 952 248 l 949 251 l 947 251 m 914 243 l 914 235 l 917 235 l 917 243 l 914 243 m 521 229 l 526 229 l 526 221 l 521 221 l 521 229 m 524 202 l 529 202 l 529 199 l 524 199 l 524 202 m 838 194 l 836 186 l 838 186 l 844 191 l 844 194 l 838 194 m 968 197 l 971 197 l 977 191 l 977 175 l 974 172 l 974 170 q 960 189 960 174 l 968 197 m 524 191 l 529 191 l 529 189 l 524 189 l 524 191 m 605 191 l 610 191 l 610 189 l 605 189 l 605 191 m 562 118 l 567 113 l 562 113 l 562 118 m 464 94 q 532 83 497 83 l 551 83 l 551 77 q 491 66 513 75 l 488 69 l 488 72 l 461 69 l 445 69 l 445 72 l 464 94 m 732 50 l 732 47 l 738 47 l 738 50 l 732 50 m 477 4 l 494 4 l 513 1 l 513 -3 l 480 -1 l 477 -1 l 477 4 m 556 -17 l 559 -20 l 559 -22 l 556 -25 l 553 -25 l 551 -22 l 551 -20 l 553 -17 l 556 -17 z "},"H":{"ha":899,"x_min":0,"x_max":947,"o":"m 203 1006 q 255 979 214 1006 l 258 979 q 315 998 284 998 l 331 998 q 382 979 368 998 q 334 958 382 968 q 312 928 312 942 l 312 581 q 296 572 312 575 l 296 564 q 312 553 296 559 l 312 510 l 315 510 q 480 548 383 548 q 513 526 492 526 l 515 529 l 515 540 l 510 540 l 510 545 l 513 545 q 572 529 572 540 l 567 524 l 540 526 l 513 510 l 496 515 q 475 502 489 515 q 491 491 477 491 l 532 502 l 548 496 l 548 499 q 586 515 548 515 l 591 510 l 586 502 l 605 505 l 613 505 q 627 499 627 504 l 643 505 l 643 499 l 629 486 l 632 472 l 621 458 q 635 450 635 458 q 629 442 629 450 l 627 439 l 621 439 l 583 467 q 562 480 566 467 l 553 486 l 543 477 q 464 491 464 486 q 453 499 464 495 l 445 524 l 442 524 l 434 515 l 442 505 l 437 499 l 429 502 l 429 499 q 358 467 429 477 q 342 453 353 457 l 339 456 l 342 458 l 342 461 q 304 480 342 480 l 282 480 q 258 494 272 480 l 247 494 l 255 475 l 252 472 l 250 472 l 225 477 q 198 469 212 469 l 174 477 l 174 475 l 165 467 l 117 467 l 106 456 l 106 453 l 114 445 q 217 461 165 461 l 222 461 q 244 450 232 461 l 247 450 q 252 461 247 461 l 260 461 q 271 445 271 457 l 288 448 q 315 434 307 434 l 312 431 l 312 372 l 301 372 q 184 353 260 353 l 174 363 l 168 363 l 168 350 q 149 339 164 339 l 125 339 l 95 331 l 95 426 q 24 486 95 470 l 24 494 q 71 518 45 518 l 95 518 l 95 928 q 24 971 95 962 l 24 985 q 76 998 54 998 l 90 998 q 152 977 120 998 q 203 1006 192 1006 m 741 1006 q 795 979 748 1006 l 798 979 q 852 998 817 998 l 868 998 q 920 979 905 998 q 871 958 920 968 q 849 928 849 943 l 849 524 q 836 499 836 509 l 836 491 l 844 491 q 849 507 844 507 l 860 507 l 865 502 l 857 491 l 863 486 l 854 456 l 860 450 q 846 407 851 441 l 844 404 l 830 404 l 817 412 l 803 410 q 784 434 793 434 l 741 420 q 730 404 734 404 l 719 404 q 703 412 705 404 q 716 437 716 427 l 716 442 q 673 456 716 451 l 670 458 l 670 469 l 675 475 l 705 467 q 719 475 719 470 l 713 480 l 719 486 l 727 486 l 741 472 q 762 496 746 472 l 770 496 q 819 486 787 496 l 822 488 l 822 491 q 784 540 810 526 l 773 540 q 760 510 770 510 q 738 548 751 511 l 735 548 l 703 518 l 694 524 l 689 513 q 705 502 701 513 l 703 499 l 673 499 q 656 507 659 499 q 684 537 684 521 q 637 570 684 552 l 635 567 l 632 570 l 632 925 q 583 966 632 956 q 562 982 562 967 q 618 998 583 998 l 629 998 q 689 979 656 998 q 741 1006 732 1006 m 119 846 l 117 844 l 117 841 l 125 841 l 119 846 m 274 838 l 274 830 l 277 830 l 277 838 l 274 838 m 741 629 l 738 627 l 738 621 l 749 610 l 754 610 l 754 616 l 741 629 m 830 600 l 830 589 l 836 589 l 836 600 l 830 600 m 746 553 l 754 548 q 770 572 770 548 l 770 581 l 765 581 l 765 583 q 746 553 749 583 m 684 575 l 684 564 l 689 559 l 694 564 q 686 575 690 575 l 684 575 m 141 559 l 138 556 l 138 553 q 146 537 140 537 l 149 540 l 149 543 q 141 559 149 557 m 222 532 l 222 526 l 228 521 l 231 521 l 231 526 l 225 532 l 222 532 m 285 518 l 288 515 l 293 515 l 298 529 l 296 532 l 293 532 q 285 518 288 532 m 231 507 l 231 505 l 233 505 l 247 507 l 247 515 q 231 507 231 514 m 863 518 l 865 518 l 865 513 l 863 513 l 863 518 m 65 507 l 62 505 l 62 499 q 79 491 65 491 l 81 491 l 87 496 l 87 505 l 65 507 m 911 502 l 914 502 l 914 499 q 898 477 902 477 l 895 480 q 911 502 903 498 m 353 491 l 355 477 l 363 477 l 363 480 q 355 491 359 491 l 353 491 m 830 469 l 844 467 l 846 480 l 846 486 l 844 486 l 830 469 m 716 453 l 724 442 l 727 442 q 743 467 743 452 l 741 469 l 730 469 q 716 453 716 462 m 762 456 l 762 450 l 768 445 l 773 445 l 787 448 l 787 450 l 768 456 l 762 456 m 822 445 l 822 442 l 825 429 l 827 429 q 844 437 842 429 l 822 445 m 222 431 l 222 420 l 228 415 l 241 415 q 250 426 250 415 q 239 439 244 438 l 231 439 l 222 431 m 155 404 l 155 401 l 157 401 l 163 407 l 163 412 l 155 404 m 274 388 l 274 385 q 290 377 277 377 l 293 380 l 293 382 q 282 396 288 395 l 274 388 m 760 353 l 765 353 l 765 347 l 768 347 l 776 353 l 779 353 q 808 336 799 336 l 814 336 l 822 342 l 825 342 l 830 336 l 830 334 l 827 331 l 827 328 q 841 320 841 325 l 841 317 q 779 277 841 294 q 773 263 779 263 q 762 271 762 267 l 762 274 l 768 274 l 770 271 l 773 271 l 779 290 q 757 339 763 290 l 760 353 m 662 350 l 692 342 l 722 350 l 724 347 l 724 345 q 684 323 724 338 q 656 290 684 296 q 635 277 656 286 l 632 279 l 632 293 l 659 315 l 659 323 l 648 326 l 632 320 l 632 342 l 635 342 q 640 334 640 342 l 646 334 l 662 350 m 773 331 l 768 323 l 768 320 l 776 312 l 784 312 l 789 317 l 789 323 q 773 331 789 328 m 288 326 q 312 317 312 324 l 312 315 l 298 301 l 298 298 q 312 290 312 298 l 312 274 l 309 274 l 290 277 l 285 271 q 309 260 285 260 l 312 258 l 312 103 l 293 81 l 293 79 q 304 71 293 71 l 304 62 l 282 57 l 266 68 l 258 68 q 250 46 258 46 l 231 46 l 182 38 l 138 54 q 49 16 125 34 l 41 24 l 35 24 q 30 16 30 24 l 27 14 l 19 14 l 11 22 l 11 38 q 0 43 0 38 l 0 46 q 62 73 0 73 q 95 130 95 73 l 98 130 l 95 157 l 95 293 q 206 317 135 317 q 239 298 215 317 q 285 326 243 326 l 288 326 m 811 320 l 808 317 l 808 304 l 814 304 l 819 309 l 811 320 m 255 296 l 255 293 l 260 293 l 285 298 l 285 304 l 271 307 q 255 296 255 300 m 114 293 l 114 282 l 119 277 l 122 277 q 130 293 130 279 l 125 298 l 119 298 l 114 293 m 190 285 l 190 279 l 187 279 q 206 266 191 266 l 209 266 l 209 271 q 190 285 209 275 m 146 277 l 146 263 l 157 263 l 155 277 l 146 277 m 109 269 l 109 263 l 117 255 l 119 255 l 117 269 l 109 269 m 817 271 q 844 258 842 266 q 819 250 844 251 l 819 258 l 817 271 m 730 266 l 735 250 l 735 247 q 708 225 724 225 l 708 217 l 711 217 l 735 222 l 738 222 l 743 217 l 735 206 l 749 206 l 746 195 q 770 171 746 182 l 779 174 l 779 176 q 754 206 779 190 q 768 225 758 206 l 779 225 l 784 220 l 779 206 l 789 201 l 792 201 l 789 214 l 792 217 l 795 217 l 803 206 l 803 212 l 798 228 l 798 241 l 808 252 l 814 239 l 817 241 l 822 241 q 814 236 822 236 l 808 222 l 811 222 l 825 220 l 846 222 l 849 220 l 849 198 l 819 201 q 789 187 819 187 l 787 184 l 787 182 l 798 152 q 746 138 768 138 l 743 141 l 741 141 l 724 136 q 703 157 716 157 l 692 152 q 713 133 700 133 l 713 127 q 673 103 691 103 l 659 117 l 665 125 l 665 127 l 637 122 l 632 130 l 632 136 q 640 146 640 136 l 651 152 l 675 144 q 697 171 684 145 l 700 174 l 708 174 l 722 163 q 743 190 743 169 l 727 198 l 713 195 l 705 203 l 697 193 l 694 190 l 689 190 l 675 201 q 665 190 665 198 l 667 171 l 646 155 l 643 155 l 643 157 l 646 165 l 632 160 l 632 182 l 637 209 l 632 214 l 632 222 l 646 236 q 665 228 656 228 q 703 255 703 228 l 705 258 l 708 258 l 713 252 l 713 236 l 716 236 q 730 247 728 241 l 724 255 l 724 260 l 730 266 m 637 241 l 637 236 l 632 236 l 637 241 m 174 233 l 174 228 q 182 212 176 212 l 190 212 l 190 220 l 179 233 l 174 233 m 277 214 l 285 209 l 290 209 l 298 217 l 298 222 l 288 233 l 285 233 q 277 214 279 233 m 258 209 l 258 195 l 266 187 l 269 187 l 274 193 q 266 209 271 209 l 258 209 m 656 209 l 656 203 l 662 203 l 662 209 l 656 209 m 133 171 l 125 141 l 125 136 q 168 122 125 125 l 171 130 q 144 146 171 146 l 141 149 l 141 152 l 149 160 q 133 171 149 165 m 760 160 l 760 155 l 768 165 l 765 165 l 760 160 m 738 163 l 738 157 l 741 149 l 743 149 l 749 155 l 738 163 m 179 130 l 179 125 q 198 114 179 119 q 222 127 215 117 q 201 144 222 137 q 179 130 187 144 m 244 109 l 252 103 l 260 103 q 271 122 271 108 l 271 125 q 260 133 271 132 q 244 109 250 133 m 846 114 l 849 111 l 849 109 l 844 103 l 841 106 l 841 109 l 846 114 m 157 106 l 152 98 l 152 84 q 165 76 152 78 l 171 84 l 171 87 q 157 106 171 102 m 694 92 l 711 92 l 716 87 l 716 81 l 654 68 l 637 84 l 640 87 l 665 87 l 694 92 m 830 81 q 844 73 844 79 l 844 71 l 817 71 l 811 65 l 811 62 q 844 46 811 57 l 846 33 q 822 19 846 19 l 814 19 l 819 11 l 811 8 q 798 19 799 14 q 817 46 817 19 l 803 52 l 779 49 l 770 49 l 765 54 l 773 62 l 770 65 l 768 62 l 760 62 q 830 81 760 73 m 798 71 l 798 62 l 800 62 l 800 71 l 798 71 m 589 71 l 597 71 q 624 60 624 67 q 564 49 624 53 l 553 38 q 545 57 545 48 q 589 71 545 68 m 936 62 l 941 62 l 941 57 l 936 57 l 936 62 m 716 57 q 735 46 735 54 l 732 43 l 711 43 l 703 49 q 675 33 703 45 q 627 11 666 11 q 559 0 594 11 q 543 8 545 0 l 543 27 q 570 35 543 34 q 594 16 583 16 l 594 19 q 602 30 595 30 l 605 30 l 632 27 l 629 30 l 629 46 l 635 52 l 637 52 q 659 30 659 52 l 665 30 l 675 41 l 675 43 q 667 49 667 43 l 667 52 l 678 52 l 689 49 l 716 57 m 887 52 q 947 30 899 42 l 947 24 l 933 14 l 930 22 q 906 5 918 5 q 898 35 901 12 q 879 49 879 42 l 882 52 l 887 52 m 605 41 l 605 33 l 602 33 l 597 38 l 600 41 l 605 41 m 401 35 l 407 30 l 407 22 l 391 5 l 380 8 l 374 3 l 350 3 l 345 8 q 401 35 348 16 m 288 30 l 298 30 q 326 19 326 26 l 326 16 q 307 0 326 12 l 290 0 q 271 8 280 8 l 252 8 l 233 5 l 231 8 l 231 14 q 288 30 231 23 m 914 24 l 914 16 l 917 16 l 917 24 l 914 24 m 195 22 l 206 22 l 220 19 l 220 0 l 171 0 l 168 3 l 165 3 q 195 22 168 22 m 155 5 l 160 5 l 160 0 l 155 0 l 155 5 z "},"I":{"ha":366,"x_min":-126,"x_max":373,"o":"m 202 1012 l 256 985 q 316 1004 286 1004 l 338 1004 q 357 987 357 992 l 357 974 l 319 952 q 311 928 311 942 l 311 735 q 297 684 297 703 l 297 675 l 311 570 l 311 548 l 302 548 q 264 502 282 548 q 224 491 240 491 q 202 526 215 513 l 183 524 q 164 532 174 524 l 167 551 l 167 553 q 151 610 151 559 l 151 624 q 172 681 161 673 l 172 692 l 161 741 l 172 789 q 151 819 151 799 q 175 873 175 864 l 170 879 l 170 884 q 197 903 178 903 q 210 941 204 941 l 221 933 l 221 936 l 216 955 l 213 955 l 205 949 l 199 949 l 205 971 l 205 974 l 183 1001 q 202 1012 188 1012 m 39 996 l 45 974 l 31 974 l 23 982 l 23 985 q 39 996 28 996 m 64 977 l 66 977 l 80 963 l 80 960 l 77 960 q 64 971 65 966 l 64 977 m 94 849 l 99 849 l 102 836 l 102 833 l 99 735 q 115 651 111 722 q 129 600 129 625 l 129 589 q 96 540 129 570 l 102 534 l 96 529 l 94 532 l 94 849 m 243 673 l 243 665 l 245 665 l 245 673 l 243 673 m 186 670 l 183 667 l 183 662 l 194 651 l 199 651 l 199 654 q 186 670 194 669 m 254 627 l 254 621 l 259 621 l 254 627 m 104 605 l 104 602 l 110 597 l 113 597 l 118 616 l 115 616 l 104 605 m 221 597 q 232 583 227 585 l 235 586 l 235 589 l 224 597 l 221 597 m 267 597 l 267 591 l 273 591 l 267 597 m 80 524 l 88 524 q 80 507 88 509 l 75 507 l 75 518 l 80 524 m 227 502 l 229 499 l 237 499 l 245 515 l 243 518 l 235 518 q 227 502 229 518 m 354 518 l 373 507 q 346 475 373 484 q 335 502 338 475 l 338 505 l 340 505 l 343 502 l 354 518 m 39 513 l 45 507 l 45 491 l 39 483 q 23 491 23 486 l 23 499 l 39 513 m 148 491 l 156 491 q 189 472 181 472 q 267 491 253 491 q 292 477 285 491 q 278 469 292 471 l 289 458 l 294 458 l 305 467 l 308 467 l 321 456 l 321 453 q 311 420 311 437 l 311 393 q 275 380 311 384 l 275 374 l 292 372 l 297 377 l 305 377 l 316 372 l 316 369 l 311 361 l 311 355 l 316 347 l 316 345 l 311 336 q 338 317 338 336 l 338 312 l 340 315 l 343 315 l 349 307 l 349 293 l 343 269 l 340 271 l 338 271 l 340 274 l 340 279 l 335 279 q 324 263 335 271 l 321 263 l 319 266 l 311 263 l 311 133 l 308 133 l 305 136 l 302 136 l 302 130 l 324 106 l 313 92 q 340 57 340 79 q 330 5 340 5 l 300 5 l 300 -48 l 294 -48 l 294 -29 l 292 -29 l 292 -62 l 297 -62 l 297 -81 l 294 -127 l 289 -127 l 286 -113 l 286 -24 q 275 -5 286 -9 l 275 -7 q 262 3 262 -4 l 256 3 l 256 -21 l 251 -21 l 251 -10 l 248 -10 l 240 -51 l 243 -54 l 243 -56 l 237 -73 l 237 -75 l 240 -89 q 235 -168 235 -115 l 235 -241 q 227 -279 235 -261 l 232 -284 q 216 -406 225 -406 l 221 -417 l 213 -471 l 205 -466 l 202 -469 l 202 -479 l 208 -485 q 199 -496 206 -496 l 199 -539 l 194 -545 l 191 -542 l 191 -531 l 202 -357 l 202 -322 l 199 -300 l 202 -279 l 202 -254 q 197 -149 202 -188 l 194 -149 l 194 -151 l 197 -192 l 183 -436 l 178 -436 l 180 -379 l 180 -357 l 178 -357 q 164 -680 164 -524 l 164 -694 l 159 -694 l 159 -669 l 156 -577 l 159 -545 l 156 -466 l 161 -317 l 161 -300 l 159 -300 l 153 -385 l 145 -401 l 151 -406 q 142 -417 142 -406 l 140 -420 l 137 -420 l 137 -428 l 140 -425 l 142 -425 l 145 -428 l 145 -431 l 140 -488 l 140 -498 l 134 -498 l 134 -463 l 132 -463 l 129 -517 l 123 -517 l 123 -515 l 134 -298 l 134 -287 l 129 -265 l 129 -252 q 123 -178 129 -205 l 121 -178 l 121 -189 l 115 -189 l 115 -176 q 123 -170 115 -170 l 118 -119 l 121 -100 l 121 0 l 123 3 l 123 5 q 91 24 91 5 l 88 22 l 83 22 q 64 35 83 35 l 28 5 l 9 5 q -1 24 3 5 q 9 62 7 38 l 18 62 l 20 60 l 34 68 l 42 62 l 45 62 l 45 68 l 42 71 l 42 73 q 75 79 45 79 q 94 130 94 89 l 94 179 l 96 203 l 94 231 l 94 320 q 113 331 94 325 l 113 334 l 94 377 l 94 412 l 96 415 l 96 418 l 110 407 q 145 448 129 414 l 140 464 l 148 491 m 148 475 l 148 472 l 151 464 l 153 464 l 153 467 l 151 475 l 148 475 m 159 448 l 159 439 q 167 434 159 434 l 170 431 l 170 429 l 167 412 l 170 410 l 172 410 l 180 418 l 180 429 l 175 429 l 175 431 l 180 448 l 180 453 q 172 469 180 467 q 159 448 159 463 m 153 407 l 148 399 l 148 393 l 153 388 l 164 388 l 170 393 l 167 396 l 164 396 l 167 399 l 167 404 l 153 407 m 245 366 l 245 363 l 254 355 l 256 355 l 270 358 l 270 372 l 273 374 l 273 377 l 270 377 q 245 366 245 372 m 202 366 l 202 363 l 208 363 l 208 366 l 202 366 m 142 355 l 142 347 l 145 347 l 145 355 l 142 355 m 254 326 l 254 320 l 256 320 l 256 326 l 254 326 m 340 320 l 346 320 l 346 317 l 340 317 l 340 320 m 338 309 l 338 307 l 343 307 l 343 309 l 338 309 m 172 266 l 172 250 l 178 244 l 178 260 l 172 266 m 270 217 l 273 214 l 278 214 l 281 231 l 270 217 m 140 184 l 140 179 q 159 168 144 168 l 167 176 l 159 195 q 140 184 144 195 m 99 157 q 118 138 99 146 q 129 157 129 141 q 110 168 126 168 q 99 157 101 165 m 278 125 l 278 109 l 283 103 l 283 130 l 278 125 m 107 103 q 115 92 111 92 l 118 92 l 118 100 l 113 106 l 110 103 l 107 103 m 80 73 l 80 65 l 88 65 l 94 71 l 94 76 l 88 81 l 80 73 m 175 62 l 175 52 l 178 52 l 178 62 l 175 62 m 39 41 l 47 35 l 53 35 l 58 41 l 50 54 q 39 41 43 54 m 85 -13 l 91 -18 l 91 -24 l 85 -24 l 85 -13 m 262 -18 l 270 -18 l 264 -24 l 262 -21 l 262 -18 m 85 -29 l 91 -29 l 91 -48 l 85 -48 l 85 -29 m -64 -32 l -56 -32 l -61 -37 l -64 -35 l -64 -32 m 85 -59 l 91 -59 l 91 -64 l 85 -64 l 85 -59 m 289 -149 l 294 -149 l 294 -159 l 289 -159 l 289 -149 m -126 -170 l -121 -170 l -121 -173 l -126 -173 l -126 -170 m -83 -227 l -80 -230 l -80 -233 l -85 -238 l -88 -235 l -88 -233 l -83 -227 m 180 -333 l 180 -355 l 183 -355 l 183 -333 l 180 -333 m 216 -360 l 216 -371 l 218 -371 l 218 -360 l 216 -360 m 205 -428 l 205 -444 l 208 -444 l 208 -428 l 205 -428 m 175 -441 l 180 -441 l 180 -466 l 175 -466 l 175 -441 m 208 -450 l 208 -463 l 210 -463 l 213 -450 l 208 -450 m -4 -458 l -1 -460 l -1 -463 l -4 -466 l -7 -466 l -9 -463 l -9 -460 l -7 -458 l -4 -458 m 12 -463 q 28 -485 28 -469 l 28 -490 l 20 -498 l 15 -498 q 1 -477 1 -492 l 1 -471 l 12 -463 m 210 -474 l 216 -474 l 216 -477 l 210 -477 l 210 -474 m 80 -504 l 83 -504 l 88 -509 l 88 -515 l 83 -515 l 80 -504 m 205 -509 l 210 -509 l 210 -517 l 205 -517 l 205 -509 m 172 -517 l 178 -517 l 178 -520 l 172 -520 l 172 -517 m -83 -534 l -80 -534 q -66 -555 -66 -541 l -75 -561 l -80 -561 q -91 -542 -91 -557 l -83 -534 m 123 -536 l 129 -536 l 129 -555 l 123 -555 l 123 -536 m 202 -536 l 208 -536 l 208 -539 l 202 -539 l 202 -536 m 172 -542 l 178 -542 l 178 -545 l 175 -553 l 172 -553 l 172 -542 m 189 -553 l 191 -553 l 197 -558 l 194 -558 l 189 -553 m 191 -574 l 197 -574 l 197 -583 l 194 -585 l 194 -588 l 197 -591 l 191 -591 l 191 -574 m 170 -585 l 175 -585 l 175 -593 l 170 -593 l 170 -585 m 186 -626 l 191 -626 l 191 -642 l 186 -642 l 186 -626 m 107 -667 l 113 -667 l 113 -672 l 107 -667 m 9 -724 l 15 -724 l 15 -726 l 9 -726 l 9 -724 z "},"J":{"ha":645,"x_min":-76,"x_max":670,"o":"m 494 1039 l 545 1009 q 600 1028 565 1028 l 618 1028 q 667 1009 654 1028 q 616 987 667 999 l 600 996 l 591 993 l 591 987 l 602 974 l 600 971 l 600 781 l 597 768 l 600 751 l 600 553 l 613 553 q 670 529 651 553 l 670 524 q 629 505 669 519 q 600 445 602 477 l 600 361 q 475 35 600 80 q 301 0 415 0 q 236 11 261 0 l 239 30 q 225 87 239 51 l 228 87 q 290 27 260 27 q 309 19 296 19 l 320 73 q 382 149 382 104 l 382 374 q 396 396 396 385 q 382 420 382 410 l 382 439 q 336 513 382 497 q 320 540 320 519 q 374 556 340 556 l 382 556 l 382 949 q 336 996 376 996 q 309 1006 309 999 l 309 1009 q 358 1028 322 1028 l 377 1028 q 437 1009 404 1028 q 494 1039 484 1039 m 559 949 l 581 939 l 583 941 l 583 944 l 572 955 l 564 955 l 559 949 m 553 887 l 553 884 l 559 884 l 559 887 l 553 887 m 532 817 q 581 789 532 806 l 581 784 l 578 781 l 578 779 l 589 773 l 591 776 q 545 830 581 806 l 543 830 q 532 817 537 829 m 572 757 l 572 751 l 578 757 l 572 757 m 391 632 q 461 570 397 602 q 467 553 461 553 q 483 572 483 553 l 461 572 q 423 646 448 572 q 410 651 410 646 q 391 632 391 643 m 515 618 q 562 578 540 578 l 564 581 l 564 589 q 540 618 540 589 l 526 627 l 518 618 l 515 618 m -52 450 l -43 434 l -43 396 l -49 374 q -76 412 -76 385 l -76 420 q -52 450 -76 437 m 54 374 l 98 228 q 174 114 107 182 l 174 98 q 163 79 174 83 q 136 87 149 87 l 130 87 q 117 52 122 85 q 54 68 77 68 l 41 62 l 38 65 q 54 179 54 149 l 46 228 l 49 274 l 46 336 q 54 374 46 374 m 429 363 l 429 361 l 437 353 l 442 358 l 431 363 l 429 363 m 171 65 l 176 65 l 190 27 q 174 54 181 31 l 171 57 l 171 65 m 328 14 l 328 11 l 339 11 l 342 14 l 342 16 l 339 16 l 328 14 z "},"K":{"ha":856,"x_min":0,"x_max":882,"o":"m 195 1006 l 209 1006 l 258 977 q 315 998 278 998 l 326 998 l 331 993 q 298 979 312 979 l 293 985 l 285 985 q 277 968 277 982 q 304 960 285 960 l 307 958 l 307 955 l 298 947 l 298 939 l 309 925 l 309 787 l 288 773 l 282 773 q 277 781 277 773 l 269 781 q 250 754 250 774 l 250 751 l 258 735 l 277 735 q 285 719 279 719 l 288 719 l 288 732 l 285 746 l 307 765 l 309 762 l 309 708 l 304 703 q 274 713 304 709 q 252 700 252 711 q 263 689 255 689 l 263 684 l 258 684 l 258 675 q 293 659 283 675 l 296 656 l 304 654 l 304 665 l 309 665 l 309 572 l 494 781 l 529 787 l 532 784 l 532 779 l 529 776 l 529 773 q 553 762 553 766 l 545 754 l 548 743 l 515 735 l 510 735 q 483 749 494 749 q 458 732 483 741 l 450 681 l 453 678 l 464 678 l 483 697 l 491 697 l 491 689 q 499 673 493 673 l 502 675 l 502 678 l 496 697 l 499 697 q 507 716 507 697 q 540 727 524 727 q 556 719 556 724 l 461 610 l 521 518 l 534 518 q 608 494 578 518 l 608 488 q 583 477 608 482 q 572 456 572 466 l 572 448 q 673 279 572 427 q 803 79 777 108 q 871 65 807 74 q 882 35 882 51 l 882 19 q 871 0 882 5 l 483 0 q 467 8 469 0 l 467 57 q 537 73 467 68 q 556 100 551 82 q 507 195 556 126 l 334 469 q 309 434 309 450 l 309 122 q 347 71 309 71 l 377 71 q 404 33 404 71 l 404 19 q 393 0 404 5 l 16 0 q 0 8 2 0 l 0 57 q 79 76 0 70 q 92 125 92 100 l 92 423 q 24 483 92 466 l 19 491 l 19 494 q 76 518 40 518 l 92 518 l 92 692 l 98 697 l 109 684 q 141 711 118 685 l 163 705 l 168 722 l 168 724 l 163 730 l 160 730 q 122 722 140 730 l 92 746 l 92 781 l 95 811 l 92 822 l 95 822 l 109 819 l 114 827 l 114 833 l 109 838 l 92 838 l 92 933 l 95 933 l 103 928 l 106 930 l 106 933 l 103 941 l 90 939 l 90 941 q 24 971 83 958 l 22 982 q 79 998 44 998 l 90 998 q 149 979 119 998 l 195 1006 m 692 1006 q 732 979 720 979 q 781 998 747 998 l 798 998 l 798 996 q 784 990 798 990 q 770 963 774 963 l 765 963 l 762 977 l 765 985 q 746 977 756 985 l 751 960 l 738 944 q 703 949 715 944 l 700 936 l 700 930 l 713 917 l 713 898 l 692 873 l 689 873 l 675 884 l 662 884 l 654 879 l 651 879 l 646 884 l 648 892 q 635 901 635 896 l 635 909 q 689 941 635 922 q 697 947 697 941 l 697 955 l 694 958 l 694 960 q 654 949 667 949 q 632 963 632 959 l 656 977 l 654 979 l 654 982 q 675 1004 660 982 l 678 1006 l 692 1006 m 570 996 l 578 977 l 594 982 l 605 974 l 605 971 q 583 958 605 964 q 564 977 564 962 l 564 979 l 551 968 l 543 977 l 543 982 q 570 996 543 989 m 602 996 l 610 996 l 605 990 l 602 993 l 602 996 m 377 979 l 380 977 l 380 974 q 355 966 380 968 l 355 971 l 377 979 m 244 968 l 250 963 q 263 974 262 968 l 250 974 l 244 968 m 195 958 l 195 952 l 201 947 l 201 958 l 195 958 m 222 941 l 225 928 l 233 928 l 233 930 q 225 941 229 941 l 222 941 m 659 917 l 659 906 l 665 901 l 667 901 l 670 909 l 667 917 l 659 917 m 686 901 q 703 890 689 890 l 708 898 l 708 906 l 694 909 l 692 909 q 686 901 686 909 m 149 890 q 187 833 176 835 q 206 854 203 833 q 184 873 206 873 q 165 901 170 901 q 149 890 152 901 m 203 895 l 198 879 l 212 865 l 220 865 l 228 873 l 228 876 q 203 895 228 895 m 117 882 l 117 871 l 119 871 l 119 882 l 117 882 m 263 830 l 260 822 l 269 817 l 274 817 l 274 822 l 266 830 l 263 830 m 534 830 l 537 830 l 553 817 q 526 806 542 806 l 521 806 l 515 811 l 534 830 m 635 814 l 635 811 l 600 773 l 597 773 l 589 781 l 589 789 l 594 795 l 608 792 q 635 814 608 814 m 269 792 l 288 787 l 293 792 l 288 798 l 274 798 l 269 792 m 119 779 l 119 776 l 125 768 q 138 779 137 773 l 138 784 l 130 787 l 119 779 m 187 784 l 190 765 l 190 762 l 179 746 q 203 724 186 724 q 222 754 219 724 l 222 762 q 201 787 203 762 l 193 787 l 190 784 l 187 784 m 505 770 l 502 768 l 502 765 q 521 751 506 751 l 524 754 l 524 760 q 505 770 524 767 m 111 760 l 111 751 l 114 751 l 114 760 l 111 760 m 418 689 q 437 675 420 681 l 442 684 l 434 689 l 418 689 m 225 684 l 225 681 q 233 670 229 670 l 236 673 l 236 678 l 231 684 l 225 684 m 144 613 l 146 610 l 152 610 l 157 621 l 157 629 l 155 629 q 144 613 144 624 m 187 594 l 187 591 l 198 581 l 198 583 l 190 594 l 187 594 m 377 586 l 374 583 l 374 575 l 382 567 l 391 570 l 391 583 l 377 586 z "},"L":{"ha":772,"x_min":0,"x_max":819,"o":"m 198 1001 q 212 985 202 990 l 214 985 l 217 998 l 252 977 l 255 977 q 317 996 280 996 l 328 996 q 380 977 366 996 q 347 963 380 963 q 312 928 312 948 q 184 901 242 901 q 155 917 172 901 l 146 917 q 103 892 146 892 l 100 892 l 95 898 l 95 914 l 92 941 q 103 949 103 941 q 87 958 100 958 l 81 958 l 73 952 q 27 968 49 966 l 24 971 l 24 977 q 76 996 39 996 l 87 996 l 100 985 l 103 985 l 114 993 q 149 977 124 993 l 152 977 q 198 1001 189 1001 m 317 968 l 339 963 l 342 966 l 342 971 l 328 974 l 323 974 l 317 968 m 271 963 l 269 960 l 271 949 l 279 949 l 279 955 l 271 963 m 231 952 l 239 941 l 241 941 l 241 947 l 244 947 l 241 955 l 236 955 l 233 952 l 231 952 m 182 952 l 179 949 l 179 947 l 198 933 l 201 936 l 201 939 q 182 952 197 952 m 263 941 l 258 928 l 260 920 l 269 920 q 277 936 274 920 l 269 941 l 263 941 m 106 917 l 111 911 q 133 922 126 911 l 133 925 l 130 925 q 106 917 106 924 m 309 901 l 312 898 l 312 732 q 304 727 312 727 l 301 724 l 301 719 q 309 713 301 713 l 312 711 l 312 515 l 331 515 q 380 491 359 515 l 380 486 l 336 464 q 312 423 312 442 l 312 98 q 353 68 312 73 l 429 68 q 632 233 530 68 q 773 361 720 361 q 819 328 819 355 l 819 323 q 792 298 819 300 q 732 252 732 298 l 700 0 l 464 0 l 3 3 l 0 5 l 0 54 q 22 68 7 68 l 41 68 q 95 130 95 68 l 95 401 q 52 472 95 453 q 24 486 24 479 l 24 491 q 73 515 46 515 l 95 515 l 95 684 q 103 703 103 694 l 95 703 l 95 732 l 100 738 l 114 738 l 130 724 l 141 724 l 141 727 l 133 743 l 136 746 l 138 746 l 160 741 l 187 749 l 190 749 l 214 741 q 222 751 218 751 l 252 751 l 263 749 q 282 760 282 755 l 282 770 l 271 773 q 179 757 226 757 l 165 757 q 144 768 156 757 q 136 757 144 757 l 127 757 q 117 773 117 762 l 103 770 l 100 770 l 95 776 l 95 827 l 98 827 l 106 822 l 114 830 l 114 833 q 103 841 114 837 l 95 838 l 95 844 q 203 865 95 861 l 214 854 l 220 854 q 247 879 220 879 q 309 901 288 879 m 225 808 l 225 806 l 231 806 l 233 817 l 225 808 m 138 792 q 149 779 144 780 l 157 779 l 165 787 l 165 798 l 160 803 l 146 803 q 138 792 140 803 m 141 711 l 141 703 l 149 703 l 160 708 l 155 713 l 141 711 m 157 697 l 157 692 l 165 684 l 168 686 l 168 689 l 165 697 l 157 697 m 239 670 l 247 659 l 250 662 l 250 665 l 247 678 l 244 678 q 239 670 239 678 m 111 391 l 111 380 l 114 380 l 114 391 l 111 391 m 266 377 l 266 372 l 271 377 l 266 377 m 152 136 l 168 130 l 171 130 l 184 133 l 184 141 q 168 149 182 149 q 152 136 157 149 z "},"M":{"ha":1097,"x_min":0,"x_max":1123,"o":"m 182 1006 l 187 1006 q 233 979 198 1006 l 236 979 l 269 996 q 323 887 281 996 l 488 515 l 515 515 q 564 494 542 515 l 564 488 q 543 475 563 482 q 526 429 534 467 l 553 361 l 556 361 q 833 996 814 965 q 863 977 863 982 l 911 1006 l 925 1006 l 974 977 q 1034 998 974 989 l 1047 998 q 1099 979 1084 998 l 1099 977 q 1047 958 1097 970 q 1025 925 1034 945 l 1025 515 l 1047 515 q 1090 494 1072 515 l 1090 488 q 1058 475 1090 481 q 1025 418 1030 448 l 1025 193 q 1001 182 1025 186 l 998 179 l 998 168 l 1004 163 l 1025 165 l 1025 133 l 1023 119 l 1028 114 l 1028 109 q 971 87 1027 102 l 939 87 q 827 71 939 73 q 817 81 825 79 q 784 54 817 54 q 727 33 741 54 l 719 30 l 716 33 l 716 46 q 787 73 716 73 q 808 106 808 83 l 808 168 q 863 179 808 178 q 890 168 874 179 l 892 168 l 892 176 l 909 176 q 920 160 913 176 l 922 163 l 936 163 l 952 152 q 987 179 987 160 q 966 195 982 195 l 941 195 q 906 209 914 195 l 895 212 l 892 209 l 901 195 q 892 190 901 190 l 873 195 l 852 187 l 841 187 l 819 193 l 811 182 l 808 184 l 808 426 q 754 483 808 465 l 749 491 q 803 513 770 513 l 808 513 l 808 708 l 806 708 l 534 57 q 510 19 530 57 l 491 19 q 431 149 483 27 l 434 152 l 450 144 l 458 146 q 507 130 473 130 l 521 130 q 537 138 531 130 q 499 176 531 176 l 426 163 l 423 163 q 293 448 315 425 q 225 483 270 473 l 222 494 q 271 513 240 513 l 195 686 l 193 686 l 193 182 q 214 73 193 73 l 231 71 l 260 71 q 288 33 288 71 l 282 33 l 279 35 l 277 35 l 271 30 q 260 41 271 41 l 260 43 q 244 27 248 43 q 260 14 247 14 l 274 3 l 285 14 l 288 14 l 288 11 l 277 0 l 16 0 q 0 8 2 0 l 0 49 q 68 73 0 73 q 92 127 92 73 l 92 418 q 52 477 92 468 q 35 488 41 477 l 35 491 q 92 513 49 513 l 92 928 q 22 971 68 971 l 22 982 q 76 998 37 998 l 87 998 q 144 982 110 998 l 182 1006 m 193 922 l 198 917 q 212 928 210 922 l 198 928 l 193 922 m 217 917 l 217 914 l 220 906 l 222 906 l 222 914 l 220 917 l 217 917 m 174 901 l 174 895 l 182 887 l 184 890 l 184 892 l 182 901 l 174 901 m 849 798 l 849 795 q 865 784 849 789 q 882 800 882 789 l 868 806 q 849 798 849 802 m 920 553 l 920 551 l 922 543 l 925 543 l 925 545 l 922 553 l 920 553 m 982 336 l 982 328 l 998 326 l 1006 328 q 990 336 1006 336 l 990 339 l 982 336 m 985 315 q 1004 298 991 298 l 1004 301 q 993 317 998 317 l 990 317 l 987 315 l 985 315 m 1004 285 l 1004 282 l 1006 282 l 1012 288 l 1012 293 l 1004 285 m 941 285 l 941 282 q 963 269 949 269 l 971 274 q 949 290 966 290 l 947 290 l 941 285 m 1012 269 l 1012 263 l 1017 258 l 1023 258 l 1012 269 m 865 247 q 873 236 869 236 l 876 236 l 876 244 l 871 250 l 868 247 l 865 247 m 933 241 l 933 231 q 944 247 944 236 l 939 247 l 933 241 m 876 228 l 876 225 l 882 220 q 892 228 892 224 l 890 231 l 890 233 l 876 228 m 998 206 l 998 201 l 1006 193 l 1009 195 l 1009 198 l 1006 206 l 998 206 m 122 133 l 125 130 l 130 130 q 138 146 138 133 l 138 152 l 136 155 l 136 157 q 122 133 122 157 m 868 146 l 868 138 q 884 130 871 130 q 895 138 895 134 q 882 157 895 153 q 868 146 869 152 m 106 141 l 100 122 l 106 117 q 119 127 118 122 l 119 133 l 111 141 l 106 141 m 985 127 l 985 117 l 998 114 q 1015 125 1009 114 q 996 136 1015 132 l 985 127 m 491 119 l 488 117 l 488 111 l 494 106 l 499 106 l 499 109 l 491 119 m 922 111 l 920 98 l 922 95 l 939 95 q 930 111 939 109 l 922 111 m 90 84 l 90 73 q 100 65 90 65 q 117 76 117 71 l 117 81 q 98 92 113 92 l 90 84 m 518 68 l 526 68 l 529 81 l 529 84 l 526 84 q 518 68 518 81 m 111 54 l 146 41 l 149 43 l 146 52 l 144 49 l 141 49 q 125 68 141 68 l 111 54 m 214 57 l 214 54 l 222 54 l 222 57 l 214 57 m 1085 57 q 1099 24 1095 57 l 1101 24 q 1109 46 1107 24 l 1112 49 l 1115 49 q 1123 35 1120 49 l 1118 22 l 1123 16 q 1112 0 1118 0 l 1063 0 q 1058 11 1058 0 l 1050 11 l 1036 0 l 781 0 l 770 16 q 757 0 760 16 l 727 0 l 722 5 l 722 8 q 838 33 798 33 l 860 33 l 882 16 l 890 22 l 887 24 l 887 27 q 922 41 897 41 l 990 38 l 993 41 l 996 41 q 1023 22 1006 38 l 1025 22 q 1058 38 1025 36 q 1085 57 1070 57 m 195 43 l 198 41 q 212 49 212 44 l 209 52 l 206 52 q 195 43 195 47 m 944 22 l 944 19 l 949 14 l 955 14 l 968 16 l 968 22 l 963 27 l 944 22 m 901 11 l 914 11 q 930 19 928 11 l 922 24 q 901 11 901 17 z "}}}
